<svg width="24" height="24" viewBox="0 0 24 24" fill="none" xmlns="http://www.w3.org/2000/svg">
<g clip-path="url(#clip0_281_460)">
<path fill-rule="evenodd" clip-rule="evenodd" d="M3 12C3 11.5858 3.33579 11.25 3.75 11.25H21.21C21.6242 11.25 21.96 11.5858 21.96 12C21.96 12.4142 21.6242 12.75 21.21 12.75H3.75C3.33579 12.75 3 12.4142 3 12Z" fill="#172239"/>
<path fill-rule="evenodd" clip-rule="evenodd" d="M10.6847 3.45502C10.9911 3.73377 11.0135 4.20812 10.7347 4.5145L3.97654 11.9425C3.97649 11.9425 3.97643 11.9426 3.97636 11.9427C3.97344 11.9461 3.95996 11.966 3.95996 12.0048C3.95996 12.0436 3.97346 12.0635 3.97637 12.0669C3.97643 12.0669 3.97649 12.067 3.97654 12.0671L10.7347 19.495C11.0135 19.8014 10.9911 20.2758 10.6847 20.5545C10.3783 20.8333 9.90396 20.8109 9.6252 20.5045L2.86521 13.0745L2.86338 13.0725C2.32549 12.477 2.32549 11.5326 2.86338 10.9371L2.8652 10.935L2.86521 10.935L9.6252 3.50504C9.90396 3.19866 10.3783 3.17627 10.6847 3.45502Z" fill="#172239"/>
</g>
<defs>
<clipPath id="clip0_281_460">
<rect width="24" height="24" fill="white"/>
</clipPath>
</defs>
</svg>
