<svg width="59" height="59" viewBox="0 0 59 59" fill="none" xmlns="http://www.w3.org/2000/svg">
<path fill-rule="evenodd" clip-rule="evenodd" d="M29.5003 54.0837C43.0772 54.0837 54.0837 43.0772 54.0837 29.5003C54.0837 15.9233 43.0772 4.91699 29.5003 4.91699C15.9233 4.91699 4.91699 15.9233 4.91699 29.5003C4.91699 43.0772 15.9233 54.0837 29.5003 54.0837ZM20.387 38.6136C19.427 37.6536 19.427 36.097 20.387 35.137L26.0238 29.5003L20.3873 23.8637C19.4272 22.9037 19.4272 21.3471 20.3873 20.3871C21.3473 19.4271 22.9038 19.4271 23.8639 20.3871L29.5003 26.0238L35.137 20.387C36.097 19.427 37.6536 19.427 38.6136 20.387C39.5736 21.3471 39.5736 22.9036 38.6136 23.8636L32.9769 29.5003L38.6139 35.137C39.5738 36.0973 39.5738 37.6536 38.6139 38.6136C37.6539 39.5738 36.0973 39.5738 35.1373 38.6136L29.5003 32.9769L23.8636 38.6136C22.9036 39.5736 21.3471 39.5736 20.387 38.6136Z" fill="#A84229"/>
</svg>
