<svg width="48" height="48" viewBox="0 0 48 48" fill="none" xmlns="http://www.w3.org/2000/svg">
<path opacity="0.5" d="M24.0003 32C12.4804 32 10.4397 20.5191 10.0781 11.4129C9.97758 8.87995 9.9273 7.61346 10.8787 6.44167C11.8302 5.26987 12.9689 5.07774 15.2464 4.69348C17.4945 4.31418 20.4332 4 24.0003 4C27.5674 4 30.5061 4.31418 32.7543 4.69348C35.0317 5.07774 36.1704 5.26987 37.1219 6.44167C38.0733 7.61346 38.023 8.87995 37.9225 11.4129C37.5609 20.5191 35.5202 32 24.0003 32Z" fill="#FD4910"/>
<path d="M35.2807 24.844L40.9138 21.7145C42.4186 20.8784 43.1711 20.4604 43.5854 19.7562C43.9998 19.052 43.9998 18.1912 43.9999 16.4697L43.9999 16.3247C43.9999 14.2375 44 13.1938 43.4337 12.4082C42.8674 11.6225 41.8774 11.2925 39.8973 10.6324L38 10L37.9661 10.1693C37.9568 10.5478 37.9404 10.9601 37.9225 11.4129C37.7458 15.8617 37.1684 20.8773 35.2807 24.844Z" fill="#FD4910"/>
<path d="M10.0781 11.4129C10.2548 15.8619 10.8322 20.8778 12.7202 24.8446L7.0861 21.7145C5.58126 20.8784 4.82883 20.4604 4.41446 19.7562C4.00008 19.052 4.00005 18.1912 4.00001 16.4697L4 16.3247C3.99995 14.2375 3.99992 13.1938 4.56619 12.4082C5.13247 11.6225 6.12253 11.2925 8.10264 10.6324L9.99989 10L10.0346 10.1734C10.0439 10.5508 10.0602 10.9618 10.0781 11.4129Z" fill="#FD4910"/>
<path fill-rule="evenodd" clip-rule="evenodd" d="M10.5 44C10.5 43.1716 11.1716 42.5 12 42.5H36C36.8284 42.5 37.5 43.1716 37.5 44C37.5 44.8284 36.8284 45.5 36 45.5H12C11.1716 45.5 10.5 44.8284 10.5 44Z" fill="#FD4910"/>
<path opacity="0.5" d="M30.9153 42.5H17.085L17.6786 39.0003C17.8656 38.0655 18.6864 37.3926 19.6398 37.3926H28.3605C29.3139 37.3926 30.1347 38.0655 30.3217 39.0003L30.9153 42.5Z" fill="#FD4910"/>
<path d="M24.0003 32.0003C23.4812 32.0003 22.9813 31.977 22.5 31.9316V37.3926H25.5V31.9317C25.0189 31.977 24.5192 32.0003 24.0003 32.0003Z" fill="#FD4910"/>
<path fill-rule="evenodd" clip-rule="evenodd" d="M25.574 11.6142C26.1345 11.8464 26.5 12.3934 26.5 13V21C26.5 21.8285 25.8284 22.5 25 22.5C24.1716 22.5 23.5 21.8285 23.5 21V16.6214L23.0607 17.0607C22.4749 17.6465 21.5251 17.6465 20.9393 17.0607C20.3536 16.4749 20.3536 15.5252 20.9393 14.9394L23.9393 11.9394C24.3683 11.5104 25.0135 11.3821 25.574 11.6142Z" fill="#FD4910"/>
</svg>
