<svg width="48" height="48" viewBox="0 0 48 48" fill="none" xmlns="http://www.w3.org/2000/svg">
<path opacity="0.5" d="M4 13.8995C4 12.1344 4 11.2519 4.1387 10.5168C4.74928 7.28062 7.28062 4.74928 10.5168 4.1387C11.2519 4 12.1344 4 13.8995 4C14.6728 4 15.0595 4 15.4311 4.03475C17.0333 4.18457 18.553 4.81407 19.7919 5.84103C20.0792 6.07923 20.3527 6.35265 20.8995 6.8995L22 8C23.6316 9.63156 24.4473 10.4473 25.4242 10.9909C25.9609 11.2894 26.5301 11.5252 27.1207 11.6936C28.1958 12 29.3495 12 31.6569 12H32.4042C37.6689 12 40.3013 12 42.0123 13.5389C42.1697 13.6805 42.3195 13.8303 42.4611 13.9877C44 15.6987 44 18.3311 44 23.5958V28C44 35.5425 44 39.3137 41.6569 41.6569C39.3137 44 35.5425 44 28 44H20C12.4575 44 8.68629 44 6.34315 41.6569C4 39.3137 4 35.5425 4 28V13.8995Z" fill="#A14641"/>
<path d="M39.9995 12.475C39.9978 11.8803 39.9893 11.5253 39.9487 11.2168C39.5942 8.52444 37.4756 6.40579 34.7832 6.05133C34.3933 6 33.9288 6 33 6H19.976C20.2078 6.20783 20.4689 6.4689 20.8995 6.8995L22 8C23.6316 9.63156 24.4473 10.4473 25.4242 10.9909C25.9609 11.2894 26.5301 11.5252 27.1207 11.6936C28.1958 12 29.3495 12 31.6569 12H32.4042C35.9622 12 38.318 12 39.9995 12.475Z" fill="#A14641"/>
<path fill-rule="evenodd" clip-rule="evenodd" d="M24.5 20C24.5 19.1716 25.1716 18.5 26 18.5H36C36.8284 18.5 37.5 19.1716 37.5 20C37.5 20.8284 36.8284 21.5 36 21.5H26C25.1716 21.5 24.5 20.8284 24.5 20Z" fill="#A14641"/>
</svg>
