<svg width="58" height="58" viewBox="0 0 58 58" fill="none" xmlns="http://www.w3.org/2000/svg">
<path opacity="0.5" d="M25.7783 14.8249L24.5653 13.9665C22.8341 12.7413 20.7655 12.0834 18.6447 12.0834H17.1645C16.1877 12.0834 15.201 12.145 14.2804 12.4715C8.52223 14.5137 4.56141 21.9797 4.8479 38.9147C4.90563 42.3268 5.70403 46.098 8.7827 47.5703C9.74207 48.0291 10.8669 48.3334 12.1479 48.3334C13.6849 48.3334 14.9055 47.8952 15.8476 47.2777C16.8355 46.6303 17.7053 45.7888 18.5748 44.9476L18.5748 44.9476C19.6492 43.9081 20.7232 42.8691 22.0188 42.1972C23.43 41.4654 24.9964 41.0834 26.5861 41.0834H31.4139C33.0035 41.0834 34.5699 41.4654 35.9811 42.1972C37.2768 42.8691 38.3507 43.9081 39.4251 44.9475L39.4252 44.9476C40.2947 45.7888 41.1645 46.6303 42.1524 47.2777C43.0945 47.8952 44.3151 48.3334 45.8521 48.3334C47.133 48.3334 48.2579 48.0291 49.2173 47.5703C52.2959 46.098 53.0943 42.3268 53.1521 38.9147C53.4385 21.9797 49.4777 14.5137 43.7195 12.4715C42.7989 12.145 41.8122 12.0834 40.8355 12.0834H39.3553C37.2344 12.0834 35.1658 12.7413 33.4347 13.9665L32.2218 14.8249C31.2798 15.4916 30.1541 15.8496 29 15.8496C27.8459 15.8496 26.7203 15.4916 25.7783 14.8249Z" fill="#143E68"/>
<path d="M40.4792 21.75C41.4802 21.75 42.2917 22.5615 42.2917 23.5625C42.2917 24.5635 41.4802 25.375 40.4792 25.375C39.4782 25.375 38.6667 24.5635 38.6667 23.5625C38.6667 22.5615 39.4782 21.75 40.4792 21.75Z" fill="#143E68"/>
<path d="M18.125 22.3542C19.126 22.3542 19.9375 23.1657 19.9375 24.1667V25.9792H21.75C22.751 25.9792 23.5625 26.7907 23.5625 27.7917C23.5625 28.7927 22.751 29.6042 21.75 29.6042H19.9375V31.4167C19.9375 32.4177 19.126 33.2292 18.125 33.2292C17.124 33.2292 16.3125 32.4177 16.3125 31.4167V29.6042H14.5C13.499 29.6042 12.6875 28.7927 12.6875 27.7917C12.6875 26.7907 13.499 25.9792 14.5 25.9792H16.3125V24.1667C16.3125 23.1657 17.124 22.3542 18.125 22.3542Z" fill="#143E68"/>
<path d="M45.9167 27.1875C45.9167 28.1885 45.1052 29 44.1042 29C43.1031 29 42.2917 28.1885 42.2917 27.1875C42.2917 26.1865 43.1031 25.375 44.1042 25.375C45.1052 25.375 45.9167 26.1865 45.9167 27.1875Z" fill="#143E68"/>
<path d="M36.8542 29C37.8552 29 38.6667 28.1885 38.6667 27.1875C38.6667 26.1865 37.8552 25.375 36.8542 25.375C35.8532 25.375 35.0417 26.1865 35.0417 27.1875C35.0417 28.1885 35.8532 29 36.8542 29Z" fill="#143E68"/>
<path d="M42.2917 30.8125C42.2917 29.8115 41.4802 29 40.4792 29C39.4782 29 38.6667 29.8115 38.6667 30.8125C38.6667 31.8135 39.4782 32.625 40.4792 32.625C41.4802 32.625 42.2917 31.8135 42.2917 30.8125Z" fill="#143E68"/>
</svg>
