<svg width="21" height="20" viewBox="0 0 21 20" fill="none" xmlns="http://www.w3.org/2000/svg">
<path d="M20.8334 17.9999C20.8334 18.3535 20.6973 18.6927 20.4551 18.9427C20.2128 19.1928 19.8843 19.3333 19.5417 19.3333H1.45837C1.1158 19.3333 0.787262 19.1928 0.545027 18.9427C0.302794 18.6927 0.166708 18.3535 0.166708 17.9999C0.166708 17.6463 0.302794 17.3072 0.545027 17.0571C0.787262 16.8071 1.1158 16.6666 1.45837 16.6666H19.5417C19.8843 16.6666 20.2128 16.8071 20.4551 17.0571C20.6973 17.3072 20.8334 17.6463 20.8334 17.9999ZM20.8334 1.99992C20.8334 2.35354 20.6973 2.69268 20.4551 2.94273C20.2128 3.19278 19.8843 3.33325 19.5417 3.33325H1.45837C1.1158 3.33325 0.787262 3.19278 0.545027 2.94273C0.302794 2.69268 0.166708 2.35354 0.166708 1.99992C0.166708 1.6463 0.302794 1.30716 0.545027 1.05711C0.787262 0.80706 1.1158 0.666586 1.45837 0.666586H19.5417C19.8843 0.666586 20.2128 0.80706 20.4551 1.05711C20.6973 1.30716 20.8334 1.6463 20.8334 1.99992ZM11.7917 11.3333C12.1343 11.3333 12.4628 11.1928 12.7051 10.9427C12.9473 10.6927 13.0834 10.3535 13.0834 9.99992C13.0834 9.6463 12.9473 9.30716 12.7051 9.05711C12.4628 8.80706 12.1343 8.66659 11.7917 8.66659H1.45837C1.1158 8.66659 0.787262 8.80706 0.545027 9.05711C0.302794 9.30716 0.166708 9.6463 0.166708 9.99992C0.166708 10.3535 0.302794 10.6927 0.545027 10.9427C0.787262 11.1928 1.1158 11.3333 1.45837 11.3333H11.7917Z" fill="#363636"/>
</svg>
