<svg width="75" height="76" viewBox="0 0 75 76" fill="none" xmlns="http://www.w3.org/2000/svg">
<path d="M36.2926 74.7109C36.0814 74.7109 35.8739 74.6034 35.7564 74.4096C35.5801 74.1184 35.6701 73.7396 35.9589 73.5571L43.4126 68.8546L33.7701 74.4209C33.4776 74.5934 33.1001 74.4958 32.9239 74.2046C32.7464 73.9158 32.8339 73.5371 33.1201 73.3533L49.2914 62.9709L30.3914 73.8821C30.0951 74.0546 29.7176 73.9558 29.5426 73.6621C29.3676 73.3684 29.4601 72.9896 29.7514 72.8083L36.7764 68.4659L28.2676 73.3783C27.9714 73.5496 27.5951 73.4534 27.4201 73.1596C27.2439 72.8684 27.3351 72.4896 27.6226 72.3083L44.6914 61.5759L25.6714 72.5571C25.3776 72.7283 25.0001 72.6296 24.8251 72.3409C24.6489 72.0508 24.7364 71.6721 25.0239 71.4883L49.0826 56.1596L22.7464 71.3646C22.4526 71.5346 22.0751 71.4384 21.8989 71.1471C21.7226 70.8559 21.8126 70.4771 22.1001 70.2946L46.8626 54.6509L20.1739 70.0584C19.8764 70.2309 19.4989 70.1321 19.3251 69.8371C19.1501 69.5446 19.2426 69.1646 19.5339 68.9846L36.9801 58.2209L18.3601 68.9708C18.0639 69.1433 17.6864 69.0434 17.5114 68.7509C17.3364 68.4584 17.4289 68.0784 17.7189 67.8984L39.1851 54.5921L16.4901 67.6946C16.1926 67.8659 15.8151 67.7671 15.6401 67.4734C15.4651 67.1796 15.5589 66.7996 15.8501 66.6196L32.1851 56.6096L14.9876 66.5384C14.6901 66.7109 14.3139 66.6109 14.1389 66.3184C13.9639 66.0259 14.0564 65.6459 14.3464 65.4659L37.3814 51.2209L13.3301 65.1059C13.0326 65.2771 12.6539 65.1784 12.4801 64.8834C12.3051 64.5896 12.4001 64.2096 12.6914 64.0308L28.5964 54.3196L12.0526 63.8721C11.7564 64.0434 11.3789 63.9446 11.2039 63.6521C11.0289 63.3596 11.1214 62.9796 11.4114 62.7996L36.8076 47.0784L10.5451 62.2409C10.2489 62.4134 9.86887 62.3134 9.69512 62.0183C9.52012 61.7234 9.61637 61.3421 9.90887 61.1646L19.1964 55.5434L9.58262 61.0934C9.28512 61.2646 8.90762 61.1671 8.73262 60.8721C8.55762 60.5784 8.65137 60.1984 8.94262 60.0196L30.5501 46.7584L8.40512 59.5434C8.10887 59.7171 7.72887 59.6158 7.55387 59.3196C7.38012 59.0259 7.47637 58.6446 7.76887 58.4671L14.7989 54.2221L7.59887 58.3784C7.30262 58.5496 6.92262 58.4509 6.74887 58.1558C6.57387 57.8609 6.67012 57.4809 6.96262 57.3021L19.6976 49.5759L6.75637 57.0471C6.46137 57.2184 6.08262 57.1196 5.90762 56.8271C5.73137 56.5346 5.82387 56.1559 6.11387 55.9746L35.0739 37.9709L5.61262 54.9796C5.31637 55.1521 4.93637 55.0521 4.76262 54.7571C4.58762 54.4634 4.68387 54.0821 4.97512 53.9034L19.4539 45.1021L4.89637 53.5071C4.59887 53.6796 4.22137 53.5784 4.04637 53.2859C3.87137 52.9921 3.96637 52.6109 4.25762 52.4321L23.1326 40.8946L4.18012 51.8358C3.88387 52.0084 3.50387 51.9084 3.33012 51.6134C3.15637 51.3184 3.25137 50.9384 3.54262 50.7609L17.5001 42.2734L3.60512 50.2959C3.30887 50.4671 2.93012 50.3671 2.75512 50.0746C2.58012 49.7808 2.67512 49.3996 2.96637 49.2209L21.0539 38.1596L3.05012 48.5534C2.75387 48.7246 2.37637 48.6271 2.20012 48.3321C2.02512 48.0384 2.11887 47.6584 2.41012 47.4796L22.9464 34.8621L2.54762 46.6559C2.25137 46.8284 1.87387 46.7296 1.69887 46.4359C1.52262 46.1446 1.61512 45.7646 1.90512 45.5834L28.3514 29.1121L2.07637 44.2821C1.78137 44.4546 1.40387 44.3546 1.22762 44.0634C1.05262 43.7709 1.14387 43.3921 1.43262 43.2109L27.5414 26.9034L1.76012 41.7884C1.46387 41.9596 1.08512 41.8609 0.911371 41.5671C0.736371 41.2746 0.828871 40.8946 1.12012 40.7146L19.1264 29.6209L1.63262 39.7221C1.33512 39.8946 0.957621 39.7959 0.782621 39.5009C0.607621 39.2084 0.701371 38.8284 0.991371 38.6484L16.7551 28.9459L1.61637 37.6871C1.32012 37.8596 0.941371 37.7609 0.766371 37.4659C0.591371 37.1734 0.685121 36.7934 0.975121 36.6134L14.9501 28.0121L1.71387 35.6559C1.41887 35.8271 1.04137 35.7296 0.866371 35.4384C0.690121 35.1471 0.780121 34.7671 1.06887 34.5859L22.8651 20.8546L2.03262 32.8796C1.73762 33.0509 1.35887 32.9521 1.18387 32.6596C1.00762 32.3684 1.10012 31.9884 1.39012 31.8071L15.8639 22.8009L2.47012 30.5346C2.17512 30.7071 1.79762 30.6084 1.62262 30.3159C1.44637 30.0246 1.53762 29.6459 1.82512 29.4634L16.9439 19.9684L3.15887 27.9259C2.86512 28.0971 2.48887 28.0009 2.31262 27.7109C2.13637 27.4209 2.22137 27.0446 2.50637 26.8596L21.0951 14.8309L4.39512 24.4721C4.09887 24.6446 3.72262 24.5459 3.54762 24.2546C3.37137 23.9646 3.46012 23.5859 3.74762 23.4034L13.4076 17.2759L5.68637 21.7334C5.39512 21.9059 5.02137 21.8096 4.84262 21.5221C4.66387 21.2346 4.74637 20.8584 5.02762 20.6709L17.5076 12.3896L8.01137 17.8721C7.71762 18.0446 7.34262 17.9484 7.16512 17.6571C6.98762 17.3671 7.07512 16.9896 7.36012 16.8059L9.92887 15.1509C9.69762 15.1821 9.45512 15.0821 9.31887 14.8721C9.13762 14.5934 9.20637 14.2221 9.47387 14.0259L15.2989 9.77336C15.1439 9.73211 15.0064 9.63211 14.9201 9.48336C14.7476 9.18461 14.8501 8.80211 15.1489 8.62961L23.3889 3.87211C23.6764 3.70336 24.0439 3.79211 24.2251 4.07211C24.4064 4.35086 24.3376 4.72211 24.0701 4.91836L19.6351 8.15586L30.7851 1.72336C31.0801 1.55336 31.4551 1.64836 31.6314 1.93836C31.8089 2.22836 31.7214 2.60586 31.4364 2.78961L29.6601 3.93461L34.2651 1.27586C34.5576 1.10586 34.9314 1.19961 35.1089 1.48711C35.2876 1.77336 35.2051 2.15086 34.9239 2.33836L22.4376 10.6234L38.7864 1.18336C39.0826 1.01211 39.4576 1.10836 39.6339 1.40086C39.8101 1.69086 39.7214 2.06961 39.4339 2.25211L29.7664 8.38461L41.7889 1.44336C42.0826 1.27211 42.4564 1.36711 42.6351 1.65836C42.8126 1.94711 42.7251 2.32461 42.4414 2.50961L23.8551 14.5371L45.4151 2.08961C45.7114 1.91961 46.0876 2.01461 46.2639 2.30836C46.4401 2.59961 46.3489 2.97836 46.0601 3.16086L30.9426 12.6546L48.0114 2.80086C48.3064 2.62711 48.6826 2.72586 48.8601 3.02086C49.0364 3.31211 48.9439 3.69211 48.6551 3.87336L34.1926 12.8709L50.2676 3.59086C50.5639 3.41961 50.9389 3.51711 51.1151 3.80836C51.2914 4.09961 51.2014 4.47961 50.9139 4.66086L29.1164 18.3946L52.8389 4.69711C53.1339 4.52336 53.5114 4.62211 53.6889 4.91836C53.8639 5.21086 53.7701 5.59086 53.4789 5.77086L39.4939 14.3796L54.6451 5.63211C54.9401 5.45836 55.3176 5.55711 55.4951 5.85336C55.6701 6.14586 55.5764 6.52586 55.2851 6.70586L39.5314 16.4009L56.3926 6.66711C56.6889 6.49336 57.0664 6.59211 57.2426 6.88836C57.4176 7.18086 57.3239 7.56086 57.0339 7.74086L39.0214 18.8384L58.1114 7.81711C58.4064 7.64336 58.7839 7.74336 58.9601 8.03586C59.1364 8.32836 59.0439 8.70711 58.7551 8.88836L32.6501 25.1934L60.1164 9.33586C60.4114 9.16336 60.7876 9.26211 60.9651 9.55586C61.1414 9.84711 61.0489 10.2271 60.7601 10.4084L34.3114 26.8809L61.9314 10.9346C62.2276 10.7609 62.6051 10.8596 62.7814 11.1559C62.9564 11.4496 62.8626 11.8296 62.5714 12.0084L42.0489 24.6171L63.3364 12.3271C63.6314 12.1534 64.0089 12.2534 64.1864 12.5484C64.3614 12.8421 64.2664 13.2234 63.9751 13.4021L45.8901 24.4609L64.5664 13.6784C64.8626 13.5046 65.2414 13.6059 65.4164 13.9009C65.5914 14.1959 65.4964 14.5759 65.2039 14.7534L51.2164 23.2596L65.6164 14.9471C65.9126 14.7746 66.2914 14.8734 66.4664 15.1684C66.6414 15.4634 66.5464 15.8434 66.2551 16.0221L47.3814 27.5596L66.7064 16.4021C67.0039 16.2284 67.3826 16.3284 67.5564 16.6246C67.7314 16.9184 67.6364 17.2996 67.3439 17.4784L52.8914 26.2634L67.6251 17.7559C67.9201 17.5834 68.2964 17.6821 68.4739 17.9759C68.6501 18.2684 68.5576 18.6471 68.2676 18.8284L39.3014 36.8371L68.8451 19.7796C69.1414 19.6059 69.5201 19.7071 69.6964 20.0021C69.8714 20.2971 69.7739 20.6771 69.4826 20.8559L56.7376 28.5884L69.5789 21.1746C69.8751 20.9996 70.2539 21.1009 70.4301 21.3984C70.6051 21.6921 70.5076 22.0734 70.2151 22.2509L63.2076 26.4821L70.1876 22.4521C70.4839 22.2796 70.8614 22.3771 71.0376 22.6734C71.2126 22.9671 71.1189 23.3471 70.8276 23.5259L49.2226 36.7871L70.9426 24.2471C71.2401 24.0734 71.6176 24.1746 71.7939 24.4696C71.9689 24.7646 71.8714 25.1459 71.5789 25.3234L62.2726 30.9571L71.4576 25.6546C71.7526 25.4821 72.1314 25.5809 72.3064 25.8746C72.4826 26.1671 72.3889 26.5471 72.0989 26.7271L46.7126 42.4421L72.1114 27.7784C72.4076 27.6046 72.7864 27.7046 72.9614 28.0009C73.1364 28.2946 73.0414 28.6746 72.7501 28.8534L56.8301 38.5734L72.5389 29.5034C72.8339 29.3296 73.2126 29.4284 73.3876 29.7234C73.5639 30.0159 73.4701 30.3959 73.1801 30.5759L50.1626 44.8109L72.9514 31.6546C73.2464 31.4809 73.6239 31.5796 73.8014 31.8759C73.9764 32.1696 73.8814 32.5496 73.5914 32.7296L57.2501 42.7421L73.2026 33.5334C73.4976 33.3596 73.8764 33.4584 74.0514 33.7534C74.2276 34.0459 74.1339 34.4259 73.8451 34.6059L52.3814 47.9096L73.3664 35.7946C73.6614 35.6209 74.0389 35.7196 74.2164 36.0159C74.3914 36.3084 74.2976 36.6884 74.0076 36.8684L56.5401 47.6459L73.3939 37.9159C73.6889 37.7459 74.0651 37.8409 74.2414 38.1334C74.4176 38.4259 74.3276 38.8034 74.0401 38.9859L49.2839 54.6259L73.2451 40.7934C73.5414 40.6221 73.9176 40.7196 74.0926 41.0096C74.2689 41.2996 74.1801 41.6784 73.8939 41.8621L49.8414 57.1871L72.8176 43.9221C73.1139 43.7509 73.4889 43.8459 73.6664 44.1409C73.8426 44.4321 73.7514 44.8109 73.4639 44.9921L56.3926 55.7246L72.2201 46.5871C72.5164 46.4134 72.8939 46.5121 73.0701 46.8071C73.2451 47.1009 73.1514 47.4796 72.8614 47.6609L65.8289 52.0071L71.6114 48.6696C71.9064 48.4996 72.2814 48.5946 72.4576 48.8859C72.6351 49.1746 72.5476 49.5534 72.2626 49.7371L56.0876 60.1234L70.3889 51.8671C70.6839 51.6959 71.0601 51.7934 71.2364 52.0846C71.4126 52.3759 71.3226 52.7546 71.0351 52.9371L63.5851 57.6384L69.1539 54.4234C69.4501 54.2533 69.8239 54.3496 70.0001 54.6396C70.1776 54.9296 70.0889 55.3071 69.8039 55.4909L63.1501 59.7459L67.4701 57.2521C67.7614 57.0834 68.1301 57.1759 68.3114 57.4584C68.4901 57.7421 68.4139 58.1159 68.1376 58.3071L58.3551 65.0771L63.8301 61.9171C64.1176 61.7471 64.4901 61.8396 64.6701 62.1221C64.8501 62.4046 64.7751 62.7784 64.5001 62.9709L59.9289 66.1596C59.9926 66.2084 60.0476 66.2696 60.0889 66.3421C60.2626 66.6408 60.1601 67.0234 59.8601 67.1959L51.6201 71.9534C51.3301 72.1221 50.9601 72.0309 50.7801 71.7484C50.6001 71.4659 50.6751 71.0921 50.9501 70.8996L51.8051 70.3034L45.7439 73.8021C45.4564 73.9734 45.0839 73.8796 44.9026 73.5958C44.7239 73.3121 44.8001 72.9383 45.0764 72.7471L54.8601 65.9759L39.8901 74.6184C39.5964 74.7908 39.2214 74.6934 39.0439 74.4021C38.8664 74.1108 38.9551 73.7346 39.2401 73.5508L45.9001 69.2921L36.6126 74.6534C36.5139 74.7109 36.4064 74.7371 36.3001 74.7371L36.2926 74.7109Z" fill="#8DAAC7"/>
<path d="M35.7662 69.6879C35.5562 69.6879 35.3499 69.5816 35.2324 69.3904C35.0549 69.1029 35.1399 68.7254 35.4237 68.5391L47.0674 60.9466L32.7162 69.2316C32.4212 69.4029 32.0424 69.3041 31.8687 69.0129C31.6924 68.7216 31.7837 68.3416 32.0724 68.1604L37.6774 64.6491L30.5162 68.7841C30.2199 68.9554 29.8424 68.8566 29.6674 68.5654C29.4924 68.2729 29.5837 67.8941 29.8724 67.7129L37.5899 62.8866L28.3924 68.1966C28.0962 68.3679 27.7199 68.2704 27.5449 67.9791C27.3687 67.6879 27.4587 67.3091 27.7474 67.1266L41.0874 58.7116L26.1012 67.3641C25.8087 67.5366 25.4324 67.4391 25.2549 67.1479C25.0787 66.8579 25.1662 66.4804 25.4524 66.2966L45.3287 53.5741L23.5124 66.1691C23.2162 66.3416 22.8399 66.2416 22.6649 65.9504C22.4887 65.6591 22.5799 65.2791 22.8687 65.0979L39.0474 54.9604L21.5462 65.0654C21.2499 65.2366 20.8712 65.1391 20.6974 64.8441C20.5224 64.5516 20.6149 64.1716 20.9062 63.9916L30.9437 57.8079L20.0612 64.0904C19.7662 64.2604 19.3887 64.1641 19.2137 63.8729C19.0374 63.5816 19.1274 63.2029 19.4149 63.0204L41.5412 49.0366L18.0687 62.5891C17.7712 62.7616 17.3924 62.6604 17.2187 62.3666C17.0437 62.0716 17.1399 61.6916 17.4324 61.5129L18.3562 60.9529L17.0449 61.7091C16.7487 61.8816 16.3687 61.7816 16.1949 61.4879C16.0199 61.1941 16.1137 60.8141 16.4049 60.6341L25.7862 54.8929L15.8762 60.6129C15.5799 60.7841 15.1999 60.6854 15.0262 60.3904C14.8512 60.0954 14.9474 59.7154 15.2399 59.5366L17.0537 58.4379L14.9499 59.6516C14.6537 59.8241 14.2749 59.7254 14.0999 59.4304C13.9249 59.1354 14.0187 58.7566 14.3099 58.5779L26.8312 50.8929L13.8387 58.3941C13.5424 58.5666 13.1637 58.4679 12.9899 58.1729C12.8149 57.8804 12.9074 57.5004 13.1987 57.3204L28.7999 47.7054L12.7299 56.9829C12.4337 57.1554 12.0524 57.0554 11.8799 56.7604C11.7049 56.4654 11.8012 56.0854 12.0937 55.9066L16.0874 53.4841L11.9424 55.8766C11.6449 56.0491 11.2662 55.9491 11.0924 55.6541C10.9174 55.3591 11.0137 54.9779 11.3062 54.8004L13.3437 53.5666L11.2399 54.7816C10.9449 54.9541 10.5662 54.8541 10.3912 54.5629C10.2162 54.2704 10.3074 53.8916 10.5962 53.7104L33.2212 39.5704L10.1624 52.8829C9.86744 53.0541 9.48869 52.9554 9.31369 52.6629C9.13744 52.3716 9.22994 51.9916 9.51994 51.8104L30.0349 39.0504L9.27119 51.0379C8.97494 51.2104 8.59619 51.1116 8.42244 50.8179C8.24744 50.5241 8.33994 50.1454 8.63119 49.9641L25.6037 39.4779L8.56494 49.3141C8.26869 49.4866 7.88994 49.3879 7.71494 49.0929C7.53994 48.7991 7.6337 48.4191 7.92494 48.2391L19.6037 41.0804L8.02869 47.7629C7.73244 47.9354 7.35244 47.8354 7.17869 47.5404C7.00494 47.2454 7.09869 46.8666 7.39119 46.6879L14.1637 42.5591L7.61995 46.3366C7.32494 46.5079 6.9487 46.4116 6.77245 46.1191C6.5962 45.8279 6.68619 45.4491 6.97494 45.2666L30.3549 30.5154L7.09994 43.9404C6.80369 44.1116 6.42619 44.0129 6.25119 43.7216C6.07619 43.4291 6.16744 43.0504 6.45619 42.8691L25.5149 30.9504L6.78369 41.7641C6.48744 41.9354 6.10994 41.8366 5.93619 41.5454C5.75994 41.2541 5.85119 40.8741 6.13995 40.6929L24.2412 29.3566L6.63245 39.5229C6.3362 39.6941 5.95994 39.5966 5.78494 39.3054C5.60869 39.0141 5.69869 38.6341 5.98744 38.4529L24.2062 26.9754L6.63869 37.1166C6.34369 37.2879 5.96369 37.1904 5.78869 36.8954C5.61369 36.6016 5.70744 36.2216 5.99869 36.0429L10.6824 33.1666L6.75119 35.4354C6.45619 35.6079 6.07869 35.5091 5.90369 35.2166C5.72869 34.9241 5.8187 34.5466 6.1062 34.3641L19.5987 25.8891L7.06369 33.1254C6.76744 33.2966 6.39119 33.1979 6.21619 32.9066C6.03994 32.6154 6.13119 32.2354 6.41995 32.0541L16.6812 25.6216L7.52619 30.9079C7.23369 31.0816 6.85619 30.9829 6.67994 30.6916C6.50244 30.4029 6.58994 30.0241 6.87619 29.8404L20.6824 20.9741L8.37369 28.0804C8.07869 28.2529 7.70119 28.1554 7.52619 27.8629C7.34994 27.5729 7.4387 27.1941 7.7262 27.0104L14.6062 22.6554L9.32494 25.7029C9.03369 25.8741 8.65994 25.7791 8.48119 25.4916C8.30369 25.2054 8.38494 24.8291 8.66494 24.6416L20.2887 16.8879L11.2049 22.1316C10.9149 22.3029 10.5399 22.2079 10.3624 21.9216C10.1837 21.6354 10.2649 21.2591 10.5449 21.0716L16.5862 17.0279L13.6099 18.7466C13.3224 18.9141 12.9562 18.8254 12.7749 18.5479C12.5937 18.2704 12.6599 17.8991 12.9274 17.7029L18.0862 13.9016C17.9499 13.8541 17.8287 13.7591 17.7499 13.6229C17.5774 13.3241 17.6799 12.9416 17.9787 12.7691L25.6024 8.36788C25.8887 8.20038 26.2562 8.28913 26.4374 8.56663C26.6187 8.84413 26.5524 9.21538 26.2849 9.41163L22.6912 12.0604L32.2999 6.51288C32.5924 6.34413 32.9662 6.43788 33.1424 6.72288C33.3212 7.00913 33.2399 7.38538 32.9599 7.57288L26.9199 11.6154L36.3937 6.14663C36.6862 5.97788 37.0587 6.07038 37.2374 6.35788C37.4149 6.64413 37.3337 7.02038 37.0537 7.20788L25.4299 14.9616L40.4399 6.29538C40.7362 6.12413 41.1112 6.22038 41.2874 6.51288C41.4637 6.80288 41.3737 7.18163 41.0874 7.36538L34.2062 11.7216L42.9587 6.66913C43.2524 6.49913 43.6274 6.59538 43.8049 6.88538C43.9824 7.17538 43.8949 7.55288 43.6099 7.73663L29.8062 16.6004L45.8274 7.35163C46.1237 7.18038 46.4999 7.27913 46.6762 7.57038C46.8524 7.86163 46.7599 8.24163 46.4724 8.42288L36.2112 14.8554L47.9899 8.05538C48.2849 7.88538 48.6624 7.98038 48.8387 8.27413C49.0149 8.56538 48.9237 8.94413 48.6349 9.12663L35.1424 17.6029L50.1337 8.94788C50.4287 8.77413 50.8062 8.87288 50.9837 9.16913C51.1587 9.46288 51.0649 9.84288 50.7737 10.0216L46.0987 12.8929L51.6462 9.69038C51.9424 9.51913 52.3174 9.61538 52.4937 9.90788C52.6699 10.2004 52.5799 10.5791 52.2924 10.7604L34.0774 22.2354L53.7312 10.8891C54.0274 10.7191 54.4037 10.8154 54.5799 11.1079C54.7562 11.4004 54.6637 11.7791 54.3762 11.9604L36.2599 23.3066L55.5887 12.1479C55.8849 11.9779 56.2612 12.0741 56.4374 12.3666C56.6137 12.6591 56.5212 13.0379 56.2324 13.2191L37.1787 25.1354L57.3174 13.5079C57.6137 13.3366 57.9899 13.4329 58.1649 13.7254C58.3412 14.0166 58.2512 14.3954 57.9637 14.5779L34.5874 29.3266L59.1274 15.1591C59.4237 14.9854 59.8024 15.0854 59.9774 15.3816C60.1524 15.6754 60.0574 16.0554 59.7649 16.2341L52.9824 20.3691L60.1562 16.2279C60.4524 16.0541 60.8299 16.1529 61.0062 16.4491C61.1812 16.7429 61.0862 17.1229 60.7962 17.3029L49.1262 24.4554L61.2374 17.4629C61.5324 17.2891 61.9099 17.3879 62.0874 17.6829C62.2624 17.9766 62.1687 18.3554 61.8787 18.5366L44.9224 29.0141L62.3799 18.9354C62.6762 18.7616 63.0512 18.8604 63.2287 19.1554C63.4049 19.4466 63.3124 19.8266 63.0224 20.0079L42.4962 32.7766L63.5349 20.6291C63.8299 20.4554 64.2074 20.5554 64.3837 20.8479C64.5599 21.1404 64.4674 21.5191 64.1787 21.7004L41.5462 35.8466L64.6512 22.5066C64.9487 22.3316 65.3262 22.4341 65.5024 22.7291C65.6774 23.0241 65.5799 23.4054 65.2874 23.5829L63.2787 24.8004L65.2449 23.6654C65.5399 23.4916 65.9199 23.5929 66.0962 23.8879C66.2712 24.1829 66.1737 24.5629 65.8824 24.7416L61.8624 27.1804L65.8137 24.8991C66.1087 24.7266 66.4862 24.8241 66.6637 25.1204C66.8387 25.4129 66.7449 25.7929 66.4549 25.9729L50.8774 35.5741L66.4874 26.5616C66.7824 26.3879 67.1599 26.4866 67.3374 26.7829C67.5124 27.0766 67.4187 27.4566 67.1274 27.6354L54.5687 35.3441L67.0274 28.1516C67.3237 27.9766 67.7024 28.0779 67.8787 28.3741C68.0537 28.6691 67.9562 29.0491 67.6637 29.2279L65.8737 30.3129L67.3924 29.4366C67.6874 29.2629 68.0649 29.3616 68.2424 29.6579C68.4174 29.9516 68.3224 30.3316 68.0312 30.5116L58.6549 36.2504L67.7599 30.9941C68.0574 30.8204 68.4349 30.9216 68.6112 31.2166C68.7862 31.5116 68.6887 31.8916 68.3974 32.0704L67.4762 32.6279L68.0024 32.3254C68.2974 32.1554 68.6737 32.2516 68.8499 32.5429C69.0262 32.8341 68.9362 33.2129 68.6499 33.3954L46.5237 47.3779L68.3024 34.8041C68.5974 34.6304 68.9749 34.7291 69.1524 35.0254C69.3274 35.3179 69.2337 35.6979 68.9437 35.8779L58.9099 42.0579L68.3962 36.5816C68.6912 36.4116 69.0687 36.5079 69.2449 36.8004C69.4212 37.0929 69.3287 37.4716 69.0412 37.6529L52.8537 47.7954L68.3799 38.8316C68.6762 38.6604 69.0499 38.7579 69.2262 39.0479C69.4037 39.3379 69.3149 39.7154 69.0299 39.8991L49.1499 52.6241L68.1124 41.6766C68.4087 41.5054 68.7849 41.6016 68.9599 41.8941C69.1362 42.1854 69.0462 42.5641 68.7587 42.7466L55.4274 51.1566L67.6812 44.0829C67.9774 43.9129 68.3537 44.0091 68.5299 44.3016C68.7062 44.5941 68.6137 44.9729 68.3249 45.1541L60.6037 49.9829L67.1337 46.2129C67.4287 46.0429 67.8062 46.1391 67.9824 46.4316C68.1587 46.7241 68.0662 47.1029 67.7787 47.2841L62.1649 50.8004L66.4187 48.3441C66.7137 48.1729 67.0862 48.2679 67.2637 48.5579C67.4412 48.8454 67.3562 49.2229 67.0737 49.4091L55.4374 56.9954L65.0462 51.4479C65.3387 51.2804 65.7087 51.3716 65.8874 51.6554C66.0674 51.9391 65.9899 52.3129 65.7124 52.5041L54.1912 60.4141L62.4987 55.6179C62.7849 55.4516 63.1537 55.5391 63.3349 55.8166C63.5162 56.0941 63.4487 56.4679 63.1799 56.6629L56.9199 61.2454L57.9649 60.6429C58.2637 60.4679 58.6462 60.5716 58.8187 60.8716C58.9924 61.1704 58.8899 61.5529 58.5899 61.7254L47.5549 68.0966C47.2699 68.2666 46.9012 68.1754 46.7187 67.8979C46.5374 67.6191 46.6049 67.2466 46.8737 67.0516L53.1324 62.4704L40.9574 69.4991C40.6662 69.6691 40.2949 69.5766 40.1162 69.2916C39.9362 69.0079 40.0137 68.6341 40.2912 68.4429L51.8099 60.5354L36.0987 69.6054C35.9999 69.6629 35.8924 69.6891 35.7862 69.6891L35.7662 69.6879Z" fill="#8DAAC7"/>
<path d="M29.7375 54.5716C29.5288 54.5716 29.3263 54.4678 29.2075 54.2803C29.0288 53.9953 29.1063 53.6203 29.3838 53.4303L38.4288 47.2528L28.3013 53.0991C28.0075 53.2703 27.6313 53.1753 27.455 52.8841C27.2788 52.5953 27.3638 52.2178 27.6488 52.0328L31.3188 49.6578L27.8638 51.6528C27.5738 51.824 27.2038 51.7303 27.0238 51.4478C26.8438 51.1641 26.92 50.7916 27.1938 50.5991L38.2075 42.9328L27.85 48.9115C27.5575 49.0815 27.1825 48.9866 27.0063 48.6991C26.8288 48.4128 26.9113 48.0353 27.1938 47.8491L31.4775 45.0215L27.8513 47.1153C27.5588 47.2866 27.1863 47.1915 27.0075 46.9028C26.83 46.6166 26.9125 46.2403 27.1938 46.0528L30.5163 43.8541L27.8513 45.3916C27.5588 45.5628 27.1838 45.4678 27.0075 45.1791C26.83 44.8928 26.9125 44.5153 27.195 44.3291L29.05 43.104L27.8525 43.7953C27.5638 43.9641 27.1938 43.8728 27.0138 43.5916C26.8338 43.3103 26.9063 42.9378 27.1788 42.7441L33.5413 38.239L27.8525 41.5228C27.565 41.6915 27.195 41.6003 27.015 41.3216C26.8338 41.0403 26.905 40.669 27.175 40.474L32.5863 36.5915L27.8525 39.3241C27.5638 39.4928 27.1938 39.4016 27.0138 39.1215C26.8338 38.8403 26.9063 38.4678 27.1775 38.274L30.585 35.8516L27.8513 37.4291C27.5625 37.5991 27.1925 37.5066 27.0125 37.2266C26.8325 36.9441 26.905 36.5728 27.1763 36.3791L29.1738 34.9603L27.85 35.7228C27.5675 35.889 27.2088 35.8041 27.0238 35.5378C26.8388 35.2716 26.89 34.9053 27.1413 34.699L32.0038 30.719L27.85 33.1166C27.5688 33.2816 27.2113 33.1978 27.025 32.9341C26.84 32.6678 26.8875 32.3041 27.135 32.0966L30.6375 29.1565L27.85 30.7653C27.5663 30.929 27.2063 30.8453 27.0213 30.5778C26.8375 30.3078 26.8913 29.9403 27.1475 29.7365L28.345 28.779L27.85 29.064C27.575 29.2228 27.2288 29.1503 27.04 28.9016C26.85 28.6516 26.875 28.2978 27.0988 28.0778L29.3938 25.8228L27.85 26.714C27.6 26.8603 27.2825 26.814 27.0825 26.6015C26.8838 26.3915 26.8563 26.0715 27.015 25.829L28.5063 23.564L28.4075 23.6203C28.1075 23.7928 27.7263 23.6903 27.5538 23.3915C27.3813 23.0928 27.4838 22.7103 27.7825 22.5378L30.1675 21.1615C30.4188 21.014 30.7363 21.0615 30.935 21.274C31.1338 21.4853 31.1613 21.804 31.0025 22.0465L29.5125 24.3103L33.0275 22.2803C33.2988 22.1203 33.6463 22.1928 33.8375 22.4428C34.0275 22.6928 34.0025 23.0465 33.7788 23.2665L31.4813 25.5241L34.8663 23.5715C35.1488 23.404 35.5088 23.4903 35.695 23.759C35.8788 24.029 35.825 24.3965 35.5688 24.6003L34.3763 25.554L36.1963 24.5041C36.4775 24.3391 36.835 24.4228 37.0213 24.6866C37.2063 24.9528 37.1588 25.3166 36.9113 25.5241L33.4088 28.4653L38.035 25.794C38.3188 25.6303 38.6775 25.7128 38.8613 25.979C39.0463 26.2465 38.995 26.6116 38.7438 26.8178L33.8813 30.7978L40.0738 27.224C40.3638 27.0553 40.7313 27.1465 40.9125 27.4265C41.0938 27.709 41.02 28.0803 40.7475 28.274L38.755 29.6903L41.4063 28.1591C41.6925 27.9891 42.0625 28.0815 42.245 28.3615C42.4263 28.6428 42.3525 29.0153 42.0813 29.2091L38.67 31.634L42.8888 29.199C43.1738 29.0303 43.545 29.1203 43.7263 29.4003C43.9075 29.6803 43.8363 30.0528 43.5663 30.2478L38.1525 34.1328L44.6088 30.4065C44.9 30.2378 45.2675 30.329 45.4475 30.6103C45.6288 30.8915 45.555 31.2641 45.2825 31.4578L38.9263 35.9591L46.385 31.6528C46.6775 31.4803 47.05 31.5753 47.2288 31.8653C47.4075 32.1516 47.3238 32.529 47.0425 32.7153L45.18 33.9466L47.635 32.529C47.9275 32.359 48.3 32.4515 48.4788 32.7415C48.6575 33.0278 48.5738 33.404 48.2938 33.5915L44.9738 35.7891L48.9825 33.474C49.275 33.3041 49.6475 33.3978 49.8275 33.6866C50.005 33.9728 49.9213 34.3503 49.64 34.5366L45.35 37.3678L50.3875 34.4603C50.6775 34.2915 51.0475 34.3828 51.2275 34.6666C51.4075 34.9491 51.3325 35.3216 51.0563 35.5141L40.05 43.1753L51.965 36.2965C52.26 36.1253 52.6313 36.2203 52.8113 36.5116C52.9888 36.8003 52.9013 37.1778 52.6175 37.3628L48.9425 39.7416L52.0975 37.9203C52.3888 37.7516 52.76 37.8428 52.9388 38.1278C53.1188 38.4128 53.04 38.7878 52.7625 38.9778L42.3625 46.0828C42.5513 46.1053 42.7275 46.2128 42.83 46.3903C43.0038 46.6891 42.9013 47.0715 42.6013 47.244L30.0513 54.4903C29.9525 54.5478 29.845 54.5741 29.7388 54.5741L29.7375 54.5716Z" fill="white"/>
<path d="M50.19 3.12627C-10.7 -13.41 -18.1762 81.7 44.7663 74.0838C80.8913 67.4813 85.0613 15.0388 50.19 3.12627ZM72.8313 37.9663C68.1338 98.3038 -19.345 73.4713 7.10128 19.6513C24.6863 -11.1475 73.4088 2.77127 72.8313 37.9663Z" fill="#262626"/>
<path d="M58.3312 13.5246C36.6424 -5.73161 -0.157559 15.2071 5.84994 43.7534C21.6412 99.1534 99.0124 54.9059 58.3312 13.5246ZM67.3712 43.3884C62.4949 73.5521 19.3224 77.2109 9.11494 48.5484C-5.20631 -1.48661 72.3874 -8.16662 67.3712 43.3884Z" fill="#262626"/>
<path d="M50.34 33.7271C44.765 31.4871 29.45 13.6008 26.5888 25.1233C26.2963 33.2971 26.6663 41.5146 26.5888 49.6933C25.9475 52.9208 28.8613 55.6421 32.0175 54.4671C38.7888 50.3333 45.0975 45.3221 51.7063 40.8833C54.5413 38.6896 53.3775 35.0883 50.3413 33.7283L50.34 33.7271ZM31.99 53.2233C25.305 56.2521 29.5188 31.7996 28.4088 27.7033C28.41 25.6483 28.185 20.4821 31.865 22.7208C57.3988 40.9558 57.8175 34.9621 31.99 53.2233Z" fill="#262626"/>
</svg>
