<svg width="24" height="23" viewBox="0 0 24 23" fill="none" xmlns="http://www.w3.org/2000/svg">
<path d="M16.4262 0C16.4797 0 16.5332 0 16.5898 0C16.7211 1.62201 16.102 2.83397 15.3495 3.71163C14.6113 4.58323 13.6003 5.42858 11.9651 5.30031C11.8561 3.70153 12.4762 2.57946 13.2276 1.70382C13.9245 0.887762 15.2021 0.161595 16.4262 0Z" fill="black"/>
<path d="M21.3761 16.8828C21.3761 16.8989 21.3761 16.9131 21.3761 16.9282C20.9165 18.32 20.2611 19.5127 19.4612 20.6197C18.731 21.6246 17.8361 22.9769 16.2384 22.9769C14.8577 22.9769 13.9407 22.0892 12.5257 22.0649C11.0289 22.0407 10.2058 22.8072 8.83731 23.0002C8.68077 23.0002 8.52422 23.0002 8.37071 23.0002C7.36579 22.8547 6.55479 22.0589 5.96395 21.3418C4.22176 19.2229 2.87547 16.4859 2.625 12.9833C2.625 12.6399 2.625 12.2975 2.625 11.9541C2.73105 9.44739 3.94907 7.40927 5.56805 6.42153C6.42248 5.89634 7.59707 5.44893 8.90498 5.6489C9.46551 5.73576 10.0382 5.92765 10.5401 6.11753C11.0158 6.30033 11.6107 6.62453 12.1742 6.60736C12.556 6.59625 12.9358 6.39729 13.3206 6.2569C14.4477 5.84988 15.5526 5.38328 17.009 5.60244C18.7592 5.86705 20.0015 6.64473 20.7691 7.84457C19.2885 8.78687 18.1179 10.2069 18.3179 12.6318C18.4956 14.8346 19.7763 16.1233 21.3761 16.8828Z" fill="black"/>
</svg>
