<svg width="80" height="81" viewBox="0 0 80 81" fill="none" xmlns="http://www.w3.org/2000/svg">
<path d="M1.27103 45.8932C8.88717 36.4208 19.9538 30.3613 32.0371 29.0474C44.1203 27.7335 56.2307 31.2728 65.7048 38.8869L64.2147 25.3091C64.1843 24.7885 64.3552 24.2762 64.6921 23.8783C65.029 23.4803 65.506 23.2271 66.0245 23.1711C66.5429 23.1152 67.063 23.2607 67.477 23.5776C67.8911 23.8945 68.1674 24.3585 68.2488 24.8736L70.2732 43.32C70.3025 43.5853 70.2792 43.8538 70.2046 44.1101C70.13 44.3664 70.0057 44.6055 69.8387 44.8137C69.6716 45.0219 69.4652 45.1952 69.2311 45.3236C68.9971 45.452 68.7401 45.5329 68.4747 45.5619L50.0283 47.5863C49.763 47.6154 49.4946 47.592 49.2383 47.5174C48.9821 47.4428 48.743 47.3184 48.5348 47.1514C48.3267 46.9844 48.1534 46.778 48.025 46.544C47.8966 46.3101 47.8155 46.0531 47.7864 45.7878C47.7572 45.5225 47.7807 45.254 47.8553 44.9978C47.9299 44.7415 48.0543 44.5025 48.2213 44.2943C48.3883 44.0861 48.5947 43.9129 48.8286 43.7845C49.0626 43.656 49.3196 43.5749 49.5849 43.5458L63.1627 42.0557C54.5291 35.1159 43.4925 31.8893 32.4803 33.0857C21.468 34.282 11.3818 39.8033 4.43988 48.4353C4.10278 48.8555 3.61255 49.1246 3.07705 49.1833C2.54154 49.2421 2.00462 49.0857 1.58441 48.7486C1.16419 48.4115 0.8951 47.9213 0.836332 47.3858C0.777561 46.8503 0.93393 46.3134 1.27103 45.8932Z" fill="white"/>
</svg>
