<svg width="44" height="44" viewBox="0 0 44 44" fill="none" xmlns="http://www.w3.org/2000/svg">
<g clip-path="url(#clip0_357_739)">
<path d="M21.3817 43.5976C21.3022 43.5975 21.225 43.5716 21.1615 43.5238C21.098 43.4759 21.0518 43.4088 21.0298 43.3325C21.0078 43.2561 21.0112 43.1747 21.0395 43.1004C21.0678 43.0261 21.1194 42.9631 21.1866 42.9207L25.4554 40.2272L19.8974 43.4355C19.8144 43.4821 19.7164 43.4945 19.6244 43.4701C19.5323 43.4457 19.4533 43.3865 19.4042 43.3049C19.355 43.2234 19.3395 43.1259 19.3609 43.0331C19.3824 42.9403 19.4391 42.8595 19.519 42.8078L24.5292 39.6735L18.3772 43.2214C18.2943 43.267 18.197 43.2788 18.1055 43.2542C18.0141 43.2297 17.9358 43.1708 17.8868 43.0898C17.8378 43.0088 17.8221 42.9121 17.8428 42.8197C17.8635 42.7274 17.9192 42.6466 17.9981 42.5944L26.3178 37.351L16.7705 42.862C16.6873 42.9072 16.5899 42.9184 16.4986 42.8933C16.4074 42.8682 16.3293 42.8089 16.2808 42.7276C16.2324 42.6463 16.2172 42.5495 16.2384 42.4573C16.2597 42.3651 16.3158 42.2846 16.395 42.2328L20.4841 39.7153L15.6148 42.5262C15.5315 42.5707 15.4343 42.5813 15.3434 42.556C15.2525 42.5306 15.1748 42.4712 15.1266 42.39C15.0785 42.3088 15.0634 42.2122 15.0847 42.1202C15.1059 42.0283 15.1618 41.948 15.2408 41.8962L15.4608 41.7628L14.6966 42.2028C14.6135 42.2533 14.5137 42.2686 14.4192 42.2455C14.3247 42.2224 14.2433 42.1627 14.1928 42.0796C14.1424 41.9964 14.127 41.8966 14.1501 41.8022C14.1732 41.7077 14.2329 41.6263 14.316 41.5758L28.5574 32.5184L13.0202 41.4885C12.9368 41.5339 12.8391 41.5451 12.7476 41.5199C12.656 41.4946 12.5779 41.4349 12.5295 41.3532C12.4812 41.2715 12.4664 41.1742 12.4883 41.0818C12.5102 40.9894 12.5671 40.9091 12.647 40.8578L13.414 40.3929L12.2202 41.0822C12.1367 41.1322 12.0368 41.147 11.9425 41.1234C11.8482 41.0997 11.7671 41.0396 11.7171 40.9561C11.6671 40.8727 11.6523 40.7728 11.676 40.6785C11.6996 40.5841 11.7598 40.503 11.8432 40.453L22.8601 33.633L11.0806 40.431C10.9972 40.4771 10.8992 40.489 10.8073 40.4641C10.7153 40.4392 10.6367 40.3795 10.588 40.2976C10.5393 40.2158 10.5244 40.1182 10.5464 40.0255C10.5684 39.9328 10.6256 39.8524 10.7058 39.8011L20.2091 33.9616L10.1074 39.793C10.0238 39.8427 9.92385 39.8572 9.82958 39.8332C9.7353 39.8092 9.65442 39.7487 9.60473 39.6651C9.55504 39.5815 9.5406 39.4815 9.5646 39.3872C9.5886 39.293 9.64906 39.2121 9.73269 39.1624L16.7727 34.8716L9.28389 39.1932C9.2006 39.2401 9.10227 39.2526 9.00986 39.2281C8.91745 39.2036 8.83828 39.1439 8.78922 39.0619C8.74016 38.9798 8.72508 38.8819 8.74722 38.7888C8.76935 38.6958 8.82693 38.6151 8.90769 38.564L20.7349 31.279L8.34743 38.4312C8.26418 38.4793 8.16541 38.4927 8.07237 38.4686C7.97934 38.4445 7.89948 38.3848 7.84998 38.3025C7.80049 38.2201 7.7853 38.1216 7.8077 38.0281C7.8301 37.9347 7.8883 37.8538 7.96976 37.8028L23.5399 28.114L7.31196 37.483C7.22838 37.5296 7.12992 37.5417 7.03758 37.5166C6.94524 37.4916 6.86634 37.4314 6.81773 37.3491C6.76911 37.2667 6.75463 37.1685 6.77736 37.0756C6.8001 36.9827 6.85826 36.9023 6.93943 36.8516L7.55029 36.485L6.77296 36.933C6.68965 36.977 6.59264 36.9872 6.50203 36.9615C6.41141 36.9358 6.33415 36.8763 6.28625 36.7952C6.23835 36.7141 6.22349 36.6177 6.24475 36.5259C6.26601 36.4342 6.32175 36.3541 6.40043 36.3024L10.4572 33.8508L6.20389 36.3075C6.12046 36.3575 6.02058 36.3723 5.92624 36.3486C5.83189 36.325 5.75081 36.2648 5.70083 36.1814C5.65084 36.0979 5.63605 35.9981 5.65971 35.9037C5.68336 35.8094 5.74352 35.7283 5.82696 35.6783L21.4345 26.0056L5.36129 35.2852C5.27816 35.331 5.18051 35.3428 5.08888 35.3181C4.99725 35.2934 4.91877 35.2341 4.86996 35.1527C4.82114 35.0713 4.80579 34.9741 4.82712 34.8816C4.84846 34.7892 4.90482 34.7086 4.98436 34.6568L20.751 24.8932L4.58689 34.2241C4.50364 34.2686 4.40644 34.2793 4.31552 34.2539C4.2246 34.2285 4.14697 34.1691 4.09878 34.0879C4.05059 34.0068 4.03556 33.9101 4.05681 33.8182C4.07807 33.7262 4.13398 33.646 4.21289 33.5942L13.3642 28.0245L4.05523 33.3984C3.97182 33.4437 3.87408 33.455 3.78255 33.4297C3.69103 33.4045 3.61287 33.3447 3.56451 33.263C3.51616 33.1813 3.50137 33.084 3.52328 32.9917C3.54519 32.8993 3.60207 32.819 3.68196 32.7677L8.80723 29.6694L3.62696 32.6599C3.54371 32.7044 3.44651 32.7151 3.35559 32.6897C3.26467 32.6643 3.18703 32.6049 3.13884 32.5237C3.09065 32.4426 3.07562 32.3459 3.09688 32.254C3.11814 32.162 3.17404 32.0818 3.25296 32.03L13.7536 25.6214L3.14516 31.7462C3.06163 31.7938 2.96274 31.8067 2.86979 31.7821C2.77685 31.7575 2.69728 31.6973 2.64824 31.6146C2.5992 31.5319 2.5846 31.4333 2.60759 31.3399C2.63058 31.2466 2.68932 31.166 2.77116 31.1155L10.3326 26.5263L2.75136 30.9036C2.70985 30.928 2.66394 30.9441 2.61623 30.9508C2.56852 30.9575 2.51996 30.9548 2.47331 30.9427C2.42667 30.9307 2.38285 30.9095 2.34437 30.8806C2.30588 30.8516 2.27349 30.8153 2.24903 30.7738C2.22457 30.7323 2.20852 30.6864 2.20181 30.6386C2.19509 30.5909 2.19784 30.5424 2.20989 30.4957C2.23423 30.4015 2.295 30.3208 2.37883 30.2714L2.49396 30.2032L2.46316 30.2201C2.3797 30.2648 2.28218 30.2755 2.19101 30.2499C2.09985 30.2244 2.0221 30.1645 1.97406 30.083C1.92602 30.0014 1.9114 29.9044 1.93326 29.8122C1.95512 29.7201 2.01178 29.64 2.09136 29.5887L4.48569 28.1455L2.17863 29.4802C2.09533 29.5271 1.997 29.5396 1.90459 29.5151C1.81218 29.4906 1.73301 29.4309 1.68395 29.3489C1.63489 29.2668 1.61982 29.1689 1.64195 29.0758C1.66408 28.9828 1.72166 28.9021 1.80243 28.851L15.3691 20.491L1.80463 28.32C1.72149 28.3658 1.62384 28.3776 1.53221 28.3529C1.44058 28.3282 1.36211 28.2689 1.31329 28.1875C1.26447 28.1061 1.24912 28.0089 1.27045 27.9164C1.29179 27.824 1.34815 27.7434 1.42769 27.6916L16.3723 18.4266L1.46656 27.0301C1.38363 27.0706 1.28847 27.0783 1.20008 27.0518C1.11169 27.0252 1.03658 26.9663 0.989739 26.8867C0.942894 26.8072 0.927764 26.7129 0.947367 26.6228C0.96697 26.5326 1.01987 26.4531 1.09549 26.4002L8.90329 21.6438L1.27149 26.0489C1.18845 26.0933 1.09152 26.104 1.0008 26.0788C0.910072 26.0537 0.832496 25.9946 0.78414 25.9138C0.735785 25.833 0.720355 25.7367 0.741048 25.6449C0.76174 25.5531 0.816969 25.4727 0.895294 25.4204L14.9518 16.6938L1.07569 24.7047C0.992397 24.7516 0.894065 24.7642 0.801658 24.7397C0.709251 24.7151 0.630079 24.6555 0.581017 24.5734C0.531954 24.4914 0.516883 24.3934 0.539014 24.3004C0.561146 24.2074 0.618731 24.1267 0.699494 24.0755L12.4666 16.806L0.968627 23.4441C0.885222 23.4895 0.787476 23.5007 0.695953 23.4755C0.604431 23.4502 0.526269 23.3905 0.477912 23.3088C0.429556 23.2271 0.414775 23.1298 0.43668 23.0374C0.458585 22.945 0.515468 22.8647 0.59536 22.8134L4.90369 20.194L0.943694 22.4805C0.861061 22.5219 0.765855 22.5305 0.677124 22.5047C0.588393 22.4789 0.512682 22.4205 0.465137 22.3413C0.417593 22.262 0.401722 22.1678 0.4207 22.0773C0.439679 21.9869 0.492106 21.907 0.567494 21.8535L6.56103 18.1868L0.959094 21.4223C0.875559 21.4699 0.776669 21.4828 0.683724 21.4582C0.590779 21.4336 0.511218 21.3735 0.462176 21.2908C0.413134 21.2081 0.398536 21.1094 0.421527 21.0161C0.444518 20.9227 0.503258 20.8421 0.585094 20.7916L2.00776 19.9285L1.01776 20.4998C0.935316 20.54 0.840779 20.5479 0.752811 20.5219C0.664842 20.4958 0.589834 20.4377 0.542592 20.3591C0.495349 20.2804 0.479306 20.1869 0.497628 20.0971C0.51595 20.0072 0.567307 19.9274 0.64156 19.8735L8.73903 14.8707L1.16296 19.2414C1.08017 19.2862 0.9833 19.2975 0.892411 19.2729C0.801523 19.2483 0.723587 19.1897 0.674754 19.1092C0.62592 19.0287 0.609931 18.9324 0.630101 18.8405C0.65027 18.7485 0.705052 18.6678 0.783094 18.6151L13.2637 10.6907L1.49223 17.4865C1.40936 17.5328 1.31175 17.5452 1.21995 17.521C1.12814 17.4969 1.04929 17.438 0.999984 17.3569C0.950679 17.2758 0.934763 17.1787 0.955586 17.086C0.976408 16.9934 1.03234 16.9125 1.11163 16.8602L12.7782 9.38025L2.03196 15.5842C1.94894 15.6317 1.85066 15.6448 1.75809 15.6209C1.66552 15.5969 1.58598 15.5377 1.53643 15.4559C1.48688 15.3741 1.47124 15.2762 1.49285 15.183C1.51445 15.0899 1.5716 15.0089 1.65209 14.9572L8.95389 10.3372L2.63549 13.9878C2.55247 14.0352 2.45419 14.0484 2.36162 14.0244C2.26905 14.0004 2.18951 13.9412 2.13996 13.8594C2.09041 13.7776 2.07477 13.6797 2.09638 13.5866C2.11799 13.4934 2.17513 13.4124 2.25563 13.3608L7.46229 10.0608L3.38716 12.417C3.30435 12.4641 3.20644 12.4772 3.11417 12.4534C3.0219 12.4296 2.94253 12.3708 2.89286 12.2894C2.84319 12.2081 2.82713 12.1107 2.84808 12.0177C2.86903 11.9248 2.92534 11.8436 3.00509 11.7914L8.04896 8.53765L4.45563 10.6108C4.37372 10.657 4.27716 10.67 4.18593 10.6471C4.09471 10.6242 4.01578 10.567 3.96549 10.4875C3.91519 10.4081 3.89737 10.3123 3.91572 10.22C3.93406 10.1277 3.98715 10.0461 4.06403 9.99185L9.64983 6.13525L6.56983 7.91211C6.48798 7.95909 6.39117 7.97269 6.29955 7.9501C6.20792 7.92751 6.12854 7.87047 6.0779 7.79083C6.02727 7.7112 6.00929 7.61511 6.0277 7.52255C6.04611 7.43 6.0995 7.34811 6.17676 7.29391L8.84243 5.43565C8.80538 5.40695 8.77425 5.37134 8.75076 5.33078C8.70214 5.24657 8.68896 5.14649 8.71413 5.05256C8.7393 4.95863 8.80075 4.87854 8.88496 4.82991L13.722 2.03885C13.8039 1.99188 13.9007 1.97827 13.9923 2.00086C14.0839 2.02345 14.1633 2.0805 14.214 2.16013C14.2646 2.23977 14.2826 2.33586 14.2642 2.42841C14.2457 2.52096 14.1924 2.60286 14.1151 2.65705L13.6626 2.97238L17.1518 0.958648C17.2336 0.91401 17.3292 0.90215 17.4194 0.925476C17.5096 0.948802 17.5875 1.00557 17.6373 1.08424C17.6872 1.16292 17.7052 1.25762 17.6877 1.34911C17.6703 1.44059 17.6187 1.52202 17.5434 1.57685L11.9591 5.43271L20.5384 0.479781C20.6212 0.432642 20.7191 0.419593 20.8114 0.443399C20.9036 0.467204 20.983 0.525994 21.0327 0.607315C21.0823 0.688635 21.0984 0.786097 21.0774 0.879055C21.0565 0.972012 21.0002 1.05316 20.9204 1.10531L15.8788 4.35765L22.6372 0.456315C22.6784 0.431372 22.7241 0.414792 22.7717 0.407522C22.8194 0.400251 22.8679 0.402433 22.9147 0.413941C22.9615 0.425449 23.0056 0.446059 23.0444 0.474594C23.0832 0.503129 23.116 0.53903 23.141 0.580248C23.1659 0.621466 23.1825 0.667192 23.1898 0.714817C23.197 0.762442 23.1948 0.811033 23.1833 0.857815C23.1718 0.904598 23.1512 0.948655 23.1227 0.987472C23.0941 1.02629 23.0582 1.05911 23.017 1.08405L17.8104 4.38405L24.3678 0.594915C24.4508 0.549311 24.5481 0.537539 24.6395 0.562059C24.7309 0.586579 24.8093 0.645493 24.8583 0.726478C24.9072 0.807463 24.923 0.904246 24.9023 0.996584C24.8815 1.08892 24.8259 1.16966 24.747 1.22191L17.4481 5.83678L26.0567 0.866981C26.1394 0.821483 26.2365 0.80965 26.3277 0.833945C26.419 0.858241 26.4973 0.916792 26.5465 0.997407C26.5956 1.07802 26.6118 1.17449 26.5916 1.26671C26.5714 1.35894 26.5164 1.43982 26.438 1.49251L14.7685 8.97251L27.9751 1.34585C28.0579 1.30098 28.1548 1.28969 28.2456 1.3143C28.3365 1.33891 28.4145 1.39755 28.4633 1.47806C28.5121 1.55857 28.5281 1.65478 28.508 1.74676C28.4878 1.83874 28.433 1.91943 28.355 1.97211L15.8714 9.90385L29.6647 1.94058C29.748 1.89365 29.8463 1.88112 29.9387 1.90564C30.0311 1.93017 30.1103 1.98982 30.1594 2.07188C30.2084 2.15394 30.2235 2.25191 30.2014 2.34492C30.1792 2.43793 30.1217 2.51862 30.0409 2.56978L21.9537 7.56598L30.827 2.44291C30.9106 2.39531 31.0095 2.38243 31.1024 2.40703C31.1953 2.43163 31.2749 2.49176 31.3239 2.57446C31.373 2.65716 31.3876 2.75581 31.3646 2.84917C31.3416 2.94252 31.2829 3.02311 31.201 3.07358L29.7864 3.93158L31.6535 2.85431C31.7368 2.80823 31.8349 2.79639 31.9268 2.82129C32.0187 2.8462 32.0973 2.90589 32.146 2.98774C32.1947 3.0696 32.2097 3.16718 32.1877 3.25985C32.1657 3.35252 32.1085 3.43299 32.0282 3.48425L26.0149 7.16118L32.5841 3.36911C32.6673 3.32584 32.7638 3.31607 32.854 3.3418C32.9441 3.36753 33.021 3.42681 33.0688 3.50747C33.1166 3.58812 33.1317 3.68401 33.1109 3.77544C33.0902 3.86687 33.0353 3.94689 32.9574 3.99905L28.6732 6.60458L33.4003 3.87511C33.4838 3.82523 33.5838 3.81057 33.6781 3.83436C33.7724 3.85815 33.8535 3.91845 33.9034 4.00198C33.9533 4.08552 33.9679 4.18545 33.9441 4.27979C33.9203 4.37413 33.86 4.45516 33.7765 4.50505L21.9999 11.779L34.4394 4.59671C34.5226 4.55093 34.6202 4.53916 34.7118 4.56389C34.8035 4.58861 34.882 4.6479 34.9308 4.7293C34.9796 4.81069 34.9949 4.90784 34.9736 5.00032C34.9523 5.0928 34.8959 5.1734 34.8164 5.22518L20.7532 13.9555L35.5035 5.44005C35.5867 5.39555 35.6839 5.38488 35.7749 5.41025C35.8658 5.43562 35.9434 5.49507 35.9916 5.57624C36.0398 5.6574 36.0548 5.75403 36.0336 5.846C36.0123 5.93796 35.9564 6.01819 35.8775 6.06998L28.0954 10.811L36.253 6.10151C36.3363 6.05459 36.4346 6.04205 36.527 6.06658C36.6194 6.0911 36.6986 6.15075 36.7476 6.23281C36.7967 6.31487 36.8118 6.41284 36.7896 6.50585C36.7675 6.59886 36.7099 6.67955 36.6292 6.73072L21.6838 15.9964L37.1997 7.04018C37.2829 6.99507 37.3803 6.98387 37.4716 7.00893C37.5628 7.03398 37.6409 7.09335 37.6893 7.17462C37.7378 7.25588 37.753 7.35275 37.7318 7.44496C37.7105 7.53717 37.6544 7.61759 37.5752 7.66938L24.0004 16.0316L38.013 7.94218C38.0965 7.89562 38.195 7.88358 38.2873 7.90861C38.3797 7.93365 38.4586 7.99378 38.5072 8.07618C38.5558 8.15858 38.5703 8.25671 38.5476 8.34964C38.5248 8.44257 38.4667 8.52294 38.3855 8.57358L35.9882 10.0182L38.516 8.55891C38.5996 8.51236 38.6981 8.50031 38.7904 8.52534C38.8828 8.55038 38.9616 8.61051 39.0103 8.69291C39.0589 8.77531 39.0734 8.87345 39.0506 8.96638C39.0279 9.05931 38.9697 9.13967 38.8886 9.19031L38.7896 9.24971L38.9663 9.14851C39.0498 9.10091 39.1487 9.08803 39.2417 9.11263C39.3346 9.13723 39.4142 9.19736 39.4632 9.28006C39.5123 9.36276 39.5269 9.46141 39.5039 9.55477C39.4809 9.64812 39.4221 9.72871 39.3403 9.77918L31.7752 14.3735L39.5002 9.91411C39.5835 9.86803 39.6815 9.85619 39.7735 9.88109C39.8654 9.906 39.944 9.96569 39.9927 10.0475C40.0414 10.1294 40.0563 10.227 40.0343 10.3196C40.0124 10.4123 39.9552 10.4928 39.8749 10.544L29.3802 16.9446L40.0524 10.7846C40.1358 10.7392 40.2335 10.728 40.325 10.7532C40.4166 10.7785 40.4947 10.8382 40.5431 10.9199C40.5914 11.0016 40.6062 11.0989 40.5843 11.1913C40.5624 11.2837 40.5055 11.364 40.4256 11.4152L35.285 14.5202L40.4799 11.5238C40.5631 11.4793 40.6604 11.4686 40.7513 11.494C40.8422 11.5193 40.9198 11.5788 40.968 11.66C41.0162 11.7411 41.0312 11.8378 41.01 11.9297C40.9887 12.0217 40.9328 12.1019 40.8539 12.1537L31.6997 17.727L40.928 12.3935C41.0113 12.3466 41.1096 12.3341 41.202 12.3586C41.2944 12.3831 41.3736 12.4428 41.4226 12.5248C41.4717 12.6069 41.4868 12.7048 41.4646 12.7979C41.4425 12.8909 41.3849 12.9715 41.3042 13.0227L25.5419 22.787L41.4633 13.5954C41.5464 13.5497 41.6441 13.5379 41.7357 13.5626C41.8273 13.5873 41.9058 13.6466 41.9546 13.728C42.0035 13.8094 42.0188 13.9066 41.9975 13.9991C41.9761 14.0915 41.9198 14.1721 41.8402 14.2239L26.2334 23.8944L41.9268 14.8348C42.0102 14.7894 42.1079 14.7782 42.1994 14.8034C42.291 14.8287 42.3691 14.8884 42.4175 14.9701C42.4658 15.0518 42.4806 15.1491 42.4587 15.2415C42.4368 15.3339 42.3799 15.4142 42.3 15.4654L38.2403 17.9184L42.1842 15.6414C42.2677 15.5949 42.3662 15.5828 42.4585 15.6079C42.5509 15.6329 42.6298 15.693 42.6784 15.7754C42.727 15.8578 42.7415 15.956 42.7188 16.0489C42.696 16.1418 42.6379 16.2222 42.5567 16.2728L41.9458 16.6395L42.3946 16.3814C42.4778 16.3356 42.5754 16.3238 42.667 16.3486C42.7587 16.3733 42.8372 16.4326 42.886 16.514C42.9348 16.5954 42.9501 16.6925 42.9288 16.785C42.9075 16.8775 42.8511 16.9581 42.7716 17.0098L27.2022 26.6986L42.6931 17.7556C42.7763 17.7105 42.8737 17.6993 42.965 17.7244C43.0562 17.7495 43.1343 17.8088 43.1827 17.8901C43.2312 17.9714 43.2464 18.0682 43.2252 18.1604C43.2039 18.2526 43.1478 18.3331 43.0686 18.3848L31.2289 25.6778L42.8808 18.951C42.9641 18.9065 43.0613 18.8958 43.1522 18.9212C43.2431 18.9466 43.3208 19.006 43.3689 19.0872C43.4171 19.1683 43.4322 19.265 43.4109 19.3569C43.3897 19.4489 43.3338 19.5291 43.2548 19.5809L36.2368 23.8606L42.9835 19.9644C43.0667 19.9193 43.1641 19.9081 43.2554 19.9332C43.3466 19.9583 43.4247 20.0176 43.4731 20.0989C43.5216 20.1802 43.5368 20.277 43.5156 20.3692C43.4943 20.4614 43.4382 20.5419 43.359 20.5936L33.8432 26.4427L43.0466 21.1297C43.1297 21.0839 43.2273 21.0722 43.319 21.0969C43.4106 21.1216 43.4891 21.1809 43.5379 21.2623C43.5867 21.3437 43.6021 21.4408 43.5807 21.5333C43.5594 21.6258 43.503 21.7064 43.4235 21.7582L32.4052 28.5818L43.0466 22.4402C43.13 22.3948 43.2277 22.3836 43.3192 22.4088C43.4108 22.4341 43.4889 22.4938 43.5373 22.5755C43.5856 22.6572 43.6004 22.7545 43.5785 22.8469C43.5566 22.9393 43.4997 23.0196 43.4198 23.0708L42.6645 23.5284L42.9952 23.3378C43.0364 23.3128 43.0821 23.2962 43.1297 23.2888C43.1773 23.2815 43.2259 23.2836 43.2726 23.295C43.3194 23.3065 43.3635 23.327 43.4023 23.3555C43.4412 23.384 43.474 23.4198 43.499 23.461C43.524 23.5022 43.5407 23.5478 43.548 23.5954C43.5553 23.643 43.5532 23.6916 43.5418 23.7384C43.5303 23.7852 43.5098 23.8293 43.4813 23.8681C43.4528 23.9069 43.417 23.9398 43.3758 23.9648L29.1345 33.0207L42.7745 25.1454C42.8577 25.101 42.955 25.0903 43.0459 25.1156C43.1368 25.141 43.2144 25.2005 43.2626 25.2816C43.3108 25.3628 43.3258 25.4594 43.3046 25.5514C43.2833 25.6434 43.2274 25.7236 43.1485 25.7754L42.6623 26.0687C42.7477 26.04 42.8406 26.0437 42.9234 26.0792C43.0062 26.1146 43.0731 26.1793 43.1113 26.2609C43.1494 26.3425 43.1562 26.4353 43.1304 26.5216C43.1045 26.6078 43.0478 26.6816 42.971 26.7287L38.8812 29.2506L42.3184 27.2662C42.4013 27.2206 42.4986 27.2089 42.59 27.2334C42.6815 27.2579 42.7598 27.3168 42.8088 27.3978C42.8578 27.4788 42.8735 27.5756 42.8528 27.6679C42.832 27.7603 42.7764 27.841 42.6975 27.8932L34.38 33.1358L41.8204 28.84C41.9038 28.7898 42.0036 28.7748 42.098 28.7982C42.1448 28.8098 42.1888 28.8305 42.2275 28.8592C42.2663 28.8878 42.299 28.9237 42.3239 28.965C42.3487 29.0063 42.3652 29.052 42.3723 29.0997C42.3795 29.1473 42.3772 29.1959 42.3656 29.2426C42.354 29.2894 42.3333 29.3334 42.3047 29.3721C42.2761 29.4109 42.2401 29.4436 42.1988 29.4684L37.1836 32.6093L41.2528 30.2626C41.3358 30.217 41.4331 30.2053 41.5245 30.2298C41.6159 30.2543 41.6943 30.3132 41.7433 30.3942C41.7923 30.4752 41.808 30.572 41.7873 30.6643C41.7665 30.7567 41.7109 30.8374 41.632 30.8896L37.3596 33.5868L40.5246 31.7535C40.6074 31.708 40.7044 31.6962 40.7957 31.7205C40.8869 31.7448 40.9653 31.8033 41.0144 31.8839C41.0635 31.9646 41.0797 32.061 41.0595 32.1532C41.0393 32.2455 40.9843 32.3264 40.906 32.379L36.5397 35.1855L39.473 33.4908C39.5556 33.4459 39.6523 33.4345 39.743 33.4589C39.8338 33.4833 39.9117 33.5416 39.9608 33.6217C40.0098 33.7019 40.0262 33.7979 40.0065 33.8898C39.9868 33.9817 39.9326 34.0625 39.8551 34.1156L38.2359 35.165C38.3183 35.1181 38.4157 35.105 38.5076 35.1283C38.5995 35.1517 38.6787 35.2098 38.7287 35.2903C38.7787 35.3709 38.7956 35.4677 38.7757 35.5604C38.7559 35.6531 38.7009 35.7345 38.6224 35.7876L36.338 37.3349C36.4163 37.3406 36.4907 37.3713 36.5502 37.4224C36.6097 37.4735 36.6513 37.5424 36.6688 37.6189C36.6862 37.6954 36.6787 37.7755 36.6473 37.8474C36.6159 37.9193 36.5622 37.9792 36.4942 38.0184L28.6102 42.5702C28.5279 42.6189 28.4298 42.6336 28.3368 42.6111C28.2439 42.5885 28.1634 42.5305 28.1126 42.4495C28.0618 42.3684 28.0447 42.2708 28.0649 42.1773C28.0851 42.0838 28.141 42.0019 28.2208 41.949L29.7732 40.8989L25.6563 43.2757C25.5736 43.3211 25.4765 43.333 25.3852 43.3087C25.294 43.2844 25.2157 43.2258 25.1665 43.1452C25.1174 43.0646 25.1012 42.9681 25.1214 42.8759C25.1416 42.7837 25.1966 42.7028 25.275 42.6501L26.8964 41.6044L23.5964 43.511C23.5135 43.5582 23.4156 43.5712 23.3234 43.5474C23.2311 43.5236 23.1517 43.4648 23.1021 43.3835C23.0524 43.3022 23.0363 43.2047 23.0573 43.1118C23.0782 43.0188 23.1345 42.9377 23.2143 42.8855L27.5864 40.0746L21.5687 43.5492C21.5119 43.5819 21.4473 43.5987 21.3817 43.5976Z" fill="#5EDD60"/>
<path d="M19.7934 31.8548C19.72 31.8548 19.6484 31.8328 19.5876 31.7917C19.5269 31.7505 19.4799 31.6921 19.4527 31.6239C19.4255 31.5557 19.4194 31.481 19.4352 31.4093C19.451 31.3377 19.4879 31.2724 19.5412 31.2219L19.9196 30.8633L18.6436 31.5967C18.564 31.6426 18.47 31.657 18.3803 31.6369C18.2907 31.6169 18.2118 31.5639 18.1593 31.4885C18.1068 31.413 18.0846 31.3206 18.097 31.2296C18.1094 31.1385 18.1556 31.0555 18.2263 30.9968L20.3354 29.2434L17.6352 30.8025C17.5536 30.8496 17.4569 30.8634 17.3653 30.8411C17.2737 30.8188 17.1942 30.762 17.1434 30.6827C17.0925 30.6033 17.0741 30.5074 17.0921 30.4149C17.1101 30.3223 17.1631 30.2403 17.24 30.1857L18.2417 29.4766L17.0075 30.1887C16.9258 30.235 16.8293 30.2483 16.7382 30.2256C16.647 30.2029 16.5679 30.1461 16.5174 30.0669C16.4669 29.9877 16.4487 29.8921 16.4666 29.7998C16.4845 29.7076 16.5372 29.6258 16.6137 29.5712L19.2053 27.7503L16.2551 29.4531C16.1735 29.4997 16.0773 29.5131 15.9861 29.4908C15.8949 29.4684 15.8157 29.4119 15.765 29.3329C15.7142 29.2539 15.6957 29.1585 15.7132 29.0663C15.7307 28.974 15.7829 28.892 15.8591 28.8371L21.2667 24.9989L15.2497 28.4719C15.1738 28.5155 15.0849 28.5305 14.9989 28.5143C14.913 28.498 14.8357 28.4516 14.781 28.3833C14.7263 28.315 14.6978 28.2295 14.7006 28.1421C14.7034 28.0546 14.7375 27.9711 14.7965 27.9065L16.2888 26.2837L14.2267 27.4731C14.1486 27.5178 14.0568 27.5323 13.9688 27.5137C13.8807 27.4951 13.8026 27.4448 13.7492 27.3723C13.6959 27.2999 13.671 27.2103 13.6794 27.1207C13.6878 27.0311 13.7289 26.9478 13.7948 26.8865L14.7745 25.9779L13.4684 26.731C13.3916 26.7728 13.3024 26.7857 13.2168 26.7674C13.1313 26.7492 13.0551 26.701 13.002 26.6315C12.9489 26.562 12.9224 26.4759 12.9272 26.3885C12.9321 26.3012 12.968 26.2185 13.0284 26.1553L14.3206 24.8544L12.7153 25.7806C12.6393 25.8242 12.5502 25.8391 12.4641 25.8227C12.3781 25.8062 12.3008 25.7595 12.2462 25.691C12.1916 25.6225 12.1633 25.5367 12.1665 25.4492C12.1697 25.3616 12.2041 25.2781 12.2636 25.2137L13.8571 23.5007C13.8027 23.4676 13.7579 23.421 13.727 23.3654C13.6961 23.3098 13.6801 23.2471 13.6808 23.1835C13.6815 23.1198 13.6987 23.0575 13.7308 23.0025C13.7628 22.9476 13.8086 22.9019 13.8637 22.87L15.1624 22.1205C15.2384 22.077 15.3275 22.062 15.4136 22.0785C15.4996 22.0949 15.5769 22.1416 15.6315 22.2101C15.6861 22.2786 15.7144 22.3644 15.7112 22.452C15.708 22.5395 15.6736 22.623 15.6142 22.6874L14.4628 23.9253L16.3358 22.8443C16.4128 22.7994 16.5035 22.784 16.591 22.8011C16.6785 22.8183 16.7568 22.8667 16.8112 22.9373C16.8656 23.008 16.8924 23.096 16.8865 23.185C16.8807 23.274 16.8426 23.3578 16.7794 23.4207L15.4866 24.7217L17.2334 23.7133C17.3115 23.668 17.4036 23.653 17.492 23.6714C17.5804 23.6897 17.659 23.7401 17.7126 23.8128C17.7662 23.8855 17.7911 23.9754 17.7825 24.0653C17.7739 24.1552 17.7324 24.2388 17.666 24.3L16.6863 25.2086L17.9975 24.4518C18.0733 24.4082 18.1623 24.3932 18.2482 24.4095C18.3342 24.4257 18.4115 24.4722 18.4662 24.5404C18.5209 24.6087 18.5494 24.6943 18.5466 24.7817C18.5437 24.8691 18.5097 24.9526 18.4507 25.0172L16.9584 26.6401L27.6342 20.4749C27.7158 20.4284 27.8121 20.4149 27.9033 20.4373C27.9944 20.4597 28.0736 20.5162 28.1243 20.5951C28.1751 20.6741 28.1936 20.7696 28.1761 20.8618C28.1586 20.954 28.1064 21.0361 28.0302 21.0909L22.6212 24.9336L25.974 22.9976C26.0557 22.9512 26.1521 22.938 26.2433 22.9607C26.3345 22.9833 26.4135 23.0401 26.464 23.1194C26.5146 23.1986 26.5327 23.2942 26.5148 23.3864C26.4969 23.4787 26.4443 23.5605 26.3678 23.6151L23.7798 25.4345L24.7332 24.8837C24.8147 24.8383 24.9104 24.8257 25.0009 24.8484C25.0914 24.8712 25.1698 24.9275 25.2202 25.006C25.2706 25.0846 25.2891 25.1793 25.2721 25.2711C25.255 25.3628 25.2037 25.4446 25.1284 25.4997L23.8444 26.4098C23.9093 26.4036 23.9748 26.4146 24.0342 26.4418C24.0935 26.4689 24.1447 26.5113 24.1824 26.5645C24.2348 26.6399 24.2571 26.7322 24.2447 26.8232C24.2323 26.9142 24.1863 26.9972 24.1157 27.0559L22.0059 28.81L22.2376 28.6758C22.3158 28.6275 22.4092 28.6102 22.4994 28.6275C22.5897 28.6448 22.6701 28.6953 22.7249 28.7691C22.7797 28.8428 22.8048 28.9345 22.7952 29.0258C22.7856 29.1172 22.7421 29.2017 22.6732 29.2625L21.5901 30.2891C21.6283 30.3182 21.6602 30.3546 21.684 30.3962C21.7326 30.4803 21.7459 30.5803 21.7209 30.6743C21.6959 30.7682 21.6346 30.8483 21.5505 30.8971L19.9768 31.8049C19.9212 31.8377 19.8579 31.8549 19.7934 31.8548Z" fill="white"/>
<path d="M20.2122 24.3426C20.1339 24.3425 20.0577 24.3173 19.9948 24.2707C19.9318 24.2242 19.8854 24.1587 19.8624 24.0838C19.8394 24.009 19.8409 23.9287 19.8668 23.8548C19.8927 23.7809 19.9415 23.7172 20.0062 23.6731L21.8395 22.4264L21.4956 22.6252C21.4136 22.6729 21.3163 22.687 21.2242 22.6645C21.1321 22.642 21.0522 22.5847 21.0015 22.5046C20.9507 22.4245 20.9329 22.3278 20.9519 22.2349C20.9709 22.142 21.0251 22.06 21.1032 22.0062L23.6494 20.2499L22.696 20.8006C22.6143 20.8453 22.5186 20.8571 22.4285 20.8338C22.3383 20.8105 22.2604 20.7537 22.2106 20.675C22.1607 20.5964 22.1427 20.5017 22.1601 20.4102C22.1776 20.3187 22.2292 20.2373 22.3044 20.1824L23.7198 19.2056C23.6365 19.242 23.5427 19.2461 23.4566 19.2173C23.3705 19.1884 23.2981 19.1286 23.2535 19.0495C23.209 18.9703 23.1954 18.8774 23.2154 18.7888C23.2354 18.7002 23.2876 18.6222 23.3619 18.5698L24.7134 17.596C24.6447 17.6078 24.5741 17.6004 24.5094 17.5745C24.4446 17.5486 24.3884 17.5053 24.3468 17.4493C24.2942 17.3743 24.2717 17.2824 24.2835 17.1916C24.2953 17.1008 24.3406 17.0178 24.4106 16.9587L26.2329 15.4187C26.1567 15.4618 26.0676 15.4762 25.9817 15.4593C25.8958 15.4424 25.8188 15.3953 25.7645 15.3266C25.7103 15.2578 25.6825 15.172 25.6861 15.0845C25.6897 14.997 25.7244 14.9137 25.7841 14.8496L27.1114 13.4072C27.0797 13.3802 27.0529 13.348 27.0322 13.3118C26.9839 13.2277 26.9708 13.1278 26.996 13.034C27.0211 12.9403 27.0824 12.8603 27.1664 12.8117L28.2664 12.1766C28.3423 12.1331 28.4312 12.1181 28.5172 12.1343C28.6031 12.1506 28.6805 12.197 28.7352 12.2653C28.7899 12.3335 28.8184 12.4191 28.8155 12.5065C28.8127 12.594 28.7787 12.6775 28.7196 12.742L27.946 13.5824L29.4288 12.7274C29.508 12.6829 29.6009 12.6695 29.6895 12.6896C29.778 12.7097 29.856 12.762 29.9082 12.8363C29.9604 12.9107 29.9832 13.0017 29.9721 13.0919C29.961 13.182 29.9169 13.2648 29.8482 13.3243L28.0266 14.8643L30.5295 13.4189C30.611 13.3717 30.7075 13.3576 30.7991 13.3796C30.8907 13.4016 30.9703 13.458 31.0214 13.5372C31.0725 13.6163 31.0912 13.712 31.0737 13.8046C31.0561 13.8971 31.0035 13.9793 30.927 14.0342L29.747 14.8819L31.2093 14.0386C31.2911 13.9939 31.3867 13.9821 31.4769 14.0054C31.5671 14.0287 31.645 14.0855 31.6948 14.1642C31.7446 14.2428 31.7627 14.3375 31.7452 14.429C31.7278 14.5205 31.6762 14.6019 31.6009 14.6568L30.2076 15.6182L31.1932 15.0498C31.2749 15.0052 31.3706 14.9933 31.4608 15.0167C31.5509 15.04 31.6288 15.0968 31.6787 15.1754C31.7285 15.2541 31.7465 15.3488 31.7291 15.4403C31.7117 15.5318 31.6601 15.6132 31.5848 15.668L29.046 17.417L30.0118 16.8597C30.0939 16.8135 30.1906 16.8007 30.2819 16.8239C30.3732 16.8472 30.452 16.9046 30.5021 16.9844C30.5521 17.0642 30.5696 17.1601 30.5508 17.2524C30.532 17.3447 30.4784 17.4263 30.4012 17.4801L28.5678 18.7312L28.9169 18.5302C29.0007 18.4864 29.0982 18.4766 29.189 18.503C29.2799 18.5293 29.357 18.5898 29.4043 18.6716C29.4516 18.7535 29.4655 18.8505 29.443 18.9424C29.4205 19.0342 29.3634 19.1138 29.2836 19.1646L20.3956 24.2935C20.3399 24.3259 20.2766 24.3428 20.2122 24.3426Z" fill="white"/>
<path d="M29.6127 12.4936C26.166 10.6053 21.5152 22.5403 19.0564 24.9302C17.611 23.6579 15.881 20.861 13.8497 22.8454C12.9763 23.663 11.2097 24.8906 12.317 26.1894C13.912 27.868 15.675 29.4043 17.3037 31.0594C22.5045 34.897 26.9463 21.1455 30.1326 18.0846C31.9352 15.6976 33.1723 13.9339 29.6127 12.4936ZM30.8528 15.4541C27.6114 20.4136 24.3217 25.3629 21.0723 30.3239C18.3531 33.1142 15.4887 27.1706 13.299 25.7772C12.1916 24.9706 14.9966 22.0629 15.7923 23.1284C20.6719 28.6878 19.6056 24.3296 23.4872 19.7177C24.9854 18.3933 27.3599 11.2477 29.436 13.4345C30.1576 13.8818 31.3954 14.3893 30.8528 15.4541Z" fill="#262626"/>
<path d="M43.7991 21.9381C40.9611 -14.6758 -13.1728 0.421382 3.28903 33.1897C14.116 51.6777 44.1064 43.3815 43.7991 21.9381ZM29.2696 41.6773C-4.88764 51.3133 -9.13437 -3.12355 26.2086 1.51772C46.1839 5.54005 48.4734 34.7172 29.2696 41.6773Z" fill="#262626"/>
</g>
<defs>
<clipPath id="clip0_357_739">
<rect width="44" height="44" fill="white"/>
</clipPath>
</defs>
</svg>
