<svg width="123" height="123" viewBox="0 0 123 123" fill="none" xmlns="http://www.w3.org/2000/svg">
<path d="M56.9595 57.8242H66.0403V78.4844H56.9595V57.8242Z" fill="url(#paint0_linear_321_969)"/>
<path d="M51.2419 87.3246C51.2419 81.6551 55.8304 77.0186 61.5 77.0186C67.1695 77.0186 71.758 81.6551 71.758 87.3246H51.2419Z" fill="url(#paint1_linear_321_969)"/>
<path d="M47.0859 87.3252H75.9141C78.5566 87.3252 80.7188 89.4873 80.7188 92.1299V100.538H42.2812V92.1299C42.2812 89.4873 44.4434 87.3252 47.0859 87.3252Z" fill="url(#paint2_linear_321_969)"/>
<path d="M39.2783 100.538H83.7217C87.3732 100.538 90.3281 103.493 90.3281 107.145C90.3281 110.796 87.3732 113.751 83.7217 113.751H39.2783C35.6268 113.751 32.6719 110.796 32.6719 107.145C32.6719 103.493 35.6268 100.538 39.2783 100.538Z" fill="url(#paint3_linear_321_969)"/>
<path d="M71.2293 85.2593C70.6287 85.2593 70.1002 84.8028 70.0281 84.1782C69.9561 83.5056 70.4365 82.929 71.1092 82.8569C71.2533 82.8329 80.166 81.8239 88.6703 75.0493C99.9373 66.0646 105.439 50.9538 104.526 31.3987C104.502 30.7261 105.006 30.1735 105.679 30.1495C106.328 30.1015 106.904 30.63 106.928 31.3026C107.433 42.6657 105.919 52.5634 102.388 60.7314C99.5289 67.3138 95.3969 72.7911 90.0637 77.0192C80.9828 84.2023 71.7338 85.2353 71.3494 85.2593C71.3254 85.2593 71.2774 85.2593 71.2293 85.2593Z" fill="url(#paint4_linear_321_969)"/>
<path d="M115 45.3325C110.772 48.8399 104.79 48.5756 104.79 48.5756C104.79 48.5756 105.655 42.6418 109.883 39.1344C114.111 35.627 120.093 35.8913 120.093 35.8913C120.093 35.8913 119.228 41.825 115 45.3325Z" fill="url(#paint5_linear_321_969)"/>
<path d="M102.364 38.1248C105.511 42.6172 104.766 48.575 104.766 48.575C104.766 48.575 98.9283 47.2297 95.7812 42.7373C92.6341 38.2449 93.3789 32.2871 93.3789 32.2871C93.3789 32.2871 99.2165 33.6324 102.364 38.1248Z" fill="url(#paint6_linear_321_969)"/>
<path d="M99.1686 51.1215C101.931 55.8781 100.682 61.7398 100.682 61.7398C100.682 61.7398 94.9645 59.89 92.2259 55.1574C89.4632 50.4008 90.7124 44.5391 90.7124 44.5391C90.7124 44.5391 96.43 46.3648 99.1686 51.1215Z" fill="url(#paint7_linear_321_969)"/>
<path d="M93.8834 63.3254C94.9885 68.7066 91.9375 73.8717 91.9375 73.8717C91.9375 73.8717 87.1088 70.3162 86.0277 64.935C84.9467 59.5537 87.9736 54.3887 87.9736 54.3887C87.9736 54.3887 92.7783 57.9441 93.8834 63.3254Z" fill="url(#paint8_linear_321_969)"/>
<path d="M85.4513 73.0072C84.3222 78.3885 79.4695 81.9199 79.4695 81.9199C79.4695 81.9199 76.4425 76.7309 77.5716 71.3736C78.7007 66.0164 83.5534 62.4609 83.5534 62.4609C83.5534 62.4609 86.5804 67.626 85.4513 73.0072Z" fill="url(#paint9_linear_321_969)"/>
<path d="M111.132 59.4338C106.616 62.5328 100.658 61.74 100.658 61.74C100.658 61.74 102.051 55.9023 106.592 52.8033C111.132 49.7043 117.066 50.4971 117.066 50.4971C117.066 50.4971 115.673 56.3348 111.132 59.4338Z" fill="url(#paint10_linear_321_969)"/>
<path d="M102.676 73.968C97.5589 75.962 91.9614 73.8479 91.9614 73.8479C91.9614 73.8479 94.6521 68.4907 99.769 66.4967C104.886 64.5028 110.483 66.6168 110.483 66.6168C110.483 66.6168 107.793 71.9741 102.676 73.968Z" fill="url(#paint11_linear_321_969)"/>
<path d="M89.2948 86.1479C83.7935 86.0037 79.4692 81.8717 79.4692 81.8717C79.4692 81.8717 84.0337 77.9799 89.511 78.124C94.9884 78.2682 99.3366 82.4002 99.3366 82.4002C99.3366 82.4002 94.7722 86.292 89.2948 86.1479Z" fill="url(#paint12_linear_321_969)"/>
<path d="M109.859 28.4438C109.859 33.9451 105.847 38.3895 105.847 38.3895C105.847 38.3895 101.835 33.9451 101.835 28.4438C101.835 22.9424 105.823 18.498 105.823 18.498C105.823 18.498 109.859 22.9424 109.859 28.4438Z" fill="url(#paint13_linear_321_969)"/>
<path d="M51.7704 85.2593C52.3709 85.2593 52.8995 84.8028 52.9715 84.1782C53.0436 83.5056 52.5631 82.929 51.8905 82.8569C51.7463 82.8329 42.8336 81.8239 34.3293 75.0493C23.0623 66.0646 17.561 50.9538 18.4739 31.3987C18.4979 30.7261 17.9934 30.1735 17.3207 30.1495C16.6721 30.1015 16.0955 30.63 16.0715 31.3026C15.543 42.6657 17.0805 52.5634 20.612 60.7314C23.4707 67.3138 27.6028 72.7911 32.936 77.0192C42.0168 84.2023 51.2659 85.2353 51.6502 85.2593H51.7704Z" fill="url(#paint14_linear_321_969)"/>
<path d="M7.99971 45.3325C12.2278 48.8399 18.2337 48.5756 18.2337 48.5756C18.2337 48.5756 17.3688 42.6418 13.1407 39.1344C8.9126 35.627 2.90674 35.8913 2.90674 35.8913C2.90674 35.8913 3.77158 41.825 7.99971 45.3325Z" fill="url(#paint15_linear_321_969)"/>
<path d="M20.6359 38.1248C17.4889 42.6172 18.2336 48.575 18.2336 48.575C18.2336 48.575 24.0713 47.2297 27.2184 42.7373C30.3654 38.2449 29.6207 32.2871 29.6207 32.2871C29.6207 32.2871 23.783 33.6324 20.6359 38.1248Z" fill="url(#paint16_linear_321_969)"/>
<path d="M23.8311 51.1215C21.0924 55.8781 22.3176 61.7398 22.3176 61.7398C22.3176 61.7398 28.0352 59.89 30.7739 55.1574C33.5126 50.4248 32.2874 44.5391 32.2874 44.5391C32.2874 44.5391 26.5698 46.3648 23.8311 51.1215Z" fill="url(#paint17_linear_321_969)"/>
<path d="M29.1164 63.3254C28.0113 68.7066 31.0623 73.8717 31.0623 73.8717C31.0623 73.8717 35.891 70.3162 36.9961 64.935C38.1012 59.5537 35.0502 54.3887 35.0502 54.3887C35.0502 54.3887 30.2215 57.9441 29.1164 63.3254Z" fill="url(#paint18_linear_321_969)"/>
<path d="M37.5484 73.0072C38.6775 78.3885 43.5303 81.9199 43.5303 81.9199C43.5303 81.9199 46.5572 76.7309 45.4281 71.3736C44.299 66.0164 39.4463 62.4609 39.4463 62.4609C39.4463 62.4609 36.4193 67.626 37.5484 73.0072Z" fill="url(#paint19_linear_321_969)"/>
<path d="M11.8674 59.4338C16.3838 62.5328 22.3416 61.74 22.3416 61.74C22.3416 61.74 20.9482 55.9023 16.4078 52.8033C11.8674 49.7043 5.93359 50.4971 5.93359 50.4971C5.93359 50.4971 7.32695 56.3348 11.8674 59.4338Z" fill="url(#paint20_linear_321_969)"/>
<path d="M20.3236 73.968C25.4406 75.962 31.0381 73.8479 31.0381 73.8479C31.0381 73.8479 28.3475 68.4907 23.2545 66.4967C18.1375 64.5028 12.54 66.6168 12.54 66.6168C12.54 66.6168 15.2066 71.9741 20.3236 73.968Z" fill="url(#paint21_linear_321_969)"/>
<path d="M33.7049 86.1479C39.2063 86.0037 43.5305 81.8717 43.5305 81.8717C43.5305 81.8717 38.966 77.9799 33.4887 78.124C28.0113 78.2682 23.6631 82.4002 23.6631 82.4002C23.6631 82.4002 28.2275 86.292 33.7049 86.1479Z" fill="url(#paint22_linear_321_969)"/>
<path d="M13.1406 28.4438C13.1406 33.9451 17.1525 38.3895 17.1525 38.3895C17.1525 38.3895 21.1645 33.9451 21.1645 28.4438C21.1645 22.9424 17.1525 18.498 17.1525 18.498C17.1525 18.498 13.1406 22.9424 13.1406 28.4438Z" fill="url(#paint23_linear_321_969)"/>
<path d="M67.4577 12.8525L72.9351 23.3027L84.5865 25.2726C89.9437 26.1855 92.0818 32.7439 88.2861 36.6117L80.022 45.0679L81.7277 56.7433C82.5204 62.1245 76.947 66.1605 72.0702 63.7581L61.4999 58.545L50.9296 63.7822C46.0529 66.1845 40.4794 62.1486 41.2722 56.7673L42.9779 45.0919L34.7138 36.6357C30.9181 32.7439 33.0562 26.2095 38.4134 25.2966L50.0648 23.3267L55.5421 12.8765C58.0646 8.04778 64.9353 8.04778 67.4577 12.8525Z" fill="url(#paint24_linear_321_969)"/>
<path d="M61.5 54.1006C69.7924 54.1006 76.5146 47.3783 76.5146 39.0859C76.5146 30.7936 69.7924 24.0713 61.5 24.0713C53.2076 24.0713 46.4854 30.7936 46.4854 39.0859C46.4854 47.3783 53.2076 54.1006 61.5 54.1006Z" fill="url(#paint25_linear_321_969)"/>
<path d="M61.8019 45.5943C63.1432 42.9941 64.4496 40.365 65.7213 37.7071C65.7212 37.7074 65.7211 37.7076 65.721 37.7078L61.8019 45.5943ZM61.8019 45.5943C62.5454 45.5273 63.2251 45.4381 63.8415 45.3273L63.8431 45.327C64.6992 45.176 65.627 44.9235 66.6276 44.5666C66.7631 44.5068 67.089 44.368 67.599 44.1528C68.1767 43.891 68.7274 43.743 69.2412 43.743C69.7187 43.743 70.1724 43.9213 70.3999 44.394L70.4195 44.4347L70.4315 44.4782C70.4497 44.5442 70.465 44.6048 70.4763 44.6573C70.4851 44.6984 70.5 44.7722 70.5 44.8473C70.5 45.2732 70.2713 45.6353 69.9687 45.9288C69.6639 46.2242 69.2341 46.5007 68.7068 46.7654C67.6811 47.2804 66.7341 47.6923 65.8669 47.9986L65.864 47.9996L65.864 47.9996C64.902 48.3327 63.9193 48.5 62.9183 48.5C61.4575 48.5 59.866 48.0791 58.1523 47.2699L58.115 47.2523L58.0811 47.2288C57.8226 47.0498 57.7899 46.7613 57.7899 46.6076C57.7899 46.3512 57.8654 46.029 57.9776 45.6749C58.0937 45.3086 58.2645 44.8618 58.4866 44.3381L61.8019 45.5943ZM66.2513 33.2593C65.9324 32.725 65.4784 32.3003 64.9057 31.983L64.665 32.4175L64.9057 31.983C64.318 31.6574 63.6597 31.5 62.9436 31.5C62.3493 31.5 61.7176 31.6291 61.0534 31.8715C60.5598 32.0491 59.9567 32.3808 59.2541 32.8435L59.2541 32.8435L59.2494 32.8467C58.5398 33.3258 57.916 33.8805 57.38 34.511C56.8287 35.1418 56.5 35.8139 56.5 36.5189C56.5 37.2781 57.0091 37.8828 57.7394 38.357C57.9268 38.4787 58.1472 38.569 58.3911 38.569C58.8543 38.569 59.2727 38.3305 59.6372 37.993C59.9964 37.6753 60.4073 37.2469 60.8682 36.7149L60.8682 36.7149L60.8714 36.7112L61.2507 36.2646L61.2658 36.2468L61.2792 36.2277L61.6839 35.6497L61.684 35.6497L61.6879 35.6439C62.0791 35.0682 62.33 34.7435 62.4573 34.6162C62.5665 34.5386 62.6421 34.523 62.6907 34.523C62.6995 34.523 62.7018 34.5242 62.7005 34.5237C62.6991 34.5233 62.7005 34.5233 62.7054 34.527C62.7169 34.5357 62.7525 34.5686 62.7966 34.6602C62.8847 34.8433 62.9233 35.0469 62.9041 35.2823C62.8441 35.527 62.6965 35.9152 62.4399 36.465L62.4399 36.465L62.4372 36.4709C62.1884 37.0224 61.8379 37.7508 61.3844 38.6581C60.9282 39.5532 60.6472 40.0936 60.5351 40.2933C60.535 40.2934 60.535 40.2936 60.5349 40.2938L66.2513 33.2593Z" fill="url(#paint26_linear_321_969)" stroke="#FF8413"/>
<defs>
<linearGradient id="paint0_linear_321_969" x1="61.5011" y1="78.4784" x2="61.5011" y2="57.823" gradientUnits="userSpaceOnUse">
<stop stop-color="#FCD34F"/>
<stop offset="1" stop-color="#FF6A00"/>
</linearGradient>
<linearGradient id="paint1_linear_321_969" x1="61.5" y1="77.0101" x2="61.5" y2="87.3258" gradientUnits="userSpaceOnUse">
<stop stop-color="#FCD34F"/>
<stop offset="1" stop-color="#FF6A00"/>
</linearGradient>
<linearGradient id="paint2_linear_321_969" x1="61.5" y1="100.539" x2="61.5" y2="87.3264" gradientUnits="userSpaceOnUse">
<stop stop-color="#3D5969"/>
<stop offset="1" stop-color="#698999"/>
</linearGradient>
<linearGradient id="paint3_linear_321_969" x1="61.5" y1="113.752" x2="61.5" y2="100.539" gradientUnits="userSpaceOnUse">
<stop stop-color="#FF9900"/>
<stop offset="1" stop-color="#FCD34F"/>
</linearGradient>
<linearGradient id="paint4_linear_321_969" x1="88.536" y1="30.1322" x2="88.536" y2="85.2605" gradientUnits="userSpaceOnUse">
<stop stop-color="#FF9900"/>
<stop offset="1" stop-color="#FCD34F"/>
</linearGradient>
<linearGradient id="paint5_linear_321_969" x1="112.389" y1="48.6377" x2="112.393" y2="35.9552" gradientUnits="userSpaceOnUse">
<stop stop-color="#FF9900"/>
<stop offset="1" stop-color="#FCD34F"/>
</linearGradient>
<linearGradient id="paint6_linear_321_969" x1="99.0644" y1="48.684" x2="99.0674" y2="32.3983" gradientUnits="userSpaceOnUse">
<stop stop-color="#FF9900"/>
<stop offset="1" stop-color="#FCD34F"/>
</linearGradient>
<linearGradient id="paint7_linear_321_969" x1="95.3208" y1="61.5811" x2="95.9535" y2="44.7778" gradientUnits="userSpaceOnUse">
<stop stop-color="#FF9900"/>
<stop offset="1" stop-color="#FCD34F"/>
</linearGradient>
<linearGradient id="paint8_linear_321_969" x1="89.9554" y1="73.8149" x2="89.9508" y2="54.3255" gradientUnits="userSpaceOnUse">
<stop stop-color="#FF9900"/>
<stop offset="1" stop-color="#FCD34F"/>
</linearGradient>
<linearGradient id="paint9_linear_321_969" x1="81.5737" y1="81.8523" x2="81.5674" y2="62.3861" gradientUnits="userSpaceOnUse">
<stop stop-color="#FF9900"/>
<stop offset="1" stop-color="#FCD34F"/>
</linearGradient>
<linearGradient id="paint10_linear_321_969" x1="108.691" y1="62.0345" x2="109.14" y2="50.1189" gradientUnits="userSpaceOnUse">
<stop stop-color="#FF9900"/>
<stop offset="1" stop-color="#FCD34F"/>
</linearGradient>
<linearGradient id="paint11_linear_321_969" x1="101.113" y1="74.7431" x2="101.116" y2="65.5453" gradientUnits="userSpaceOnUse">
<stop stop-color="#FF9900"/>
<stop offset="1" stop-color="#FCD34F"/>
</linearGradient>
<linearGradient id="paint12_linear_321_969" x1="89.4381" y1="86.2798" x2="89.4357" y2="78.2382" gradientUnits="userSpaceOnUse">
<stop stop-color="#FF9900"/>
<stop offset="1" stop-color="#FCD34F"/>
</linearGradient>
<linearGradient id="paint13_linear_321_969" x1="105.835" y1="38.381" x2="105.835" y2="18.4944" gradientUnits="userSpaceOnUse">
<stop stop-color="#FF9900"/>
<stop offset="1" stop-color="#FCD34F"/>
</linearGradient>
<linearGradient id="paint14_linear_321_969" x1="34.466" y1="30.1322" x2="34.466" y2="85.2605" gradientUnits="userSpaceOnUse">
<stop stop-color="#FF9900"/>
<stop offset="1" stop-color="#FCD34F"/>
</linearGradient>
<linearGradient id="paint15_linear_321_969" x1="10.6115" y1="48.6361" x2="10.6079" y2="35.9536" gradientUnits="userSpaceOnUse">
<stop stop-color="#FF9900"/>
<stop offset="1" stop-color="#FCD34F"/>
</linearGradient>
<linearGradient id="paint16_linear_321_969" x1="23.9329" y1="48.6829" x2="23.9297" y2="32.3974" gradientUnits="userSpaceOnUse">
<stop stop-color="#FF9900"/>
<stop offset="1" stop-color="#FCD34F"/>
</linearGradient>
<linearGradient id="paint17_linear_321_969" x1="27.6793" y1="61.582" x2="27.0467" y2="44.7788" gradientUnits="userSpaceOnUse">
<stop stop-color="#FF9900"/>
<stop offset="1" stop-color="#FCD34F"/>
</linearGradient>
<linearGradient id="paint18_linear_321_969" x1="33.0477" y1="73.8161" x2="33.0525" y2="54.327" gradientUnits="userSpaceOnUse">
<stop stop-color="#FF9900"/>
<stop offset="1" stop-color="#FCD34F"/>
</linearGradient>
<linearGradient id="paint19_linear_321_969" x1="41.4294" y1="81.8546" x2="41.4359" y2="62.3881" gradientUnits="userSpaceOnUse">
<stop stop-color="#FF9900"/>
<stop offset="1" stop-color="#FCD34F"/>
</linearGradient>
<linearGradient id="paint20_linear_321_969" x1="14.3086" y1="62.0357" x2="13.8597" y2="50.1202" gradientUnits="userSpaceOnUse">
<stop stop-color="#FF9900"/>
<stop offset="1" stop-color="#FCD34F"/>
</linearGradient>
<linearGradient id="paint21_linear_321_969" x1="21.8866" y1="74.7415" x2="21.8834" y2="65.5438" gradientUnits="userSpaceOnUse">
<stop stop-color="#FF9900"/>
<stop offset="1" stop-color="#FCD34F"/>
</linearGradient>
<linearGradient id="paint22_linear_321_969" x1="33.5635" y1="86.2808" x2="33.566" y2="78.2392" gradientUnits="userSpaceOnUse">
<stop stop-color="#FF9900"/>
<stop offset="1" stop-color="#FCD34F"/>
</linearGradient>
<linearGradient id="paint23_linear_321_969" x1="17.1646" y1="38.381" x2="17.1646" y2="18.4944" gradientUnits="userSpaceOnUse">
<stop stop-color="#FF9900"/>
<stop offset="1" stop-color="#FCD34F"/>
</linearGradient>
<linearGradient id="paint24_linear_321_969" x1="61.4992" y1="64.4988" x2="61.4992" y2="9.24703" gradientUnits="userSpaceOnUse">
<stop stop-color="#FF9900"/>
<stop offset="0.11" stop-color="#FFA200"/>
<stop offset="0.37" stop-color="#FFB300"/>
<stop offset="0.65" stop-color="#FFBD00"/>
<stop offset="1" stop-color="#FFC100"/>
</linearGradient>
<linearGradient id="paint25_linear_321_969" x1="61.5" y1="54.0994" x2="61.5" y2="24.0701" gradientUnits="userSpaceOnUse">
<stop stop-color="#FFE187"/>
<stop offset="1" stop-color="#FFF8E0"/>
</linearGradient>
<linearGradient id="paint26_linear_321_969" x1="67.9767" y1="23.5402" x2="67.9767" y2="48.4992" gradientUnits="userSpaceOnUse">
<stop stop-color="#FE7E05"/>
<stop offset="1" stop-color="#FEC031"/>
</linearGradient>
</defs>
</svg>
