<svg width="44" height="44" viewBox="0 0 44 44" fill="none" xmlns="http://www.w3.org/2000/svg">
<g clip-path="url(#clip0_357_531)">
<path d="M23.2378 43.5724C23.1592 43.5723 23.0826 43.547 23.0195 43.5001C22.9563 43.4532 22.9099 43.3872 22.8872 43.3119C22.8644 43.2366 22.8664 43.1559 22.893 43.0819C22.9196 43.0079 22.9693 42.9443 23.0347 42.9007L31.3353 37.3735L20.7122 43.5064C20.6296 43.5512 20.533 43.5626 20.4422 43.5383C20.3515 43.5139 20.2735 43.4556 20.2245 43.3754C20.1755 43.2953 20.1591 43.1993 20.1788 43.1074C20.1984 43.0155 20.2526 42.9347 20.3302 42.8816L29.4968 36.9548L18.5841 43.2541C18.5012 43.3005 18.4036 43.3128 18.3118 43.2887C18.22 43.2645 18.1412 43.2056 18.0919 43.1245C18.0426 43.0434 18.0266 42.9463 18.0475 42.8537C18.0683 42.761 18.1242 42.6801 18.2035 42.6279L27.9216 36.4466L16.797 42.8699C16.714 42.9155 16.6167 42.9272 16.5253 42.9027C16.4339 42.8782 16.3555 42.8193 16.3065 42.7383C16.2576 42.6573 16.2418 42.5605 16.2625 42.4682C16.2833 42.3759 16.3389 42.2951 16.4178 42.2429L27.2506 35.3928L15.1653 42.3697C15.0824 42.4161 14.9848 42.4284 14.893 42.4043C14.8012 42.3801 14.7224 42.3212 14.6731 42.2401C14.6238 42.159 14.6078 42.0619 14.6287 41.9693C14.6495 41.8766 14.7054 41.7957 14.7847 41.7435L28.809 32.8063L13.4412 41.6797C13.358 41.7299 13.2582 41.7451 13.1638 41.7218C13.0694 41.6985 12.9881 41.6386 12.9378 41.5554C12.8875 41.4721 12.8724 41.3723 12.8957 41.2779C12.919 41.1835 12.9789 41.1022 13.0621 41.0519L26.9991 32.2666L11.9658 40.9441C11.8825 40.9921 11.7838 41.0055 11.6907 40.9815C11.5977 40.9574 11.5178 40.8977 11.4683 40.8154C11.4188 40.733 11.4036 40.6345 11.426 40.541C11.4484 40.4476 11.5066 40.3667 11.5881 40.3157L25.77 31.4372L10.6634 40.1639C10.5799 40.2139 10.4801 40.2287 10.3857 40.205C10.2914 40.1813 10.2103 40.1212 10.1603 40.0377C10.1103 39.9543 10.0955 39.8544 10.1192 39.7601C10.1428 39.6657 10.203 39.5847 10.2864 39.5347L23.9426 31.0353L9.51057 39.3682C9.42704 39.418 9.32714 39.4326 9.23287 39.4087C9.13859 39.3848 9.05766 39.3245 9.00787 39.241C8.95808 39.1574 8.94351 39.0575 8.96737 38.9633C8.99124 38.869 9.05157 38.7881 9.1351 38.7383L20.6125 31.6726L8.57044 38.6246C8.48719 38.6726 8.38842 38.686 8.29538 38.6619C8.20235 38.6378 8.12249 38.5782 8.07299 38.4958C8.02349 38.4135 8.00831 38.3149 8.03071 38.2215C8.05311 38.128 8.11131 38.0471 8.19277 37.9961L25.212 27.3335L7.4323 37.6001C7.3908 37.6246 7.34488 37.6406 7.29717 37.6474C7.24946 37.6541 7.2009 37.6513 7.15425 37.6393C7.06005 37.6149 6.97937 37.5542 6.92997 37.4703C6.88057 37.3865 6.86649 37.2865 6.89083 37.1923C6.91518 37.0981 6.97594 37.0174 7.05977 36.968L8.47144 36.1181L6.87424 37.0384C6.7908 37.0885 6.69089 37.1034 6.59647 37.0798C6.50206 37.0562 6.42089 36.9961 6.3708 36.9126C6.32072 36.8292 6.30584 36.7293 6.32942 36.6349C6.35301 36.5405 6.41313 36.4593 6.49657 36.4092L23.2276 25.9878L5.9187 35.9795C5.83557 36.0253 5.73792 36.037 5.64629 36.0123C5.55466 35.9876 5.47618 35.9283 5.42737 35.8469C5.37855 35.7655 5.36319 35.6684 5.38453 35.5759C5.40587 35.4834 5.46223 35.4028 5.54177 35.351L22.6086 24.7228L5.04237 34.8641C4.95902 34.9102 4.86101 34.922 4.76908 34.8971C4.67716 34.8722 4.59853 34.8125 4.54983 34.7306C4.50114 34.6488 4.48621 34.5512 4.5082 34.4585C4.53018 34.3659 4.58736 34.2854 4.66764 34.2341L14.6996 28.1174L4.4601 34.0266C4.37706 34.071 4.28013 34.0817 4.18941 34.0565C4.09868 34.0314 4.02111 33.9723 3.97275 33.8915C3.92439 33.8107 3.90897 33.7144 3.92966 33.6226C3.95035 33.5307 4.00558 33.4504 4.0839 33.3981L19.8601 23.6345L3.7759 32.92C3.69255 32.9661 3.59454 32.9779 3.50262 32.953C3.41069 32.9281 3.33206 32.8684 3.28337 32.7866C3.23468 32.7047 3.21974 32.6071 3.24173 32.5145C3.26372 32.4218 3.3209 32.3413 3.40117 32.2901L16.1678 24.4581L3.23617 31.9234C3.15277 31.9688 3.05502 31.98 2.9635 31.9548C2.87197 31.9295 2.79381 31.8698 2.74546 31.788C2.6971 31.7063 2.68232 31.6091 2.70422 31.5167C2.72613 31.4243 2.78301 31.344 2.8629 31.2927L8.4179 27.9319L2.85997 31.1417C2.77662 31.1878 2.67861 31.1996 2.58668 31.1747C2.49476 31.1498 2.41613 31.0901 2.36743 31.0082C2.31874 30.9264 2.30381 30.8288 2.3258 30.7361C2.34778 30.6435 2.40496 30.563 2.48524 30.5117L16.038 22.1723L2.3965 30.049C2.31325 30.097 2.21448 30.1104 2.12145 30.0863C2.02842 30.0622 1.94856 30.0026 1.89906 29.9202C1.84956 29.8379 1.83438 29.7393 1.85678 29.6459C1.87918 29.5524 1.93737 29.4715 2.01884 29.4205L19.4964 18.5049L1.90664 28.6623C1.82339 28.7068 1.72619 28.7174 1.63526 28.6921C1.54434 28.6667 1.46671 28.6073 1.41852 28.5261C1.37033 28.4449 1.3553 28.3483 1.37655 28.2563C1.39781 28.1644 1.45372 28.0841 1.53264 28.0323L9.2935 23.3119L1.63677 27.7295C1.55331 27.7742 1.45579 27.7849 1.36462 27.7593C1.27345 27.7337 1.19571 27.6739 1.14767 27.5923C1.09963 27.5107 1.08501 27.4137 1.10687 27.3216C1.12873 27.2295 1.18539 27.1494 1.26497 27.0981L1.61624 26.8869L1.45784 26.9778C1.3747 27.0236 1.27705 27.0354 1.18542 27.0106C1.09379 26.9859 1.01531 26.9266 0.966498 26.8452C0.917682 26.7638 0.902327 26.6667 0.923663 26.5742C0.944999 26.4817 1.00136 26.4011 1.0809 26.3493L16.3342 16.8571L1.19164 25.5984C1.1081 25.646 1.00921 25.6589 0.916267 25.6343C0.823322 25.6097 0.74376 25.5496 0.694718 25.4669C0.645676 25.3842 0.631079 25.2855 0.65407 25.1922C0.677061 25.0988 0.7358 25.0182 0.817636 24.9677L5.87764 21.8958L1.07137 24.6715C0.987933 24.7216 0.888018 24.7364 0.793606 24.7129C0.699194 24.6893 0.618018 24.6291 0.567936 24.5457C0.517855 24.4623 0.50297 24.3624 0.526555 24.2679C0.550141 24.1735 0.610266 24.0924 0.693703 24.0423L14.5236 15.4329L0.962103 23.262C0.878568 23.3096 0.779678 23.3225 0.686733 23.2979C0.593789 23.2733 0.514227 23.2132 0.465185 23.1305C0.416143 23.0478 0.401546 22.9491 0.424536 22.8558C0.447527 22.7624 0.506267 22.6818 0.588103 22.6313L7.71464 18.2717L0.94157 22.1818C0.858436 22.2276 0.760786 22.2394 0.669154 22.2146C0.577523 22.1899 0.499048 22.1306 0.450232 22.0492C0.401415 21.9678 0.386061 21.8707 0.407396 21.7782C0.428732 21.6857 0.485096 21.6051 0.564636 21.5533L12.595 14.0565L1.00024 20.7533C0.917102 20.7991 0.819453 20.8108 0.727821 20.7861C0.636189 20.7614 0.557715 20.7021 0.508898 20.6207C0.460082 20.5393 0.444727 20.4422 0.466063 20.3497C0.487399 20.2572 0.543763 20.1766 0.623303 20.1248L11.7758 13.1581L1.1557 19.2866C1.07227 19.3366 0.97239 19.3514 0.878047 19.3277C0.783703 19.3041 0.702621 19.2439 0.652636 19.1605C0.602652 19.077 0.58786 18.9772 0.611515 18.8828C0.635169 18.7885 0.695333 18.7074 0.77877 18.6574L9.90877 12.9682L1.4087 17.8749C1.32551 17.9201 1.2281 17.9312 1.13684 17.9062C1.04559 17.8811 0.967549 17.8218 0.919055 17.7405C0.870561 17.6592 0.855365 17.5624 0.876646 17.4702C0.897926 17.3779 0.954035 17.2975 1.03324 17.2457L4.67277 15.0076L1.6815 16.7339C1.59848 16.7813 1.5002 16.7945 1.40763 16.7705C1.31506 16.7465 1.23552 16.6873 1.18597 16.6055C1.13642 16.5237 1.12078 16.4258 1.14239 16.3327C1.164 16.2395 1.22114 16.1585 1.30164 16.1069L10.2483 10.4463L2.19997 15.0912C2.11689 15.1378 2.01896 15.1502 1.9269 15.1258C1.83484 15.1014 1.75588 15.0422 1.70671 14.9606C1.65755 14.8791 1.64205 14.7816 1.66348 14.6888C1.68492 14.596 1.74161 14.5152 1.82157 14.4635L7.1353 11.1305L2.79397 13.6399C2.71156 13.6868 2.61419 13.7 2.5223 13.6766C2.43042 13.6532 2.35115 13.5952 2.30115 13.5146C2.25115 13.434 2.23429 13.3373 2.25412 13.2445C2.27395 13.1518 2.32893 13.0704 2.4075 13.0173L11.6086 6.89767L4.0333 11.2705C3.95077 11.316 3.85391 11.3279 3.76281 11.3039C3.67171 11.2798 3.59337 11.2216 3.54403 11.1413C3.4947 11.0611 3.47816 10.9649 3.49785 10.8727C3.51754 10.7806 3.57194 10.6996 3.64977 10.6465L7.74544 7.97274L5.3599 9.35067C5.27925 9.39726 5.18389 9.41141 5.09319 9.39025C5.00248 9.36909 4.92323 9.3142 4.87153 9.23673C4.81982 9.15926 4.79953 9.06502 4.81478 8.97314C4.83003 8.88126 4.87968 8.79862 4.95364 8.74201L9.20697 5.48601C9.12122 5.51995 9.02582 5.52032 8.9398 5.48706C8.85378 5.4538 8.78345 5.38935 8.74284 5.30654C8.70222 5.22374 8.69431 5.12867 8.72066 5.04029C8.74701 4.95191 8.80571 4.87671 8.88504 4.82967L13.7221 2.03861C13.8028 1.99202 13.8981 1.97787 13.9888 1.99903C14.0795 2.02019 14.1588 2.07508 14.2105 2.15255C14.2622 2.23002 14.2825 2.32426 14.2672 2.41614C14.252 2.50803 14.2023 2.59066 14.1284 2.64727L9.8941 5.88567L18.9992 0.629141C19.082 0.578184 19.1817 0.562228 19.2763 0.584782C19.371 0.607336 19.4527 0.666554 19.5037 0.749408C19.5547 0.832261 19.5706 0.931964 19.5481 1.02658C19.5255 1.1212 19.4663 1.20298 19.3834 1.25394L15.2826 3.92987L21.3092 0.450941C21.3915 0.405483 21.4882 0.393407 21.5792 0.41721C21.6702 0.441013 21.7485 0.498875 21.7981 0.57883C21.8476 0.658786 21.8645 0.754721 21.8453 0.846798C21.8261 0.938874 21.7723 1.02005 21.6949 1.07354L12.4952 7.18661L23.9917 0.552141C24.0747 0.507187 24.1718 0.495964 24.2629 0.520807C24.3539 0.54565 24.4319 0.604646 24.4805 0.685517C24.5292 0.766389 24.5448 0.862907 24.5241 0.954987C24.5034 1.04707 24.448 1.12762 24.3694 1.17987L19.0703 4.50627L25.5478 0.766274C25.6308 0.720671 25.7281 0.708898 25.8195 0.733419C25.9109 0.757939 25.9893 0.816853 26.0383 0.897838C26.0873 0.978823 26.103 1.07561 26.0823 1.16794C26.0615 1.26028 26.0059 1.34102 25.927 1.39327L16.973 7.05901L27.2294 1.13807C27.3126 1.09296 27.41 1.08177 27.5012 1.10682C27.5925 1.13188 27.6705 1.19125 27.719 1.27251C27.7675 1.35378 27.7827 1.45064 27.7614 1.54286C27.7402 1.63507 27.684 1.71548 27.6048 1.76727L23.9726 4.00101L28.3638 1.46661C28.447 1.42082 28.5446 1.40905 28.6363 1.43378C28.7279 1.4585 28.8064 1.5178 28.8552 1.59919C28.904 1.68058 28.9193 1.77773 28.898 1.87021C28.8767 1.96269 28.8203 2.0433 28.7408 2.09507L19.6071 7.78647L29.7066 1.95647C29.7895 1.91275 29.886 1.90243 29.9763 1.92764C30.0665 1.95286 30.1437 2.01168 30.192 2.09204C30.2402 2.1724 30.2559 2.26818 30.2357 2.35971C30.2155 2.45125 30.1611 2.53158 30.0835 2.58421L18.9236 9.55527L31.0596 2.54974C31.1427 2.50395 31.2404 2.49219 31.332 2.51691C31.4236 2.54164 31.5021 2.60093 31.5509 2.68232C31.5997 2.76371 31.6151 2.86086 31.5937 2.95334C31.5724 3.04582 31.516 3.12643 31.4365 3.17821L19.4157 10.6699L32.3224 3.21927C32.4057 3.17319 32.5037 3.16135 32.5957 3.18625C32.6876 3.21116 32.7662 3.27085 32.8149 3.3527C32.8636 3.43456 32.8785 3.53214 32.8565 3.62481C32.8346 3.71748 32.7774 3.79795 32.6971 3.84921L25.5588 8.21327L33.2449 3.77734C33.3283 3.72726 33.4283 3.71237 33.5227 3.73596C33.6171 3.75955 33.6983 3.81967 33.7483 3.90311C33.7984 3.98654 33.8133 4.08646 33.7897 4.18087C33.7661 4.27528 33.706 4.35646 33.6226 4.40654L19.7948 13.0144L34.4116 4.57594C34.4954 4.52635 34.5954 4.51204 34.6896 4.53618C34.7839 4.56031 34.8647 4.62091 34.9143 4.70464C34.9639 4.78837 34.9782 4.88837 34.9541 4.98265C34.93 5.07692 34.8694 5.15775 34.7856 5.20734L29.7315 8.27414L35.1494 5.14721C35.2325 5.10142 35.3302 5.08965 35.4218 5.11438C35.5134 5.1391 35.5919 5.1984 35.6407 5.27979C35.6895 5.36118 35.7049 5.45833 35.6835 5.55081C35.6622 5.64329 35.6058 5.7239 35.5263 5.77567L20.2766 15.2657L36.2142 6.06534C36.2978 6.01878 36.3962 6.00674 36.4886 6.03177C36.5809 6.05681 36.6598 6.11694 36.7084 6.19934C36.757 6.28174 36.7715 6.37987 36.7488 6.4728C36.726 6.56573 36.6679 6.6461 36.5867 6.69674L36.22 6.91674L36.7737 6.59994C36.8569 6.55667 36.9534 6.54689 37.0436 6.57263C37.1337 6.59836 37.2106 6.65764 37.2584 6.73829C37.3062 6.81894 37.3213 6.91484 37.3005 7.00627C37.2798 7.09769 37.2249 7.17771 37.147 7.22987L29.3795 11.9533L37.4462 7.29661C37.5293 7.25082 37.627 7.23905 37.7186 7.26378C37.8102 7.2885 37.8887 7.3478 37.9375 7.42919C37.9863 7.51058 38.0017 7.60773 37.9804 7.70021C37.959 7.79269 37.9026 7.8733 37.8231 7.92507L20.3514 18.8356L38.4024 8.41421C38.4856 8.3691 38.583 8.3579 38.6743 8.38296C38.7656 8.40801 38.8436 8.46738 38.8921 8.54864C38.9406 8.62991 38.9558 8.72678 38.9345 8.81899C38.9132 8.9112 38.8571 8.99161 38.7779 9.04341L25.2325 17.3799L39.1174 9.36094C39.2008 9.31558 39.2986 9.30435 39.3901 9.32959C39.4816 9.35484 39.5598 9.4146 39.6082 9.4963C39.6565 9.578 39.6713 9.67528 39.6494 9.76766C39.6275 9.86003 39.5706 9.94032 39.4907 9.99161L33.9313 13.3554L39.608 10.0774C39.6914 10.0313 39.7894 10.0195 39.8813 10.0444C39.9733 10.0693 40.0519 10.129 40.1006 10.2108C40.1493 10.2927 40.1642 10.3903 40.1422 10.4829C40.1202 10.5756 40.063 10.6561 39.9828 10.7073L27.2066 18.5467L40.202 11.0432C40.2851 10.9989 40.382 10.9881 40.4727 11.0133C40.5635 11.0384 40.641 11.0975 40.6894 11.1783C40.7378 11.2591 40.7532 11.3554 40.7325 11.4472C40.7118 11.5391 40.6566 11.6194 40.5782 11.6717L24.7925 21.4433L40.8217 12.1894C40.9051 12.1433 41.0031 12.1315 41.095 12.1564C41.1869 12.1813 41.2656 12.241 41.3142 12.3228C41.3629 12.4047 41.3779 12.5023 41.3559 12.5949C41.3339 12.6876 41.2767 12.7681 41.1964 12.8193L31.1666 18.9353L41.2558 13.1112C41.339 13.0654 41.4366 13.0537 41.5283 13.0784C41.6199 13.1031 41.6984 13.1624 41.7472 13.2438C41.796 13.3252 41.8114 13.4223 41.79 13.5148C41.7687 13.6073 41.7123 13.6879 41.6328 13.7397L24.5747 24.3627L41.7875 14.4246C41.8708 14.3766 41.9695 14.3632 42.0626 14.3873C42.1556 14.4114 42.2355 14.471 42.285 14.5534C42.3344 14.6358 42.3496 14.7343 42.3272 14.8277C42.3048 14.9212 42.2466 15.0021 42.1652 15.0531L25.4349 25.4752L42.2282 15.782C42.3121 15.7326 42.4121 15.7185 42.5063 15.7429C42.6005 15.7672 42.6812 15.828 42.7306 15.9118C42.78 15.9956 42.7941 16.0957 42.7697 16.1899C42.7454 16.2841 42.6846 16.3647 42.6008 16.4141L41.1715 17.2751L42.4358 16.5454C42.5189 16.4989 42.6168 16.4865 42.7088 16.5108C42.8009 16.5352 42.8799 16.5944 42.929 16.676C42.9782 16.7575 42.9937 16.855 42.9723 16.9478C42.9508 17.0406 42.8941 17.1214 42.8142 17.1731L25.7891 27.8373L42.7452 18.048C42.7866 18.0234 42.8324 18.0071 42.8801 18.0001C42.9277 17.9932 42.9763 17.9957 43.0229 18.0075C43.0696 18.0193 43.1135 18.0402 43.1521 18.069C43.1907 18.0978 43.2233 18.1339 43.2479 18.1752C43.2726 18.2166 43.2889 18.2624 43.2958 18.3101C43.3028 18.3577 43.3003 18.4063 43.2884 18.4529C43.2766 18.4996 43.2557 18.5435 43.227 18.5821C43.1982 18.6207 43.1621 18.6533 43.1207 18.6779L31.6492 25.7399L42.9161 19.2345C42.9574 19.2098 43.0032 19.1934 43.0508 19.1864C43.0985 19.1793 43.1471 19.1817 43.1938 19.1934C43.2405 19.2051 43.2844 19.2259 43.3231 19.2546C43.3618 19.2833 43.3944 19.3194 43.4192 19.3607C43.4439 19.402 43.4603 19.4478 43.4674 19.4954C43.4744 19.5431 43.472 19.5916 43.4603 19.6383C43.4486 19.685 43.4278 19.729 43.3991 19.7677C43.3704 19.8063 43.3344 19.839 43.293 19.8637L29.6369 28.3579L43.0349 20.6227C43.1182 20.5747 43.2169 20.5613 43.31 20.5854C43.403 20.6095 43.4829 20.6691 43.5324 20.7515C43.5819 20.8339 43.597 20.9324 43.5746 21.0259C43.5522 21.1193 43.494 21.2002 43.4126 21.2512L29.2314 30.1341L43.0503 22.1561C43.1332 22.1105 43.2306 22.0988 43.322 22.1233C43.4134 22.1478 43.4918 22.2067 43.5408 22.2877C43.5897 22.3687 43.6055 22.4655 43.5847 22.5578C43.564 22.6501 43.5083 22.7309 43.4294 22.7831L29.4961 31.5633L42.955 23.79C42.9961 23.765 43.0418 23.7484 43.0894 23.741C43.137 23.7337 43.1856 23.7358 43.2324 23.7473C43.2792 23.7587 43.3232 23.7793 43.3621 23.8077C43.4009 23.8362 43.4338 23.872 43.4588 23.9132C43.4838 23.9544 43.5004 24.0001 43.5077 24.0477C43.5151 24.0953 43.513 24.1438 43.5015 24.1906C43.4901 24.2374 43.4695 24.2815 43.4411 24.3203C43.4126 24.3592 43.3767 24.392 43.3356 24.417L29.3106 33.3563L42.6924 25.6307C42.7757 25.5804 42.8755 25.5652 42.9699 25.5886C43.0643 25.6119 43.1456 25.6717 43.1959 25.755C43.2462 25.8382 43.2613 25.938 43.238 26.0324C43.2147 26.1268 43.1548 26.2081 43.0716 26.2584L32.2417 33.1048L42.3133 27.2909C42.3962 27.2446 42.4938 27.2322 42.5856 27.2564C42.6774 27.2806 42.7562 27.3394 42.8056 27.4206C42.8549 27.5017 42.8708 27.5988 42.8499 27.6914C42.8291 27.784 42.7732 27.865 42.6939 27.9172L32.9714 34.0999L41.7538 29.0297C41.8364 28.9835 41.9338 28.9711 42.0254 28.995C42.117 29.019 42.1958 29.0775 42.2453 29.1582C42.2947 29.239 42.3111 29.3357 42.2908 29.4282C42.2705 29.5207 42.2153 29.6018 42.1366 29.6545L32.9699 35.5813L40.9126 30.9979C40.9949 30.9531 41.0911 30.9413 41.1817 30.9652C41.2723 30.989 41.3503 31.0467 41.3998 31.1262C41.4492 31.2058 41.4663 31.3013 41.4476 31.393C41.4289 31.4848 41.3758 31.566 41.2991 31.6198L33 37.1477L39.5655 33.3571C39.6479 33.3102 39.7453 33.2971 39.8372 33.3204C39.9291 33.3438 40.0083 33.4019 40.0583 33.4824C40.1083 33.563 40.1252 33.6598 40.1054 33.7525C40.0855 33.8452 40.0306 33.9266 39.952 33.9797L35.7793 36.7539L37.9463 35.5028C38.0285 35.4551 38.1259 35.4412 38.2182 35.4639C38.3104 35.4867 38.3902 35.5443 38.4408 35.6247C38.4913 35.7052 38.5087 35.8021 38.4893 35.895C38.4698 35.988 38.415 36.0698 38.3364 36.1232L35.9758 37.7365C36.0445 37.757 36.1057 37.797 36.1518 37.8518C36.198 37.9066 36.227 37.9737 36.2355 38.0449C36.2439 38.116 36.2313 38.1881 36.1992 38.2521C36.1672 38.3162 36.117 38.3695 36.055 38.4053L29.1522 42.3866C29.07 42.4343 28.9726 42.4482 28.8803 42.4255C28.7881 42.4027 28.7083 42.3451 28.6577 42.2647C28.6072 42.1843 28.5898 42.0874 28.6092 41.9944C28.6287 41.9014 28.6835 41.8196 28.762 41.7662L29.862 41.0145L26.078 43.1984C25.9959 43.2423 25.9001 43.2532 25.8102 43.229C25.7203 43.2048 25.6429 43.1473 25.5938 43.0682C25.5447 42.9891 25.5276 42.8942 25.5459 42.8029C25.5642 42.7116 25.6165 42.6307 25.6923 42.5765L29.8657 39.8016L23.4212 43.5233C23.3655 43.5557 23.3022 43.5726 23.2378 43.5724Z" fill="#F74850"/>
<path d="M27.5542 30.9615C27.4827 30.9614 27.4127 30.9404 27.353 30.901C27.2933 30.8616 27.2464 30.8056 27.2181 30.7399C27.1898 30.6742 27.1813 30.6016 27.1937 30.5311C27.2062 30.4607 27.239 30.3954 27.288 30.3433L28.5303 29.0233L26.8143 30.0141C26.7368 30.06 26.6451 30.0758 26.5567 30.0585C26.4683 30.0412 26.3894 29.9919 26.335 29.9201C26.2806 29.8483 26.2546 29.759 26.2618 29.6692C26.2691 29.5794 26.3091 29.4954 26.3743 29.4333L27.3533 28.4931L26.0458 29.2477C25.967 29.2927 25.8744 29.3069 25.7858 29.2876C25.6973 29.2682 25.619 29.2168 25.5661 29.1431C25.5132 29.0695 25.4895 28.9788 25.4996 28.8887C25.5096 28.7986 25.5527 28.7154 25.6204 28.6552L26.1052 28.2284L25.4188 28.6244C25.3403 28.6718 25.2469 28.688 25.1571 28.67C25.0672 28.6519 24.9874 28.6009 24.9333 28.5269C24.8798 28.4536 24.8554 28.3632 24.8648 28.273C24.8741 28.1828 24.9166 28.0992 24.9839 28.0385L25.619 27.4672L24.75 27.9688C24.6751 28.0121 24.5873 28.0274 24.5021 28.0122C24.4169 27.997 24.3399 27.9522 24.2846 27.8856C24.2293 27.8191 24.1993 27.7352 24.1999 27.6487C24.2006 27.5622 24.2317 27.4787 24.288 27.4129L25.7268 25.7336L23.6866 26.9077C23.6074 26.9536 23.5138 26.9682 23.4243 26.9486C23.3349 26.9289 23.256 26.8766 23.2032 26.8017C23.1504 26.7268 23.1276 26.6349 23.1391 26.5441C23.1507 26.4532 23.1958 26.37 23.2657 26.3107L23.4798 26.1296L23.1132 26.3401C23.0361 26.3829 22.9463 26.3965 22.86 26.3785C22.7738 26.3605 22.6969 26.312 22.6435 26.2419C22.59 26.1718 22.5636 26.0848 22.5691 25.9969C22.5745 25.9089 22.6115 25.8259 22.6732 25.7629L23.76 24.6886L22.3043 25.529C22.2626 25.5535 22.2164 25.5694 22.1685 25.576C22.1206 25.5825 22.0719 25.5795 22.0251 25.5672C21.9784 25.5548 21.9346 25.5333 21.8961 25.504C21.8577 25.4746 21.8255 25.4379 21.8013 25.396C21.7771 25.3542 21.7615 25.3079 21.7553 25.26C21.749 25.212 21.7523 25.1633 21.765 25.1166C21.7777 25.07 21.7995 25.0263 21.8291 24.988C21.8587 24.9498 21.8956 24.9178 21.9376 24.8939L25.8397 22.6419C25.9167 22.5991 26.0066 22.5854 26.0929 22.6035C26.1791 22.6215 26.256 22.67 26.3094 22.7401C26.3628 22.8101 26.3892 22.8971 26.3838 22.9851C26.3783 23.073 26.3414 23.1561 26.2797 23.219L25.1973 24.2933L26.6508 23.4544C26.7301 23.4083 26.8239 23.3936 26.9135 23.4133C27.0031 23.4329 27.0822 23.4855 27.1349 23.5606C27.1877 23.6356 27.2104 23.7278 27.1986 23.8188C27.1867 23.9098 27.1412 23.993 27.071 24.0521L26.8598 24.2303L27.2191 24.0235C27.294 23.9802 27.3818 23.9648 27.467 23.98C27.5521 23.9953 27.6292 24.0401 27.6845 24.1066C27.7397 24.1732 27.7697 24.2571 27.7691 24.3436C27.7685 24.4301 27.7373 24.5136 27.6811 24.5793L26.2423 26.2594L28.2788 25.0861C28.3568 25.0437 28.4475 25.0311 28.5341 25.0505C28.6208 25.07 28.6974 25.1202 28.7498 25.1918C28.8022 25.2635 28.8268 25.3517 28.8191 25.4402C28.8114 25.5286 28.7718 25.6112 28.7078 25.6727L28.0749 26.2411L28.9395 25.7424C29.0182 25.6975 29.1108 25.6833 29.1994 25.7026C29.288 25.7219 29.3663 25.7734 29.4192 25.847C29.472 25.9207 29.4958 26.0113 29.4857 26.1014C29.4757 26.1915 29.4326 26.2747 29.3648 26.3349L28.8764 26.7647L29.5643 26.3679C29.6418 26.322 29.7335 26.3062 29.8219 26.3235C29.9103 26.3408 29.9892 26.3901 30.0436 26.4619C30.098 26.5337 30.124 26.623 30.1168 26.7128C30.1096 26.8026 30.0695 26.8866 30.0043 26.9487L29.0304 27.8896L30.3314 27.1394C30.4075 27.0958 30.4968 27.081 30.5829 27.0976C30.6691 27.1142 30.7464 27.1612 30.8009 27.2299C30.8554 27.2987 30.8834 27.3847 30.8799 27.4724C30.8763 27.5601 30.8415 27.6436 30.7816 27.7077L29.535 29.0277L30.1502 28.6728C30.192 28.6463 30.2386 28.6285 30.2874 28.6204C30.3362 28.6124 30.3861 28.6143 30.4342 28.6261C30.4822 28.6379 30.5274 28.6592 30.5669 28.6889C30.6065 28.7186 30.6396 28.7559 30.6644 28.7987C30.6891 28.8416 30.705 28.8889 30.7109 28.938C30.7169 28.9871 30.7129 29.0369 30.6991 29.0844C30.6853 29.1319 30.6621 29.1761 30.6308 29.2144C30.5995 29.2527 30.5607 29.2842 30.5169 29.3071L27.7354 30.9124C27.6804 30.9445 27.6179 30.9615 27.5542 30.9615Z" fill="white"/>
<path d="M24.3987 16.9067C24.3239 16.9068 24.2508 16.8841 24.1893 16.8415C24.1278 16.7989 24.0809 16.7385 24.0547 16.6684C24.0285 16.5983 24.0244 16.5219 24.0429 16.4494C24.0614 16.3769 24.1016 16.3118 24.1582 16.2629L26.6735 14.0871C26.6346 14.0042 26.6281 13.9099 26.6552 13.8225C26.6824 13.7351 26.7412 13.661 26.8202 13.6148L28.0412 12.9101C28.1201 12.8647 28.2132 12.8503 28.3022 12.8698C28.3912 12.8893 28.4698 12.9412 28.5226 13.0154C28.5754 13.0897 28.5987 13.1809 28.5879 13.2714C28.5771 13.3618 28.5331 13.4451 28.4643 13.5048L27.5528 14.2939L28.9461 13.4872C29.0299 13.4434 29.1274 13.4336 29.2182 13.46C29.309 13.4863 29.3862 13.5467 29.4335 13.6286C29.4808 13.7105 29.4947 13.8075 29.4722 13.8993C29.4497 13.9912 29.3926 14.0708 29.3128 14.1215L24.5798 16.8539C24.5251 16.887 24.4626 16.9052 24.3987 16.9067Z" fill="white"/>
<path d="M15.2878 30.9582C15.2114 30.9584 15.1368 30.9347 15.0745 30.8904C15.0122 30.8462 14.9653 30.7836 14.9404 30.7113C14.9154 30.6391 14.9136 30.5609 14.9353 30.4876C14.957 30.4143 15.001 30.3497 15.0612 30.3026L16.5513 29.1293L14.726 30.1824C14.6436 30.2272 14.5472 30.2387 14.4565 30.2146C14.3659 30.1905 14.2879 30.1326 14.2387 30.0527C14.1894 29.9728 14.1727 29.8772 14.1919 29.7853C14.211 29.6935 14.2647 29.6125 14.3418 29.559L14.6498 29.3566L14.1738 29.6309C14.0919 29.6771 13.9954 29.6901 13.9042 29.6672C13.8129 29.6443 13.734 29.5871 13.6837 29.5077C13.6334 29.4282 13.6156 29.3324 13.6339 29.2401C13.6523 29.1479 13.7054 29.0662 13.7822 29.012L18.6435 25.6496L13.4302 28.6563C13.3476 28.7025 13.2502 28.7149 13.1586 28.6909C13.067 28.667 12.9882 28.6085 12.9387 28.5278C12.8893 28.447 12.873 28.3503 12.8932 28.2577C12.9135 28.1652 12.9687 28.0842 13.0474 28.0315L17.1798 25.3431L14.5933 26.8406C14.5112 26.8882 14.4137 26.9022 14.3215 26.8794C14.2292 26.8567 14.1494 26.799 14.0989 26.7186C14.0483 26.6382 14.0309 26.5413 14.0504 26.4483C14.0698 26.3553 14.1246 26.2735 14.2032 26.2202L22.1672 20.814L18.455 22.9568C18.3731 23.0045 18.2758 23.0186 18.1837 22.9961C18.0915 22.9736 18.0117 22.9163 17.9609 22.8362C17.9102 22.7561 17.8924 22.6595 17.9114 22.5665C17.9304 22.4736 17.9846 22.3917 18.0627 22.3379L22.3615 19.3606L18.433 21.6288C18.3545 21.6735 18.2622 21.6876 18.1738 21.6684C18.0855 21.6492 18.0074 21.598 17.9544 21.5247C17.9015 21.4514 17.8775 21.3612 17.8871 21.2713C17.8967 21.1814 17.9391 21.0982 18.0062 21.0377L18.5621 20.5442L17.7928 20.9878C17.7149 21.0297 17.6244 21.0419 17.5381 21.0223C17.4518 21.0026 17.3755 20.9524 17.3233 20.8809C17.2711 20.8094 17.2466 20.7215 17.2542 20.6333C17.2617 20.5451 17.301 20.4627 17.3646 20.4012L17.9894 19.8402L17.1343 20.3337C17.0553 20.3791 16.9623 20.3934 16.8732 20.374C16.7842 20.3545 16.7057 20.3026 16.6529 20.2283C16.6 20.1541 16.5768 20.0629 16.5875 19.9724C16.5983 19.8819 16.6424 19.7987 16.7112 19.739L17.0778 19.4207L16.5337 19.7346C16.4549 19.779 16.3625 19.7927 16.2742 19.7731C16.1859 19.7535 16.1079 19.7019 16.0553 19.6283C16.0028 19.5547 15.9792 19.4642 15.9893 19.3743C15.9994 19.2844 16.0423 19.2014 16.1098 19.1413L16.5366 18.7695L15.9228 19.123C15.8474 19.1661 15.759 19.181 15.6736 19.165C15.5881 19.149 15.5111 19.1032 15.4563 19.0357C15.4016 18.9682 15.3725 18.8835 15.3744 18.7966C15.3763 18.7097 15.409 18.6262 15.4667 18.5612L16.8336 17.0352L14.9314 18.1352C14.8545 18.1795 14.7642 18.1944 14.6772 18.1772C14.5902 18.1601 14.5124 18.1119 14.4581 18.0418C14.4039 17.9716 14.3769 17.8841 14.3822 17.7956C14.3875 17.707 14.4247 17.6234 14.487 17.5602L15.6354 16.3928L14.0844 17.2874C14.0093 17.3302 13.9216 17.3451 13.8367 17.3295C13.7517 17.3139 13.675 17.2688 13.62 17.2022C13.5651 17.1356 13.5354 17.0517 13.5362 16.9653C13.537 16.8789 13.5683 16.7956 13.6246 16.7301L15.0333 15.1072L13.42 16.0393C13.3419 16.0834 13.2504 16.0973 13.1627 16.0785C13.075 16.0597 12.9973 16.0094 12.9442 15.9372C12.8911 15.8649 12.8663 15.7757 12.8745 15.6864C12.8827 15.5972 12.9234 15.514 12.9888 15.4526L14.4349 14.1326L14.4261 14.1172C14.3775 14.033 14.3643 13.9329 14.3895 13.839C14.4146 13.7451 14.4761 13.665 14.5603 13.6164L15.7813 12.9116C15.8594 12.8681 15.9506 12.8546 16.0379 12.8736C16.1252 12.8927 16.2026 12.9429 16.2554 13.015C16.3083 13.087 16.333 13.1759 16.325 13.2649C16.317 13.3539 16.2767 13.4369 16.2118 13.4983L15.961 13.7286L16.5726 13.3751C16.6477 13.3319 16.7357 13.3167 16.821 13.3322C16.9062 13.3477 16.9832 13.3929 17.0383 13.4598C17.0934 13.5267 17.1231 13.6109 17.122 13.6976C17.1209 13.7842 17.0891 13.8677 17.0324 13.9332L15.6258 15.5465L17.6058 14.4032C17.6826 14.3595 17.7726 14.3449 17.8592 14.3622C17.9458 14.3795 18.0233 14.4275 18.0773 14.4974C18.1314 14.5672 18.1584 14.6543 18.1535 14.7425C18.1485 14.8307 18.1118 14.9141 18.0502 14.9774L16.9011 16.1464L18.4565 15.2488C18.5321 15.2052 18.6207 15.19 18.7065 15.2058C18.7922 15.2217 18.8695 15.2677 18.9245 15.3354C18.9794 15.4032 19.0084 15.4883 19.0063 15.5755C19.0041 15.6627 18.9709 15.7463 18.9126 15.8112L17.5464 17.3366L19.4531 16.2366C19.5319 16.1915 19.6247 16.1772 19.7134 16.1966C19.8021 16.216 19.8805 16.2676 19.9334 16.3414C19.9862 16.4153 20.0098 16.5061 19.9995 16.5963C19.9892 16.6866 19.9458 16.7698 19.8777 16.8298L19.4509 17.2024L20.0669 16.8467C20.1458 16.8021 20.2384 16.7884 20.3268 16.8081C20.4153 16.8277 20.4933 16.8794 20.5458 16.9532C20.5984 17.027 20.6218 17.1177 20.6115 17.2077C20.6012 17.2977 20.5579 17.3807 20.49 17.4407L20.1234 17.7612L20.6719 17.4444C20.7499 17.4025 20.8404 17.3903 20.9267 17.4099C21.013 17.4296 21.0893 17.4798 21.1414 17.5513C21.1936 17.6227 21.2182 17.7107 21.2106 17.7989C21.203 17.887 21.1638 17.9695 21.1002 18.031L20.4746 18.592L21.3319 18.0978C21.4105 18.0531 21.5028 18.0389 21.5911 18.0582C21.6795 18.0774 21.7576 18.1285 21.8105 18.2018C21.8634 18.2751 21.8874 18.3653 21.8778 18.4552C21.8683 18.5451 21.8259 18.6283 21.7587 18.6888L21.2028 19.1824L29.7293 14.2595C29.8113 14.2118 29.9085 14.1977 30.0007 14.2202C30.0928 14.2427 30.1726 14.3 30.2234 14.3801C30.2742 14.4602 30.292 14.5569 30.273 14.6498C30.254 14.7427 30.1998 14.8246 30.1216 14.8784L25.8133 17.8631L30.5103 15.1498C30.5927 15.098 30.6922 15.0811 30.787 15.1028C30.8819 15.1244 30.9642 15.1829 31.0159 15.2653C31.0677 15.3476 31.0846 15.4472 31.0629 15.542C31.0413 15.6368 30.9828 15.7192 30.9004 15.7709L22.9386 21.1756L28.7466 17.8228C28.8292 17.7773 28.926 17.7654 29.0171 17.7894C29.1082 17.8135 29.1866 17.8717 29.2359 17.952C29.2852 18.0322 29.3018 18.1284 29.2821 18.2206C29.2624 18.3127 29.208 18.3937 29.1302 18.4468L25.0066 21.1323L26.0663 20.5207C26.1482 20.4744 26.2448 20.4614 26.336 20.4844C26.4272 20.5073 26.5062 20.5644 26.5564 20.6439C26.6067 20.7234 26.6246 20.8192 26.6062 20.9115C26.5879 21.0037 26.5348 21.0854 26.4579 21.1396L21.5937 24.5049L25.4664 22.269C25.5491 22.222 25.6467 22.2089 25.7387 22.2325C25.8308 22.2561 25.9101 22.3145 25.9599 22.3955C26.0097 22.4764 26.0262 22.5735 26.0058 22.6663C25.9854 22.7591 25.9298 22.8404 25.8507 22.893L21.098 26.009C21.1064 26.0188 21.1142 26.0291 21.1214 26.0398C21.1735 26.1167 21.1944 26.2105 21.18 26.3022C21.1656 26.394 21.1169 26.4768 21.0437 26.534L18.3091 28.6827C18.3572 28.7192 18.3956 28.7671 18.4207 28.822C18.4459 28.877 18.4571 28.9373 18.4533 28.9976C18.4495 29.0579 18.4309 29.1164 18.3991 29.1677C18.3673 29.2191 18.3233 29.2618 18.271 29.2921L15.4711 30.9054C15.4158 30.9391 15.3525 30.9574 15.2878 30.9582Z" fill="white"/>
<path d="M29.0547 25.2586L25.7041 21.908C27.0109 19.6845 33.5508 16.7079 30.2302 14.1713C27.313 10.4247 24.4332 16.7094 22.0902 18.2956C19.8 16.8715 17.3324 10.9997 14.391 13.7328C9.8729 16.5737 16.6122 19.5459 18.296 22.0928C16.9892 24.3163 10.4493 27.2929 13.7698 29.8295C16.687 33.5761 19.5632 27.2914 21.9098 25.7052C23.7857 27.4175 25.3968 29.5259 27.4274 31.0233C29.0408 31.4428 30.4114 29.6197 31.2408 28.4794C31.6316 27.0333 29.7858 26.2691 29.0547 25.2586ZM29.593 29.2435C29.1808 29.6557 28.5663 30.6999 27.896 30.2863C26.0847 28.5219 24.3071 26.6659 22.4928 24.8831C20.3845 24.1813 16.6394 32.6565 14.9322 29.5845C13.6855 28.6583 13.3188 27.6126 14.7723 26.6512C16.2932 25.1312 17.8139 23.6106 19.3344 22.0891C19.3072 21.1109 17.6059 20.2771 16.9943 19.3817C16.085 18.0617 12.5136 16.4388 14.4071 14.7536C15.2328 13.5803 16.0681 13.196 16.9452 14.5527C18.5871 15.5874 20.5598 19.5291 22.4268 18.9974C24.0292 18.0697 27.7611 11.7807 29.0679 14.4119C32.5278 16.5517 25.8984 19.8187 24.6679 21.9058C24.8534 23.9797 31.9631 27.023 29.593 29.2435Z" fill="#262626"/>
<path d="M29.4616 1.66076C-6.21796 -7.9789 -10.7016 47.6466 26.2401 43.141C47.4085 39.3064 49.9334 8.62156 29.4616 1.66076ZM42.735 22.0621C39.9666 57.6288 -11.341 42.8448 4.15504 11.2506C14.4818 -6.93317 43.0686 1.40336 42.7342 22.0621H42.735Z" fill="#262626"/>
</g>
<defs>
<clipPath id="clip0_357_531">
<rect width="44" height="44" fill="white"/>
</clipPath>
</defs>
</svg>
