<svg width="75" height="76" viewBox="0 0 75 76" fill="none" xmlns="http://www.w3.org/2000/svg">
<path d="M39.4975 74.6802C39.2888 74.6802 39.0838 74.5752 38.9663 74.3852C38.7875 74.0977 38.8713 73.7215 39.1513 73.534L52.8063 64.4852L35.35 74.5627C35.0563 74.734 34.6813 74.639 34.5038 74.3477C34.3263 74.0565 34.4138 73.6802 34.6988 73.4965L49.3925 64.0352L31.8588 74.159C31.5638 74.3315 31.1875 74.2352 31.0113 73.9415C30.835 73.6515 30.9238 73.2727 31.21 73.0902L47.0963 62.999L28.8563 73.5302C28.5625 73.704 28.185 73.604 28.0075 73.3114C27.8313 73.0202 27.9238 72.6402 28.2113 72.459L42.9975 63.2027L26.3675 72.804C26.0738 72.9765 25.6975 72.879 25.52 72.5865C25.3438 72.2965 25.4325 71.9177 25.7188 71.7352L48.6075 57.174L23.46 71.6927C23.1663 71.8652 22.7888 71.7677 22.6125 71.4752C22.4363 71.1852 22.525 70.8065 22.8125 70.624L48.0375 54.6227L20.7413 70.3802C20.4438 70.5515 20.065 70.4527 19.8913 70.1577C19.7163 69.864 19.8113 69.4827 20.1038 69.3052L26.9738 65.124L19.2913 69.559C18.995 69.7302 18.6175 69.6315 18.4425 69.3402C18.2663 69.0477 18.3588 68.6677 18.6475 68.4877L42.1338 53.8377L17.2175 68.2227C16.9213 68.3952 16.5438 68.2965 16.3675 68.0015C16.1925 67.7077 16.2875 67.3265 16.5788 67.1477L31.02 58.3152L15.7363 67.139C15.4375 67.3115 15.06 67.2102 14.885 66.9165C14.71 66.6215 14.8075 66.2402 15.1 66.0627L22.0213 61.8702L14.5475 66.184C14.2513 66.3552 13.8738 66.2577 13.6975 65.9627C13.5225 65.669 13.6163 65.289 13.9075 65.1102L32.7413 53.5515L13.0938 64.894C12.7963 65.0652 12.42 64.9664 12.245 64.674C12.0688 64.3815 12.1613 64.0027 12.4513 63.8215L39.005 47.324L11.435 63.2402C11.1375 63.4115 10.7625 63.3127 10.5863 63.0215C10.41 62.729 10.5025 62.3502 10.7913 62.169L40.8088 43.4052L9.75503 61.3327C9.45878 61.504 9.08128 61.4065 8.90503 61.1115C8.73003 60.819 8.82378 60.439 9.11503 60.259L32.7663 45.6927L8.50253 59.7015C8.20628 59.8727 7.82878 59.7752 7.65253 59.4802C7.47753 59.1877 7.57128 58.8065 7.86253 58.6277L30.8388 44.5014L7.37378 58.049C7.07628 58.2202 6.69753 58.1215 6.52378 57.8265C6.34878 57.5327 6.44378 57.1527 6.73628 56.974L23.0125 47.0602L6.48503 56.6015C6.18753 56.7727 5.81128 56.674 5.63628 56.3827C5.46003 56.0902 5.55253 55.7115 5.84128 55.5302L36.4825 36.4027L5.30253 54.4027C5.00503 54.574 4.62753 54.4765 4.45253 54.1815C4.27753 53.889 4.37128 53.5089 4.66128 53.3289L29.8488 37.7815L4.42253 52.4765C4.12628 52.6477 3.74878 52.549 3.57378 52.2565C3.39753 51.964 3.49003 51.584 3.78003 51.404L31.1138 34.444L3.60628 50.3252C3.30753 50.4965 2.92878 50.3977 2.75503 50.1015C2.58003 49.8065 2.67753 49.4252 2.97128 49.2477L6.67128 47.019L3.17878 49.034C2.88128 49.2065 2.50503 49.1077 2.33003 48.8139C2.15378 48.5227 2.24628 48.1427 2.53503 47.9615L29.9788 30.879L2.56003 46.7115C2.26253 46.8827 1.88503 46.784 1.71003 46.4915C1.53503 46.1977 1.62878 45.819 1.91878 45.6377L24.88 31.4465L2.12878 44.5827C1.83128 44.7552 1.45253 44.6552 1.27753 44.359C1.10253 44.0627 1.20003 43.684 1.49253 43.5065L4.07878 41.9452L1.91878 43.1915C1.62003 43.3627 1.24253 43.264 1.06753 42.969C0.892529 42.674 0.990029 42.294 1.28253 42.1152L7.85378 38.1315L1.74878 41.6552C1.45128 41.8265 1.07253 41.7277 0.897529 41.4327C0.722529 41.1377 0.820029 40.7577 1.11128 40.579L7.81253 36.5127L1.64003 40.0765C1.34253 40.2477 0.965029 40.149 0.790029 39.8565C0.615029 39.5627 0.708779 39.1827 0.998779 39.0027L18.8888 27.9565L1.61128 37.9352C1.31378 38.1077 0.937529 38.009 0.762529 37.7152C0.586279 37.424 0.678779 37.044 0.967529 36.8627L20.6738 24.599L1.72128 35.5415C1.42378 35.7127 1.04753 35.614 0.872529 35.3215C0.696279 35.029 0.790029 34.649 1.07878 34.469L17.0113 24.5865L1.97128 33.2702C1.67378 33.4427 1.29503 33.3415 1.12128 33.049C0.946279 32.7552 1.04128 32.374 1.33253 32.1952L6.48003 29.0477L2.27628 31.474C1.98003 31.6465 1.60253 31.5465 1.42753 31.2552C1.25128 30.9627 1.34378 30.584 1.63253 30.4027L15.865 21.5152L2.83628 29.0377C2.54253 29.209 2.16878 29.114 1.99003 28.8227C1.81253 28.534 1.90003 28.1565 2.18378 27.9715L22.1125 15.084L3.96128 25.5665C3.66878 25.7377 3.29503 25.6415 3.11628 25.354C2.93878 25.0665 3.02253 24.6902 3.30378 24.5027L20.9225 12.9015L5.71378 21.6815C5.41878 21.8527 5.04753 21.7565 4.86878 21.469C4.69128 21.1815 4.77503 20.804 5.05753 20.6177L16.405 13.1615L7.84753 18.1015C7.55628 18.2715 7.18628 18.179 7.00628 17.8927C6.82628 17.6077 6.90503 17.234 7.18253 17.044L15.3988 11.4377L11.255 13.8302C10.9675 14.0002 10.595 13.9077 10.415 13.624C10.235 13.3415 10.31 12.9677 10.5863 12.7765L15.0688 9.6577C15.01 9.61145 14.96 9.5527 14.9213 9.48395C14.7475 9.1852 14.85 8.8027 15.15 8.6302L23.39 3.8727C23.68 3.70395 24.05 3.7952 24.23 4.07895C24.41 4.36145 24.335 4.7352 24.0588 4.92645L23.49 5.3227L29.165 2.04645C29.4575 1.8777 29.8275 1.96895 30.0063 2.2552C30.1863 2.5402 30.1075 2.91395 29.83 3.10395L21.61 8.7127L34.5338 1.2552C34.8275 1.08395 35.2 1.1802 35.3788 1.4677C35.5563 1.7552 35.4725 2.1327 35.19 2.31895L23.855 9.76645L38.7225 1.18145C39.0138 1.00895 39.3875 1.1052 39.5675 1.39395C39.745 1.68145 39.6613 2.0577 39.38 2.2452L21.7563 13.8502L42.9513 1.6127C43.245 1.4427 43.6188 1.53645 43.7975 1.8277C43.975 2.11645 43.8875 2.49395 43.6038 2.67895L23.6738 15.5677L46.5325 2.36895C46.8275 2.19645 47.2038 2.2952 47.3813 2.5877C47.5575 2.8802 47.465 3.25895 47.1763 3.4402L32.94 12.3302L48.9263 3.1002C49.2213 2.92645 49.6013 3.0277 49.7763 3.32145C49.9513 3.6152 49.8563 3.99645 49.565 4.1752L44.4213 7.3202L50.6325 3.7352C50.9288 3.56145 51.3038 3.6602 51.4813 3.9552C51.6575 4.2477 51.565 4.6277 51.275 4.8077L35.3313 14.6977L52.735 4.6502C53.0313 4.47645 53.4063 4.5752 53.5838 4.8702C53.76 5.16145 53.6675 5.54145 53.3788 5.7227L33.69 17.9752L54.8588 5.7552C55.1538 5.58145 55.5313 5.6802 55.7088 5.9752C55.8838 6.26895 55.79 6.64895 55.5 6.82895L37.5838 17.8927L56.6938 6.8602C56.99 6.6852 57.3675 6.7877 57.545 7.0827C57.72 7.3777 57.6225 7.7577 57.3313 7.93645L50.6725 11.9765L58.0075 7.74145C58.305 7.5677 58.6825 7.66895 58.8588 7.96395C59.0338 8.25895 58.9363 8.63895 58.6438 8.8177L52.0688 12.8027L59.2513 8.65645C59.5475 8.48145 59.9263 8.5827 60.1025 8.8802C60.2775 9.1752 60.18 9.5552 59.8875 9.7327L57.3 11.2952L60.3525 9.5327C60.6475 9.35895 61.025 9.4577 61.2025 9.7527C61.3775 10.0465 61.2838 10.4252 60.9938 10.6065L38.015 24.8077L61.9738 10.9765C62.2688 10.8027 62.6463 10.9015 62.8225 11.1965C62.9988 11.4877 62.9063 11.8677 62.6175 12.049L35.1913 29.1202L63.6713 12.6777C63.9675 12.504 64.3475 12.6052 64.5225 12.9015C64.6975 13.1977 64.6 13.5777 64.3063 13.7552L60.5838 15.9977L64.5788 13.6915C64.8738 13.5177 65.25 13.6165 65.4275 13.9115C65.6038 14.204 65.5113 14.584 65.2213 14.764L37.8913 31.7215L66.0325 15.4752C66.3275 15.3015 66.705 15.4002 66.8825 15.6965C67.0575 15.989 66.9638 16.369 66.6738 16.549L41.4675 32.1065L67.275 17.2077C67.57 17.034 67.9463 17.134 68.1238 17.4265C68.3 17.719 68.2075 18.0977 67.9188 18.279L37.2963 37.3952L68.5863 19.3302C68.8813 19.1565 69.2613 19.2565 69.4363 19.5527C69.6113 19.8465 69.5163 20.2265 69.2238 20.4052L52.925 30.3315L69.4 20.8215C69.695 20.6477 70.0725 20.7465 70.25 21.0427C70.425 21.3352 70.3313 21.7165 70.04 21.8952L47.0788 36.0115L70.2663 22.6252C70.5625 22.4527 70.94 22.5502 71.1163 22.8465C71.2913 23.139 71.1975 23.519 70.9063 23.699L47.235 38.2777L71.0538 24.5265C71.35 24.354 71.725 24.4527 71.9025 24.7452C72.0788 25.0377 71.9863 25.4165 71.6975 25.5977L41.6888 44.3565L71.8713 26.9315C72.1663 26.7577 72.5438 26.8565 72.72 27.1515C72.8963 27.444 72.8038 27.8227 72.5138 28.004L45.965 44.499L72.4675 29.1977C72.7638 29.0252 73.1413 29.1227 73.3175 29.419C73.4925 29.7127 73.3988 30.0927 73.1075 30.2715L54.2513 41.844L72.855 31.104C73.1513 30.929 73.53 31.0302 73.7063 31.3265C73.8813 31.6215 73.7838 32.0027 73.4913 32.1802L66.5788 36.369L73.0863 32.6115C73.3813 32.4377 73.7588 32.5365 73.9363 32.8327C74.1113 33.1265 74.0163 33.5077 73.725 33.6865L59.2863 42.5177L73.2788 34.439C73.5738 34.2652 73.9513 34.3652 74.1275 34.6577C74.3038 34.9502 74.2113 35.3302 73.9225 35.5102L50.4338 50.1614L73.3963 36.9052C73.6913 36.7315 74.0725 36.8315 74.2463 37.1277C74.4213 37.4215 74.3263 37.8027 74.0338 37.9802L67.1563 42.1652L73.38 38.5727C73.675 38.4027 74.0513 38.4977 74.2275 38.7902C74.4038 39.0802 74.315 39.459 74.0275 39.6415L48.8075 55.6402L73.1563 41.5827C73.4525 41.4115 73.8275 41.5077 74.0038 41.8002C74.18 42.0902 74.0913 42.469 73.805 42.6515L50.925 57.2077L72.6675 44.6552C72.9638 44.484 73.34 44.5815 73.5163 44.874C73.6925 45.1665 73.6 45.5452 73.3125 45.7265L58.5213 54.9852L72.0675 47.1652C72.3625 46.9939 72.7388 47.0902 72.915 47.3827C73.0913 47.6727 73.0025 48.0514 72.7163 48.234L56.8213 58.3302L71.1188 50.0752C71.4125 49.904 71.7875 49.999 71.965 50.2902C72.1425 50.5815 72.055 50.9577 71.77 51.1414L57.07 60.6052L69.725 53.3002C70.0163 53.1277 70.3913 53.2239 70.5688 53.5115C70.7475 53.799 70.6638 54.1752 70.3838 54.3627L56.7263 63.414L67.5038 57.1915C67.7963 57.019 68.1688 57.1152 68.3488 57.404C68.5263 57.6902 68.4425 58.0677 68.1613 58.254L61.6763 62.5315L64.9388 60.6477C65.225 60.4815 65.5925 60.569 65.775 60.8465C65.9563 61.1252 65.8888 61.4965 65.6213 61.6927L59.6875 66.0402C59.85 66.0777 59.9975 66.1802 60.0863 66.3365C60.26 66.6352 60.1575 67.0177 59.8575 67.1902L51.6175 71.9477C51.3338 72.1165 50.9638 72.0277 50.7813 71.7489C50.6 71.4702 50.6675 71.099 50.935 70.9027L55.615 67.474L44.0975 74.1227C43.8038 74.2927 43.4313 74.1977 43.2525 73.9102C43.075 73.624 43.1588 73.2465 43.44 73.0602L49.9313 68.7777L39.815 74.6177C39.7163 74.6752 39.6088 74.7015 39.5025 74.7015L39.4975 74.6802Z" fill="#8DAAC7"/>
<path d="M35.675 69.6803C35.465 69.6803 35.2612 69.574 35.1425 69.384C34.965 69.0965 35.0487 68.719 35.3312 68.5328L48.535 59.849L32.385 69.1728C32.09 69.3453 31.7162 69.2478 31.5375 68.9565C31.3612 68.6665 31.45 68.2878 31.7362 68.104L43.5137 60.5903L29.6862 68.574C29.39 68.7453 29.0125 68.6465 28.8375 68.354C28.6612 68.0628 28.7537 67.6828 29.0437 67.5015L35.6375 63.399L27.72 67.969C27.425 68.1415 27.0487 68.0453 26.8712 67.7503C26.695 67.459 26.7862 67.0803 27.075 66.8978L39.26 59.2553L25.5787 67.1528C25.2837 67.3253 24.91 67.2278 24.7325 66.9365C24.555 66.6453 24.6437 66.269 24.9287 66.0853L45.3237 53.0328L23.0112 65.914C22.715 66.0853 22.3375 65.9865 22.1625 65.694C21.9862 65.4015 22.0787 65.0228 22.3687 64.8415L35.8012 56.4903L21.26 64.8853C20.9662 65.0578 20.59 64.9615 20.4125 64.6678C20.2362 64.3765 20.3262 63.9978 20.6137 63.8153L41.4425 50.664L19.2187 63.4953C18.9212 63.6665 18.5425 63.5678 18.3687 63.274C18.1937 62.9803 18.2887 62.599 18.58 62.4203L25.4437 58.2253L17.985 62.5303C17.6887 62.7028 17.3112 62.604 17.135 62.3103C16.96 62.0165 17.0537 61.6365 17.3437 61.4565L31.8537 52.4928L16.5925 61.304C16.2975 61.4765 15.9212 61.3803 15.745 61.0865C15.5687 60.7953 15.6587 60.4165 15.9462 60.234L40.275 44.8715L14.845 59.5528C14.5475 59.7253 14.1687 59.624 13.995 59.3303C13.82 59.0365 13.915 58.6553 14.2075 58.4778L20.03 54.934L13.8987 58.474C13.6 58.6465 13.2237 58.5453 13.0475 58.2515C12.8725 57.9565 12.97 57.5765 13.2612 57.3978L16.715 55.3028L13.0525 57.4165C12.7587 57.589 12.3812 57.4903 12.2037 57.1978C12.0275 56.9065 12.12 56.5265 12.4075 56.3453L35.9262 41.6015L11.7337 55.5678C11.4375 55.7403 11.06 55.6403 10.885 55.349C10.7087 55.0565 10.8012 54.6778 11.09 54.4965L33.2525 40.6603L10.6125 53.7315C10.3162 53.9028 9.93874 53.804 9.76374 53.5128C9.58749 53.2203 9.67999 52.8415 9.96874 52.6603L32.6275 38.4953L9.59874 51.7903C9.30124 51.9615 8.92374 51.864 8.74874 51.569C8.57374 51.2765 8.66749 50.8965 8.95874 50.7165L24.0675 41.4153L8.88999 50.1778C8.59374 50.349 8.21374 50.2503 8.03999 49.9553C7.86499 49.6615 7.95999 49.2815 8.25124 49.1028L16.7887 43.894L8.35374 48.764C8.05624 48.9365 7.67749 48.8365 7.50374 48.5415C7.32874 48.2478 7.42374 47.8665 7.71624 47.6878L12.5237 44.7665L7.91499 47.4265C7.61874 47.5978 7.24124 47.5003 7.06499 47.2053C6.88999 46.9128 6.98374 46.5315 7.27499 46.3528L19.9025 38.5915L7.46874 45.7703C7.16999 45.9428 6.79124 45.8428 6.61874 45.5478C6.44374 45.254 6.53874 44.8728 6.83124 44.694L10.08 42.7203L7.16874 44.4015C6.87374 44.574 6.49749 44.4765 6.32124 44.184C6.14499 43.894 6.23374 43.5153 6.52124 43.3328L30.4362 28.1515L6.77499 41.8128C6.47749 41.9853 6.10249 41.8865 5.92624 41.5928C5.74999 41.3015 5.84249 40.9215 6.13124 40.7403L22.02 30.8478L6.62124 39.7378C6.32374 39.909 5.94624 39.8115 5.77124 39.5165C5.59624 39.2215 5.68999 38.8428 5.98124 38.664L12.7425 34.5153L6.59624 38.0628C6.30124 38.2353 5.92624 38.1378 5.74874 37.8453C5.57249 37.554 5.66249 37.1753 5.94999 36.9928L22.9625 26.2728L6.71624 35.6515C6.41999 35.824 6.04249 35.7253 5.86624 35.4303C5.69124 35.1365 5.78624 34.7565 6.07749 34.5765L7.16124 33.914L6.89749 34.0653C6.60249 34.2378 6.22749 34.1415 6.04999 33.8478C5.87374 33.5578 5.96249 33.179 6.24874 32.9965L21.575 23.254L7.38249 31.449C7.08874 31.6215 6.70999 31.5253 6.53374 31.2303C6.35749 30.939 6.44874 30.5603 6.73749 30.3778L15.415 24.9315L7.96999 29.229C7.67499 29.4015 7.30249 29.304 7.12249 29.0128C6.94624 28.7228 7.03499 28.344 7.32124 28.1603L17.4087 21.729L8.90124 26.6403C8.60749 26.814 8.23124 26.7153 8.05374 26.4228C7.87749 26.1315 7.96749 25.7528 8.25374 25.5703L12.65 22.7903L9.95249 24.3478C9.65999 24.5203 9.28374 24.4228 9.10749 24.134C8.92999 23.8465 9.01499 23.469 9.29749 23.284L16.725 18.4215L11.705 21.3178C11.4112 21.4878 11.0387 21.3928 10.86 21.1053C10.6825 20.819 10.7662 20.4415 11.0475 20.2553L14.165 18.1978L13.9312 18.3315C13.645 18.5003 13.2762 18.409 13.0937 18.1303C12.9125 17.8515 12.9825 17.479 13.2525 17.284L17.9775 13.864C17.8762 13.8115 17.7875 13.7303 17.7262 13.6228C17.5525 13.324 17.655 12.9415 17.955 12.769L25.5787 8.36779C25.8637 8.19904 26.2337 8.28904 26.4162 8.56904C26.5975 8.84779 26.5275 9.22029 26.2575 9.41529L23.81 11.1865L31.7362 6.61154C32.0275 6.44029 32.4012 6.53529 32.5812 6.82404C32.7587 7.11029 32.675 7.48779 32.3937 7.67404L29.27 9.73404L35.4287 6.17904C35.7225 6.00904 36.0962 6.10404 36.2737 6.39279C36.4512 6.68154 36.3662 7.05779 36.0837 7.24279L28.6712 12.0953L38.9175 6.18029C39.2137 6.00904 39.5887 6.10529 39.765 6.39779C39.9412 6.69029 39.8512 7.06779 39.565 7.25029L35.155 10.0378L41.415 6.42404C41.7112 6.25404 42.0837 6.35029 42.2625 6.64029C42.4387 6.93029 42.35 7.30904 42.0637 7.49279L31.985 13.919L44.1125 6.91654C44.4087 6.74529 44.7862 6.84154 44.9612 7.13529C45.1375 7.42654 45.0462 7.80529 44.7575 7.98779L36.0825 13.4328L46.3475 7.50654C46.6437 7.33654 47.02 7.43279 47.195 7.72404C47.3712 8.01404 47.2825 8.39279 46.9962 8.57529L31.6625 18.3215L48.845 8.40154C49.1412 8.22904 49.5187 8.32654 49.695 8.62279C49.87 8.91654 49.775 9.29654 49.4837 9.47654L48.3912 10.1453L50.3087 9.03779C50.6037 8.86654 50.98 8.96279 51.1562 9.25529C51.3325 9.54779 51.2425 9.92529 50.955 10.1078L33.9562 20.819L52.4525 10.1403C52.7487 9.96654 53.1262 10.0653 53.3025 10.3615C53.4775 10.6553 53.3837 11.0353 53.0925 11.214L46.2912 15.389L53.8887 11.0028C54.185 10.8303 54.56 10.929 54.7375 11.2228C54.9137 11.514 54.8212 11.894 54.5325 12.0753L38.6612 21.9565L55.6062 12.174C55.9037 12.0028 56.2775 12.099 56.4537 12.3915C56.63 12.6815 56.5412 13.0603 56.2537 13.2428L32.34 28.4228L57.6462 13.8128C57.9425 13.639 58.3225 13.739 58.4962 14.0353C58.6712 14.329 58.5762 14.7103 58.2837 14.889L55.0287 16.8653L58.6825 14.7565C58.9775 14.5828 59.355 14.6815 59.5325 14.9778C59.7075 15.2703 59.6137 15.6515 59.3225 15.8303L46.6887 23.5953L59.8912 15.9728C60.1875 15.799 60.5662 15.9003 60.7412 16.1953C60.9162 16.4903 60.8212 16.8703 60.5287 17.049L55.7262 19.9678L60.8325 17.0203C61.1275 16.8478 61.5075 16.9465 61.6825 17.2428C61.8575 17.5365 61.7625 17.9165 61.4712 18.0953L52.9237 23.3103L61.7925 18.1903C62.0875 18.0165 62.465 18.1153 62.6425 18.4115C62.8175 18.704 62.7237 19.084 62.4325 19.264L47.3387 28.5578L62.8375 19.609C63.1337 19.4353 63.5087 19.5353 63.6862 19.8278C63.8625 20.1203 63.77 20.499 63.4812 20.6803L40.825 34.844L64.0225 21.4515C64.3175 21.2778 64.695 21.3778 64.8712 21.6703C65.0475 21.9628 64.955 22.3415 64.6662 22.5228L42.4887 36.369L65.0575 23.339C65.3525 23.1678 65.73 23.2665 65.9062 23.5578C66.0825 23.849 65.99 24.229 65.7025 24.4103L42.2 39.144L66.0087 25.3978C66.305 25.224 66.6837 25.324 66.86 25.6203C67.035 25.9153 66.9375 26.2953 66.6462 26.474L63.1425 28.599L66.5037 26.6578C66.7987 26.4828 67.18 26.5853 67.3537 26.8803C67.5287 27.174 67.4337 27.5553 67.1412 27.7328L61.345 31.259L66.9637 28.0153C67.26 27.844 67.6362 27.9415 67.8112 28.2328C67.9875 28.524 67.8975 28.9028 67.61 29.0853L43.2837 44.4465L67.6025 30.4065C67.8975 30.234 68.275 30.3328 68.4525 30.6265C68.6275 30.9203 68.5337 31.3003 68.2437 31.4803L53.7175 40.454L67.9637 32.229C68.2587 32.0553 68.6387 32.1553 68.8137 32.4503C68.9887 32.7453 68.8937 33.1253 68.6025 33.304L61.75 37.494L68.1825 33.7803C68.4787 33.6103 68.8537 33.7053 69.03 33.9978C69.2062 34.2903 69.1162 34.6678 68.8287 34.8503L48.0037 47.999L68.365 36.244C68.66 36.0715 69.0375 36.1703 69.2137 36.464C69.39 36.7578 69.2975 37.1353 69.0075 37.3165L55.5675 45.6728L68.37 38.2815C68.665 38.1103 69.04 38.2078 69.2162 38.4978C69.3937 38.7878 69.305 39.1653 69.02 39.349L48.6262 52.4015L68.1587 41.1253C68.455 40.9553 68.8312 41.0503 69.0075 41.344C69.1837 41.6353 69.0925 42.014 68.8037 42.1965L56.6112 49.8453L67.8062 43.3815C68.1012 43.2078 68.4787 43.3065 68.655 43.6015C68.8312 43.8928 68.7387 44.2728 68.4487 44.454L61.8525 48.5578L67.3437 45.389C67.64 45.219 68.0137 45.3153 68.1912 45.6053C68.3675 45.8953 68.2787 46.274 67.9925 46.4578L56.2325 53.9603L66.52 48.0203C66.815 47.849 67.1862 47.9453 67.365 48.2328C67.5425 48.5203 67.4587 48.8978 67.1762 49.084L53.9612 57.7753L65.0675 51.364C65.36 51.1953 65.7312 51.2865 65.91 51.5728C66.0887 51.8578 66.01 52.2315 65.7312 52.4215L54.5762 60.0165L62.675 55.3415C62.96 55.1728 63.3312 55.2628 63.5137 55.544C63.6937 55.8253 63.6225 56.1965 63.35 56.3915L57.1462 60.8128L58.765 59.879C59.0625 59.704 59.4462 59.8078 59.6187 60.1078C59.7925 60.4065 59.69 60.789 59.39 60.9615L46.4587 68.4278C46.1725 68.5953 45.8025 68.5053 45.62 68.2253C45.44 67.944 45.5112 67.5728 45.7837 67.3778L51.9912 62.9528L40.61 69.524C40.32 69.6953 39.9475 69.6015 39.7675 69.3153C39.5887 69.0303 39.6675 68.6565 39.9462 68.4665L51.0975 60.874L35.9862 69.5978C35.8875 69.6553 35.78 69.6815 35.6737 69.6815L35.675 69.6803Z" fill="#8DAAC7"/>
<path d="M27.3825 55.9882C27.2013 55.9882 27.0238 55.9107 26.9 55.7607C26.7063 55.5257 26.71 55.1857 26.9088 54.9532L28.3238 53.3157L24.4613 55.5444C24.1825 55.7082 23.8213 55.6282 23.635 55.3607C23.4513 55.0932 23.5013 54.7294 23.7513 54.5219L25.0538 53.4457L24.1 53.9957C23.8163 54.1607 23.455 54.0757 23.2713 53.8082C23.0875 53.5369 23.1413 53.1707 23.3988 52.9669L24.3175 52.2332L24.1 52.3582C23.8275 52.5182 23.475 52.4457 23.285 52.1882C23.0963 51.9332 23.13 51.5757 23.3625 51.3594L26.74 48.2194L24.1013 49.7432C23.8225 49.9057 23.4638 49.8269 23.2775 49.5619C23.0925 49.2969 23.1388 48.9344 23.385 48.7244L25.5025 46.9307L24.1013 47.7382C23.8175 47.9032 23.4563 47.8182 23.2725 47.5507C23.0888 47.2807 23.1425 46.9132 23.3988 46.7094L24.3663 45.9357L24.1013 46.0882C23.8288 46.2482 23.4763 46.1757 23.2888 45.9207C23.0988 45.6669 23.1288 45.3119 23.36 45.0932L26.9425 41.6969L24.1025 43.3369C23.8275 43.4994 23.4688 43.4219 23.2813 43.1582C23.095 42.8957 23.1375 42.5332 23.3813 42.3232L25.8163 40.2182L24.1025 41.2069C23.8213 41.3732 23.46 41.2894 23.275 41.0207C23.0913 40.7519 23.1438 40.3857 23.3975 40.1807L24.665 39.1544L24.1038 39.4782C23.82 39.6432 23.4575 39.5594 23.275 39.2894C23.0913 39.0182 23.1463 38.6507 23.4038 38.4482L24.1575 37.8494L24.105 37.8794C23.8213 38.0457 23.4575 37.9594 23.2738 37.6882C23.0913 37.4157 23.1488 37.0469 23.4088 36.8457L23.8988 36.4644C23.6725 36.5007 23.4375 36.4157 23.2925 36.2232C23.1038 35.9694 23.1325 35.6144 23.3625 35.3957L27.0013 31.9269L24.1063 33.5982C23.8338 33.7594 23.4813 33.6857 23.2913 33.4282C23.1025 33.1719 23.1363 32.8157 23.3688 32.5994L26.7213 29.4894L24.1063 30.9994C23.8338 31.1594 23.4838 31.0882 23.2925 30.8319C23.1038 30.5769 23.135 30.2207 23.3663 30.0032L26.8813 26.6957L24.1075 28.2957C23.8338 28.4582 23.4763 28.3819 23.2888 28.1194C23.1013 27.8594 23.1413 27.5007 23.38 27.2869L26.12 24.8544L24.1075 26.0169C23.835 26.1782 23.48 26.1057 23.2925 25.8457C23.1038 25.5894 23.1375 25.2319 23.3713 25.0157L24.6988 23.7932L24.1075 24.1332C23.87 24.2694 23.57 24.2369 23.37 24.0507C23.1688 23.8657 23.1125 23.5694 23.2325 23.3219L23.9175 21.8957C23.6925 21.9119 23.4463 21.8044 23.32 21.5857C23.1463 21.2869 23.2488 20.9044 23.5488 20.7319L25 19.8944C25.2363 19.7582 25.5363 19.7919 25.7375 19.9769C25.9388 20.1619 25.995 20.4582 25.875 20.7057L25.2338 22.0382L28.9513 19.8932C29.225 19.7332 29.58 19.8057 29.7663 20.0644C29.955 20.3207 29.9213 20.6782 29.6875 20.8944L28.3625 22.1144L30.8275 20.6919C31.1025 20.5319 31.46 20.6069 31.6463 20.8682C31.8338 21.1282 31.7938 21.4869 31.555 21.7007L28.8138 24.1344L30.9075 22.9257C31.18 22.7657 31.5313 22.8382 31.7213 23.0932C31.91 23.3482 31.8788 23.7044 31.6475 23.9219L28.135 27.2282L30.9063 25.6294C31.18 25.4694 31.5325 25.5432 31.7213 25.7994C31.91 26.0557 31.8763 26.4119 31.6438 26.6282L28.2913 29.7382L30.9063 28.2282C31.1763 28.0694 31.5275 28.1407 31.7188 28.3944C31.9075 28.6482 31.8788 29.0032 31.6488 29.2219L28.01 32.6919L30.905 31.0194C31.1875 30.8544 31.5513 30.9394 31.7363 31.2107C31.9188 31.4832 31.8613 31.8519 31.6013 32.0532L31.1113 32.4344C31.3475 32.3944 31.5938 32.4919 31.7338 32.6994C31.9175 32.9707 31.8625 33.3382 31.605 33.5407L30.8513 34.1394L30.9038 34.1094C31.1863 33.9432 31.5463 34.0269 31.7313 34.2957C31.915 34.5644 31.8625 34.9307 31.6088 35.1357L30.3413 36.1619L30.9025 35.8382C31.1788 35.6769 31.5375 35.7544 31.7238 36.0169C31.91 36.2794 31.8675 36.6419 31.6238 36.8519L29.1888 38.9569L30.9025 37.9682C31.175 37.8082 31.5263 37.8807 31.715 38.1357C31.905 38.3894 31.875 38.7444 31.6438 38.9632L28.0613 42.3594L30.9013 40.7194C31.1838 40.5532 31.545 40.6382 31.73 40.9069C31.9138 41.1769 31.86 41.5444 31.6038 41.7482L30.6363 42.5219L30.9013 42.3694C31.1763 42.2057 31.5375 42.2844 31.725 42.5507C31.91 42.8157 31.8638 43.1782 31.6175 43.3882L29.5 45.1819L30.9013 44.3744C31.1738 44.2157 31.5263 44.2869 31.7163 44.5444C31.905 44.7994 31.8713 45.1569 31.6388 45.3732L28.2613 48.5132L30.9 46.9894C31.1825 46.8232 31.5438 46.9082 31.7288 47.1769C31.9125 47.4482 31.8588 47.8144 31.6013 48.0182L30.6825 48.7519L30.9 48.6269C31.18 48.4619 31.5413 48.5432 31.725 48.8107C31.91 49.0782 31.86 49.4419 31.61 49.6494L30.3063 50.7257L30.9 50.3844C31.1613 50.2307 31.4988 50.2894 31.6938 50.5269C31.8888 50.7619 31.885 51.1019 31.6863 51.3344L30.2713 52.9732L30.9 52.6107C31.1975 52.4344 31.5813 52.5382 31.7538 52.8394C31.9275 53.1382 31.825 53.5207 31.525 53.6932L27.6963 55.9044C27.5988 55.9619 27.49 55.9882 27.3825 55.9882Z" fill="white"/>
<path d="M48.5212 55.9874C48.3562 55.9874 48.1937 55.9225 48.0737 55.7987C47.8737 55.5937 47.8387 55.2787 47.99 55.035L49.3837 52.7724L44.5062 55.5887C44.2325 55.75 43.875 55.6737 43.6875 55.4137C43.5 55.1537 43.5387 54.7937 43.7787 54.5812L46.2337 52.395L44.1012 53.625C43.8287 53.7862 43.4725 53.7125 43.285 53.4524C43.0962 53.195 43.1325 52.8362 43.3675 52.6212L46.505 49.7662L44.1012 51.1537C43.83 51.3125 43.4775 51.2412 43.2875 50.9862C43.0987 50.7325 43.13 50.3762 43.36 50.1587L46.915 46.7987L44.1025 48.4224C43.83 48.5849 43.4775 48.51 43.2875 48.2525C43.0987 47.9962 43.1325 47.6399 43.365 47.4237L46.72 44.3125L44.1025 45.8225C43.83 45.9837 43.475 45.91 43.2875 45.6512C43.0987 45.3949 43.1325 45.0387 43.3662 44.8224L46.6587 41.7837L44.1025 43.2599C43.8225 43.4249 43.4625 43.3437 43.2775 43.0762C43.0925 42.8099 43.1412 42.445 43.3925 42.2387L45.0925 40.83L44.1025 41.4012C43.8212 41.5662 43.46 41.4837 43.275 41.215C43.0912 40.945 43.1437 40.5787 43.3987 40.3749L44.5675 39.4312L44.1037 39.6987C43.8262 39.8599 43.465 39.7812 43.28 39.5175C43.095 39.2525 43.1412 38.8887 43.3875 38.68L45.4825 36.9074L44.1037 37.7037C43.8225 37.8687 43.4625 37.785 43.2775 37.5187C43.0925 37.25 43.1437 36.885 43.3962 36.68L44.8425 35.4974L44.1037 35.9237C43.8237 36.0875 43.465 36.0062 43.28 35.7412C43.095 35.4762 43.1412 35.1137 43.3887 34.905L45.4262 33.1862L44.1037 33.9487C43.83 34.1112 43.4712 34.035 43.2837 33.7712C43.0962 33.51 43.1375 33.15 43.3787 32.9375L46.0262 30.6174L44.1037 31.7275C43.8237 31.8925 43.4637 31.8112 43.2787 31.5437C43.0937 31.2775 43.1425 30.9137 43.3925 30.7062L45.1237 29.2712L44.105 29.86C43.8325 30.0175 43.4825 29.9462 43.2925 29.6937C43.1037 29.4412 43.1325 29.0862 43.3612 28.8674L47.0412 25.3449L44.105 27.0387C43.8212 27.2037 43.4587 27.12 43.275 26.8487C43.0925 26.5775 43.1475 26.2112 43.405 26.0074L43.9312 25.5912C43.7037 25.6487 43.4487 25.5612 43.2962 25.3624C43.105 25.1137 43.1275 24.7625 43.35 24.54L44.5362 23.3524L44.1037 23.6012C43.8587 23.7437 43.5487 23.7037 43.3487 23.5025C43.1487 23.3025 43.1087 22.9925 43.25 22.7475L43.745 21.8925C43.57 21.8612 43.41 21.7562 43.315 21.5899C43.1412 21.2912 43.2437 20.9087 43.5437 20.7362L44.995 19.8987C45.2375 19.7537 45.5487 19.795 45.75 19.9975C45.95 20.1975 45.99 20.5074 45.8487 20.7524L45.5037 21.35L48.0175 19.8987C48.2875 19.7424 48.6337 19.81 48.825 20.0587C49.0162 20.3075 48.9937 20.6587 48.7712 20.8812L47.5825 22.0712L50.6087 20.3249C50.89 20.1587 51.2537 20.2437 51.4387 20.5149C51.6212 20.7862 51.5662 21.1524 51.3087 21.3562L50.9312 21.6537C51.1987 21.515 51.53 21.5912 51.7162 21.8362C51.905 22.0887 51.8762 22.4437 51.6475 22.6624L47.9675 26.1849L50.9037 24.4912C51.1837 24.3262 51.5437 24.4075 51.7287 24.675C51.9137 24.9412 51.865 25.3049 51.615 25.5124L49.8837 26.9475L50.9025 26.3587C51.18 26.1975 51.5362 26.2737 51.7225 26.5362C51.91 26.7975 51.8687 27.1574 51.6275 27.3699L48.98 29.6899L50.9025 28.58C51.1825 28.415 51.5412 28.4974 51.7262 28.7625C51.9112 29.0275 51.865 29.3899 51.6175 29.5987L49.58 31.3174L50.9025 30.555C51.1837 30.39 51.5437 30.4737 51.7287 30.7399C51.9137 31.0087 51.8625 31.3737 51.61 31.5787L50.1637 32.7612L50.9025 32.335C51.1787 32.1725 51.54 32.2512 51.7262 32.5162C51.9112 32.7812 51.865 33.145 51.6187 33.3537L49.5237 35.1262L50.9025 34.3299C51.1837 34.1649 51.5462 34.2474 51.73 34.5162C51.9137 34.7849 51.8612 35.1525 51.6062 35.3562L50.4375 36.2999L50.9012 36.0325C51.1812 35.8675 51.5412 35.9487 51.7262 36.2162C51.9112 36.4825 51.8625 36.8475 51.6112 37.0537L49.9112 38.4625L50.9012 37.8912C51.175 37.7325 51.53 37.8049 51.7162 38.0624C51.905 38.3187 51.8712 38.6749 51.6375 38.8912L48.345 41.9299L50.9012 40.4537C51.175 40.2937 51.5275 40.3675 51.7162 40.6237C51.905 40.8799 51.8712 41.2362 51.6387 41.4524L48.2837 44.5637L50.9012 43.0537C51.1737 42.8937 51.525 42.9662 51.715 43.2212C51.9037 43.4749 51.8725 43.8312 51.6425 44.0487L48.0875 47.4087L50.9 45.7849C51.1737 45.6249 51.5287 45.6987 51.7162 45.9574C51.905 46.2149 51.8687 46.5737 51.6337 46.7887L48.4962 49.6437L50.9 48.2562C51.175 48.0962 51.5312 48.1724 51.7187 48.4312C51.9062 48.6912 51.8675 49.0512 51.6275 49.2637L49.1725 51.4512L50.9 50.4537C51.1462 50.3074 51.46 50.3524 51.66 50.5587C51.86 50.7637 51.895 51.0787 51.7437 51.3224L50.35 53.5849L50.8987 53.2687C51.1975 53.0924 51.5812 53.1974 51.7525 53.4975C51.9262 53.7962 51.8237 54.1787 51.5237 54.3512L48.8337 55.9037C48.7362 55.9612 48.6287 55.9874 48.5212 55.9874Z" fill="white"/>
<path d="M44.7488 74.0202C80.8588 67.4452 85.0813 15.0715 50.2013 3.17149C-10.6425 -13.3298 -18.2112 81.6602 44.7488 74.0202ZM7.09252 19.6215C24.6813 -11.271 73.4063 2.78024 72.8363 37.9852C68.1313 98.4502 -19.34 73.4552 7.09252 19.6215Z" fill="#262626"/>
<path d="M37.4125 69.7855C91.8488 65.4693 70.0363 -13.562 21.145 10.5355C-6.69874 26.4493 5.42501 70.2093 37.4125 69.7855ZM18.1288 14.2655C63.6875 -16.722 92.4538 63.1343 37.5875 68.5155C9.93501 69.1193 -3.60999 31.3793 18.1288 14.2655Z" fill="#262626"/>
<path d="M22.8375 45.1076C23.2213 51.8563 20.225 57.6038 29.9038 56.0001C34.4775 56.9738 31.3763 26.7538 32.165 21.9113C32.095 18.6701 27.8275 19.9601 25.7 19.7963C19.9888 18.7588 23.935 40.6076 22.8388 45.1063L22.8375 45.1076ZM24.6638 21.6276C24.6788 20.3013 26.91 21.1751 27.7913 21.0038C28.735 21.0038 30.17 20.6601 30.3375 21.9026C30.4613 30.9551 30.2575 40.0801 30.3375 49.1588C30.3375 49.5251 30.7088 54.6826 30.1 54.7976C28.4813 54.4288 25.0625 55.8214 24.6625 53.6426C24.605 42.9813 24.69 32.2963 24.6625 21.6276H24.6638Z" fill="#262626"/>
<path d="M42.8375 45.1068C43.2213 51.8556 40.225 57.6056 49.9038 56.0018C54.4775 56.9756 51.3763 26.7543 52.165 21.9118C52.095 18.6693 47.8275 19.9568 45.6988 19.7943C39.9875 18.7568 43.9338 40.6081 42.8375 45.1068ZM44.6638 21.6268C44.7063 20.3031 46.9013 21.1756 47.7925 21.0031C48.735 21.0031 50.1713 20.6593 50.3388 21.8993C50.1388 32.6993 50.8288 44.1456 50.1013 54.7943C48.4825 54.4256 45.065 55.8181 44.6638 53.6406C44.6288 42.9806 44.6575 32.2843 44.6638 21.6256V21.6268Z" fill="#262626"/>
</svg>
